<svg width="551" height="181" viewBox="0 0 551 181" fill="none" xmlns="http://www.w3.org/2000/svg">
<path d="M35.496 56.568C44.1573 56.568 51.5427 60.628 57.652 68.748C63.8387 76.868 66.932 86.6507 66.932 98.096C66.932 109.541 63.8387 119.324 57.652 127.444C51.5427 135.487 44.1573 139.508 35.496 139.508C26.8347 139.508 19.4493 135.487 13.34 127.444C7.23067 119.324 4.176 109.541 4.176 98.096C4.176 86.6507 7.23067 76.868 13.34 68.748C19.4493 60.628 26.8347 56.568 35.496 56.568ZM40.716 71.184C39.7107 72.576 39.0533 73.7747 38.744 74.78C38.512 75.7853 38.4733 76.636 38.628 77.332C38.7827 77.9507 38.9373 78.4533 39.092 78.84C39.1693 79.072 39.208 79.2653 39.208 79.42C41.76 78.492 43.6547 77.216 44.892 75.592C46.2067 73.968 47.096 72.2667 47.56 70.488C48.024 68.7093 48.256 67.2013 48.256 65.964C48.256 64.6493 48.256 63.992 48.256 63.992C48.256 63.992 47.4827 64.5333 45.936 65.616C44.3893 66.6987 42.6493 68.5547 40.716 71.184ZM22.852 63.992C22.852 63.992 22.852 64.6493 22.852 65.964C22.852 67.2013 23.0453 68.7093 23.432 70.488C23.896 72.2667 24.7853 73.968 26.1 75.592C27.4147 77.216 29.3093 78.492 31.784 79.42C31.784 79.2653 31.8613 79.072 32.016 78.84C32.1707 78.4533 32.2867 77.9507 32.364 77.332C32.5187 76.636 32.48 75.7853 32.248 74.78C32.016 73.7747 31.3973 72.576 30.392 71.184C28.4587 68.5547 26.7187 66.6987 25.172 65.616C23.6253 64.5333 22.852 63.992 22.852 63.992ZM14.152 83.828C14.152 83.828 14.4613 84.0987 15.08 84.64C15.776 85.1813 16.7813 85.6453 18.096 86.032C19.488 86.4187 21.1893 86.5347 23.2 86.38C25.2107 86.148 27.5307 85.4133 30.16 84.176C30.16 84.176 29.9667 83.9827 29.58 83.596C29.1933 83.132 28.652 82.6293 27.956 82.088C27.26 81.5467 26.4093 81.1213 25.404 80.812C24.476 80.4253 23.4707 80.2707 22.388 80.348C20.8413 80.5027 19.4493 80.8507 18.212 81.392C16.9747 81.9333 15.9693 82.4747 15.196 83.016C14.5 83.5573 14.152 83.828 14.152 83.828ZM19.14 128.488C20.6093 127.947 22.62 126.825 25.172 125.124C27.724 123.423 29.8893 121.451 31.668 119.208C33.524 116.888 33.988 114.568 33.06 112.248C28.9613 112.403 25.3267 113.872 22.156 116.656C19.0627 119.363 18.0573 123.307 19.14 128.488ZM28.536 106.68H42.572V88.468H28.536V106.68ZM51.968 128.488C52.9733 123.307 51.9293 119.363 48.836 116.656C45.7427 113.872 42.1467 112.403 38.048 112.248C37.12 114.568 37.5453 116.888 39.324 119.208C41.18 121.451 43.384 123.423 45.936 125.124C48.488 126.825 50.4987 127.947 51.968 128.488ZM40.832 84.176C43.5387 85.4133 45.8973 86.148 47.908 86.38C49.9187 86.5347 51.5813 86.4187 52.896 86.032C54.288 85.6453 55.2933 85.1813 55.912 84.64C56.608 84.0987 56.956 83.828 56.956 83.828C56.956 83.828 56.5693 83.5573 55.796 83.016C55.1 82.4747 54.1333 81.9333 52.896 81.392C51.6587 80.8507 50.2667 80.5027 48.72 80.348C47.6373 80.2707 46.5933 80.4253 45.588 80.812C44.66 81.1213 43.848 81.5467 43.152 82.088C42.456 82.6293 41.876 83.132 41.412 83.596C41.0253 83.9827 40.832 84.176 40.832 84.176ZM35.496 93.572L37.816 95.776L40.02 98.096L37.816 100.3L35.496 102.62L33.292 100.3L30.972 98.096L33.292 95.776L35.496 93.572ZM119.33 87.076C121.263 87.076 122.926 87.772 124.318 89.164C125.787 90.556 126.522 92.2187 126.522 94.152V114.22C126.522 121.257 123.931 127.251 118.75 132.2C113.646 137.072 107.575 139.508 100.538 139.508C93.5776 139.508 87.5842 137.111 82.5576 132.316C77.5309 127.444 74.9016 121.412 74.6696 114.22V94.152C74.6696 92.2187 75.3656 90.556 76.7576 89.164C78.1496 87.772 79.8509 87.076 81.8616 87.076L90.3296 101.808H93.1136V114.22C93.1136 116.54 93.8869 118.396 95.4336 119.788C96.9802 121.18 98.6816 121.876 100.538 121.876C102.394 121.876 104.056 121.18 105.526 119.788C107.072 118.396 107.923 116.54 108.078 114.22L107.962 101.808H110.862L119.33 87.076ZM84.0656 97.864L81.2816 105.288L84.0656 112.712L86.8496 105.288L84.0656 97.864ZM86.7336 123.5V121.644H81.3976V123.5H86.7336ZM89.0536 118.628V116.656H79.0776V118.628H89.0536ZM102.51 133.012L104.482 131.156L102.51 129.3L100.654 127.328L98.7976 129.3L96.8256 131.156L98.7976 133.012L100.654 134.984L102.51 133.012ZM118.286 97.864L115.502 105.288L118.286 112.712L120.954 105.288L118.286 97.864ZM120.954 123.5V121.644H115.618V123.5H120.954ZM123.274 118.628V116.656H113.182V118.628H123.274ZM106.106 92.644H94.9696L91.4896 87.076H109.586L106.106 92.644ZM97.6376 109.812H95.6656V101.924H97.6376V109.812ZM105.526 109.812H103.438V101.924H105.526V109.812ZM101.582 113.06H99.4936V98.212H101.582V113.06ZM157.706 108.188L160.374 138.116H139.03L140.654 89.28L155.734 87.076L156.314 92.528L182.066 87.076L187.518 98.096L157.706 108.188ZM177.774 91.252L175.918 94.732L179.166 96.588L181.022 93.108L177.774 91.252ZM172.786 94.5L168.146 95.892L168.842 98.328L173.482 96.936L172.786 94.5ZM162.346 96.124L160.49 99.488L163.738 101.344L165.71 97.864L162.346 96.124ZM149.586 116.308L152.138 113.64L149.354 110.856L146.686 113.64L149.586 116.308ZM151.21 124.08L150.978 119.208H148.542L148.658 124.08H151.21ZM150.166 132.432L152.834 129.764L149.934 126.98L147.382 129.764L150.166 132.432ZM150.978 105.172C151.828 103.857 152.795 102.775 153.878 101.924C152.718 100.996 151.674 99.9133 150.746 98.676C149.895 97.4387 149.16 96.1627 148.542 94.848C147.459 97.632 145.99 99.9907 144.134 101.924C146.144 103.78 147.807 106.1 149.122 108.884C149.663 107.569 150.282 106.332 150.978 105.172ZM247.216 89.28L267.4 114.22C269.643 117.004 271.073 120.02 271.692 123.268C272.311 126.516 271.421 129.377 269.024 131.852L264.848 135.912C262.683 137.845 260.015 139.005 256.844 139.392C252.049 139.933 247.951 138.889 244.548 136.26L228.308 122.572L240.72 109.348L253.596 124.312C253.983 124.776 254.408 124.969 254.872 124.892C255.336 124.737 255.645 124.467 255.8 124.08C255.955 123.693 255.877 123.268 255.568 122.804C255.336 122.495 254.795 121.876 253.944 120.948C251.16 117.545 246.52 112.016 240.024 104.36C236.544 100.416 234.224 96.5107 233.064 92.644C231.904 88.7773 232.136 84.176 233.76 78.84C235.539 73.3493 238.091 68.4 241.416 63.992C244.355 60.1253 247.255 57.8053 250.116 57.032C252.977 56.1813 256.496 56.6067 260.672 58.308C264.152 59.7 267.516 61.208 270.764 62.832C274.012 64.456 276.719 65.8867 278.884 67.124C281.127 68.284 282.248 68.864 282.248 68.864L266.008 86.844L257.192 79.072C254.872 77.2933 252.668 76.9453 250.58 78.028C248.569 79.0333 247.139 80.696 246.288 83.016C245.515 85.336 245.824 87.424 247.216 89.28ZM266.356 69.444C265.351 69.444 264.461 69.792 263.688 70.488C262.992 71.184 262.644 72.0347 262.644 73.04C262.644 74.0453 262.992 74.9347 263.688 75.708C264.461 76.404 265.351 76.752 266.356 76.752C267.361 76.752 268.212 76.404 268.908 75.708C269.604 74.9347 269.952 74.0453 269.952 73.04C269.952 72.0347 269.604 71.184 268.908 70.488C268.212 69.792 267.361 69.444 266.356 69.444ZM254.06 64.92C253.209 64.92 252.475 65.2293 251.856 65.848C251.237 66.4667 250.928 67.2013 250.928 68.052C250.928 68.98 251.237 69.7533 251.856 70.372C252.475 70.9133 253.209 71.184 254.06 71.184C254.911 71.184 255.645 70.9133 256.264 70.372C256.883 69.7533 257.192 68.98 257.192 68.052C257.192 67.2013 256.883 66.4667 256.264 65.848C255.645 65.2293 254.911 64.92 254.06 64.92ZM239.792 88.12C240.333 88.12 240.797 87.9267 241.184 87.54C241.571 87.1533 241.764 86.6893 241.764 86.148C241.764 85.6067 241.571 85.1427 241.184 84.756C240.797 84.3693 240.333 84.176 239.792 84.176C239.251 84.176 238.787 84.3693 238.4 84.756C238.013 85.1427 237.82 85.6067 237.82 86.148C237.82 86.6893 238.013 87.1533 238.4 87.54C238.787 87.9267 239.251 88.12 239.792 88.12ZM241.3 75.012C241.3 75.7853 241.571 76.4427 242.112 76.984C242.653 77.5253 243.311 77.796 244.084 77.796C244.857 77.796 245.476 77.5253 245.94 76.984C246.481 76.4427 246.752 75.7853 246.752 75.012C246.752 74.2387 246.481 73.5813 245.94 73.04C245.476 72.4987 244.857 72.228 244.084 72.228C243.311 72.228 242.653 72.4987 242.112 73.04C241.571 73.5813 241.3 74.2387 241.3 75.012ZM238.98 120.716L244.896 121.296L239.56 114.8L238.98 120.716ZM245.36 128.604L251.392 129.184L246.056 122.572L245.36 128.604ZM254.06 94.732L251.972 94.036C252.513 92.412 252.165 90.556 250.928 88.468L252.784 87.308C254.331 89.9373 254.756 92.412 254.06 94.732ZM262.412 86.38C261.175 86.6893 259.937 86.6893 258.7 86.38C257.54 86.148 256.38 85.7613 255.22 85.22L256.148 83.132C257.153 83.6733 258.159 84.06 259.164 84.292C260.092 84.4467 260.981 84.4467 261.832 84.292L262.412 86.38ZM258.352 92.412C258.275 92.3347 257.927 91.948 257.308 91.252C256.689 90.4787 255.916 89.628 254.988 88.7C254.137 87.772 253.248 86.96 252.32 86.264C251.469 85.4907 250.735 85.0267 250.116 84.872L250.58 82.668C251.353 82.9 252.243 83.4413 253.248 84.292C254.331 85.0653 255.375 85.9933 256.38 87.076C257.385 88.0813 258.197 88.9707 258.816 89.744C259.512 90.5173 259.899 90.9427 259.976 91.02L258.352 92.412ZM319.835 112.248L335.495 122.804C333.871 127.753 331.125 131.775 327.259 134.868C323.392 137.961 318.868 139.508 313.687 139.508C309.201 139.508 305.373 138.387 302.203 136.144C299.109 133.824 296.712 130.808 295.011 127.096C293.387 123.384 292.459 119.324 292.227 114.916L291.067 88.468H290.951L280.163 74.896L290.255 72.808L289.559 56.568L310.903 58.076L310.207 68.516L315.311 67.356L320.763 78.492L309.163 82.436L307.423 109.232C307.345 110.392 307.384 111.939 307.539 113.872C307.693 115.728 308.196 117.429 309.047 118.976C309.897 120.445 311.212 121.219 312.991 121.296C316.007 121.296 318.288 118.28 319.835 112.248ZM299.767 64.456L298.723 67.24L299.767 70.024L300.811 72.924L301.739 70.024L302.783 67.24L301.739 64.456L300.811 61.556L299.767 64.456ZM289.327 79.768L294.895 84.988L294.663 74.2L289.327 79.768ZM300.927 116.076L302.087 113.292L301.159 110.508L300.347 107.608L299.187 110.508L298.027 113.292L298.955 116.076L299.767 118.86L300.927 116.076ZM302.435 103.432L304.407 101.46L302.551 99.604L300.811 97.748L298.723 99.604L296.751 101.46L298.607 103.432L300.463 105.288L302.435 103.432ZM298.723 90.208L299.767 92.992L300.811 95.776L301.739 92.992L302.783 90.208L301.739 87.424L300.811 84.524L299.767 87.424L298.723 90.208ZM302.667 80.348L304.523 78.492L302.667 76.636L300.811 74.664L298.839 76.636L296.983 78.492L298.839 80.348L300.811 82.32L302.667 80.348ZM307.191 70.372L306.959 81.16L312.527 75.824L307.191 70.372ZM313.339 134.172C314.035 134.172 314.615 133.94 315.079 133.476C315.62 132.935 315.891 132.316 315.891 131.62C315.891 130.924 315.62 130.344 315.079 129.88C314.615 129.339 314.035 129.068 313.339 129.068C312.643 129.068 312.024 129.339 311.483 129.88C311.019 130.344 310.787 130.924 310.787 131.62C310.787 132.316 311.019 132.935 311.483 133.476C312.024 133.94 312.643 134.172 313.339 134.172ZM322.271 126.748L329.231 125.82L321.227 119.788L322.271 126.748ZM321.691 103.084H319.487C319.487 103.084 319.448 102.968 319.371 102.736C319.371 102.427 319.332 102.04 319.255 101.576C319.177 101.112 318.984 100.687 318.675 100.3C318.443 99.836 318.095 99.4493 317.631 99.14C317.244 98.8307 316.703 98.676 316.007 98.676C315.388 98.676 314.885 98.8693 314.499 99.256C314.112 99.5653 313.841 99.9907 313.687 100.532C313.532 100.996 313.416 101.499 313.339 102.04C313.339 102.581 313.339 103.007 313.339 103.316C313.416 103.625 313.455 103.819 313.455 103.896L311.251 104.128C311.251 104.128 311.212 103.896 311.135 103.432C311.135 102.891 311.135 102.233 311.135 101.46C311.212 100.687 311.405 99.9133 311.715 99.14C312.024 98.3667 312.527 97.748 313.223 97.284C313.919 96.7427 314.847 96.472 316.007 96.472C317.167 96.472 318.095 96.704 318.791 97.168C319.564 97.5547 320.144 98.096 320.531 98.792C320.917 99.488 321.188 100.184 321.343 100.88C321.575 101.499 321.691 102.04 321.691 102.504C321.691 102.891 321.691 103.084 321.691 103.084ZM312.643 91.136C312.565 91.0587 312.488 90.788 312.411 90.324C312.411 89.7827 312.449 89.1253 312.527 88.352C312.604 87.5787 312.797 86.844 313.107 86.148C313.416 85.3747 313.919 84.7173 314.615 84.176C315.311 83.6347 316.239 83.364 317.399 83.364C318.559 83.364 319.487 83.596 320.183 84.06C320.956 84.524 321.536 85.104 321.923 85.8C322.309 86.4187 322.58 87.076 322.735 87.772C322.967 88.3907 323.083 88.932 323.083 89.396C323.083 89.86 323.083 90.092 323.083 90.092H320.763C320.763 90.092 320.763 89.9373 320.763 89.628C320.763 89.3187 320.685 88.9707 320.531 88.584C320.453 88.12 320.299 87.6947 320.067 87.308C319.835 86.844 319.487 86.4573 319.023 86.148C318.636 85.8387 318.095 85.684 317.399 85.684C316.703 85.684 316.161 85.8773 315.775 86.264C315.465 86.5733 315.233 86.9987 315.079 87.54C314.924 88.004 314.808 88.5067 314.731 89.048C314.731 89.512 314.731 89.9373 314.731 90.324C314.808 90.6333 314.847 90.788 314.847 90.788L312.643 91.136ZM365.227 87.076C372.419 87.076 378.528 89.628 383.555 94.732C388.659 99.836 391.211 106.023 391.211 113.292C391.211 120.561 388.659 126.748 383.555 131.852C378.528 136.956 372.419 139.508 365.227 139.508C358.112 139.508 352.003 136.956 346.899 131.852C341.872 126.748 339.359 120.561 339.359 113.292C339.359 106.023 341.872 99.836 346.899 94.732C352.003 89.628 358.112 87.076 365.227 87.076ZM356.759 125.588C357.532 125.665 358.228 125.588 358.847 125.356C359.466 125.047 359.968 124.737 360.355 124.428C360.819 124.119 361.167 123.848 361.399 123.616C361.708 123.307 361.863 123.152 361.863 123.152C359.93 122.224 358.267 121.721 356.875 121.644C356.875 119.556 356.604 117.545 356.063 115.612C355.444 113.447 354.439 111.784 353.047 110.624C351.887 109.619 350.495 109.271 348.871 109.58C347.479 109.812 346.396 110.469 345.623 111.552C344.85 112.712 344.54 113.988 344.695 115.38C345.004 116.772 345.7 117.855 346.783 118.628C347.866 119.401 349.142 119.711 350.611 119.556L350.263 117.816C349.335 117.971 348.523 117.777 347.827 117.236C347.054 116.772 346.59 116.037 346.435 115.032C346.28 114.104 346.474 113.292 347.015 112.596C347.479 111.823 348.175 111.359 349.103 111.204C350.263 111.049 351.23 111.281 352.003 111.9C353.086 112.828 353.898 114.22 354.439 116.076C354.903 117.855 355.135 119.749 355.135 121.76C354.362 121.837 353.704 121.992 353.163 122.224C352.622 122.456 352.196 122.688 351.887 122.92C351.655 123.152 351.539 123.268 351.539 123.268C351.539 123.268 351.771 123.461 352.235 123.848C352.699 124.157 353.318 124.505 354.091 124.892C354.942 125.279 355.831 125.511 356.759 125.588ZM361.979 131.504C362.598 130.576 362.984 129.803 363.139 129.184C363.294 128.488 363.332 127.947 363.255 127.56C363.178 127.096 363.1 126.748 363.023 126.516C362.946 126.361 362.907 126.245 362.907 126.168C361.283 126.709 360.046 127.521 359.195 128.604C358.344 129.687 357.764 130.808 357.455 131.968C357.223 133.051 357.107 134.017 357.107 134.868C357.107 135.641 357.107 136.028 357.107 136.028C357.107 136.028 357.61 135.68 358.615 134.984C359.62 134.288 360.742 133.128 361.979 131.504ZM357.223 109C357.223 112.557 357.919 115.612 359.311 118.164C360.78 120.639 362.752 121.876 365.227 121.876C367.779 121.876 369.751 120.639 371.143 118.164C372.612 115.612 373.347 112.557 373.347 109C373.347 105.443 372.612 102.427 371.143 99.952C369.751 97.4 367.779 96.124 365.227 96.124C362.752 96.124 360.78 97.4 359.311 99.952C357.919 102.427 357.223 105.443 357.223 109ZM373.463 136.028C373.463 136.028 373.463 135.641 373.463 134.868C373.463 134.017 373.308 133.051 372.999 131.968C372.69 130.808 372.11 129.687 371.259 128.604C370.486 127.521 369.287 126.709 367.663 126.168C367.663 126.245 367.624 126.361 367.547 126.516C367.47 126.748 367.354 127.096 367.199 127.56C367.122 127.947 367.16 128.488 367.315 129.184C367.547 129.803 367.972 130.576 368.591 131.504C369.828 133.128 370.95 134.288 371.955 134.984C372.96 135.68 373.463 136.028 373.463 136.028ZM383.787 118.628C384.87 117.855 385.527 116.772 385.759 115.38C385.991 113.988 385.72 112.712 384.947 111.552C384.174 110.469 383.091 109.812 381.699 109.58C379.998 109.271 378.606 109.619 377.523 110.624C376.131 111.784 375.126 113.447 374.507 115.612C373.966 117.545 373.695 119.556 373.695 121.644C372.303 121.721 370.64 122.224 368.707 123.152C368.707 123.152 368.823 123.307 369.055 123.616C369.287 123.848 369.635 124.119 370.099 124.428C370.563 124.737 371.104 125.047 371.723 125.356C372.342 125.588 373.038 125.665 373.811 125.588C374.739 125.511 375.59 125.279 376.363 124.892C377.214 124.505 377.871 124.157 378.335 123.848C378.799 123.461 379.031 123.268 379.031 123.268C379.031 123.268 378.876 123.152 378.567 122.92C378.335 122.688 377.948 122.456 377.407 122.224C376.866 121.992 376.208 121.837 375.435 121.76C375.435 119.749 375.667 117.855 376.131 116.076C376.672 114.22 377.484 112.828 378.567 111.9C379.34 111.281 380.268 111.049 381.351 111.204C382.356 111.359 383.091 111.823 383.555 112.596C384.096 113.292 384.29 114.104 384.135 115.032C383.98 116.037 383.516 116.772 382.743 117.236C382.047 117.777 381.235 117.971 380.307 117.816L379.959 119.44C381.428 119.672 382.704 119.401 383.787 118.628ZM363.023 107.492V110.624L360.587 113.06C359.582 111.823 359.079 110.508 359.079 109.116C359.079 107.647 359.582 106.293 360.587 105.056L363.023 107.492ZM366.851 106.796H363.719L361.283 104.36C362.52 103.432 363.835 102.968 365.227 102.968C366.696 102.968 368.05 103.432 369.287 104.36L366.851 106.796ZM367.547 110.624V107.492L369.983 105.056C370.911 106.293 371.375 107.647 371.375 109.116C371.375 110.508 370.911 111.823 369.983 113.06L367.547 110.624ZM363.719 111.32H366.851L369.287 113.756C368.05 114.761 366.696 115.264 365.227 115.264C363.835 115.264 362.52 114.761 361.283 113.756L363.719 111.32ZM420.178 108.188L422.846 138.116H401.502L403.126 89.28L418.206 87.076L418.786 92.528L444.538 87.076L449.99 98.096L420.178 108.188ZM440.246 91.252L438.39 94.732L441.638 96.588L443.494 93.108L440.246 91.252ZM435.258 94.5L430.618 95.892L431.314 98.328L435.954 96.936L435.258 94.5ZM424.818 96.124L422.962 99.488L426.21 101.344L428.182 97.864L424.818 96.124ZM412.058 116.308L414.61 113.64L411.826 110.856L409.158 113.64L412.058 116.308ZM413.682 124.08L413.45 119.208H411.014L411.13 124.08H413.682ZM412.638 132.432L415.306 129.764L412.406 126.98L409.854 129.764L412.638 132.432ZM413.45 105.172C414.301 103.857 415.268 102.775 416.35 101.924C415.19 100.996 414.146 99.9133 413.218 98.676C412.368 97.4387 411.633 96.1627 411.014 94.848C409.932 97.632 408.462 99.9907 406.606 101.924C408.617 103.78 410.28 106.1 411.594 108.884C412.136 107.569 412.754 106.332 413.45 105.172ZM482.905 88.468L504.133 87.076L501.465 144.032C501.311 148.44 500.383 152.5 498.681 156.212C496.98 159.924 494.544 162.901 491.373 165.144C488.28 167.464 484.491 168.624 480.005 168.624C474.824 168.624 470.3 167.077 466.433 163.984C462.567 160.891 459.821 156.869 458.197 151.92L473.857 141.364C475.404 147.396 477.724 150.412 480.817 150.412C482.596 150.335 483.872 149.523 484.645 147.976C485.496 146.507 485.999 144.805 486.153 142.872C486.385 141.016 486.424 139.508 486.269 138.348L486.153 136.492L471.189 134.984C466.395 134.443 462.876 132.896 460.633 130.344C458.391 127.715 457.192 124.428 457.037 120.484L454.949 88.816L475.713 87.076L472.233 125.936L485.689 128.952L482.905 88.468ZM467.245 105.52C468.096 104.283 469.101 103.2 470.261 102.272C469.101 101.421 468.096 100.339 467.245 99.024C466.472 97.864 465.815 96.6267 465.273 95.312C464.036 98.096 462.451 100.416 460.517 102.272C462.451 104.128 464.036 106.487 465.273 109.348C465.815 107.956 466.472 106.68 467.245 105.52ZM469.797 158.532L475.133 153.428L468.521 151.804L469.797 158.532ZM491.837 95.428L489.865 97.4L491.837 99.372L493.809 101.344L495.781 99.372L497.753 97.4L495.781 95.428L493.809 93.456L491.837 95.428ZM493.925 101.692C492.688 104.553 491.103 106.912 489.169 108.768C491.103 110.624 492.649 112.944 493.809 115.728C494.351 114.413 495.047 113.176 495.897 112.016C496.748 110.701 497.753 109.619 498.913 108.768C497.753 107.84 496.748 106.757 495.897 105.52C495.047 104.36 494.389 103.084 493.925 101.692ZM496.709 118.86L493.925 116.192L491.257 118.86L493.925 121.528L496.709 118.86ZM493.925 143.104L496.593 140.32L493.925 137.652L491.257 140.32L493.925 143.104ZM491.489 133.36H496.825L496.709 131.504H491.373L491.489 133.36ZM488.937 128.372H499.029L498.913 126.516H488.937V128.372ZM465.273 142.06L463.301 144.032L461.329 142.06L459.357 140.088L461.329 138.116L463.301 136.144L465.273 138.116L467.245 140.088L465.273 142.06Z" fill="#32CC9A"/>
<path d="M103.905 47.7656C103.523 54.7403 103.185 61.7298 102.729 68.6897C102.626 70.233 102.773 72.5035 100.643 72.548C98.5413 72.5777 98.4826 70.3517 98.4091 68.7787C97.9536 58.9548 97.5275 49.116 97.2336 39.2921C97.1895 37.7191 97.6597 36.0273 98.2915 34.573C98.6148 33.8013 99.805 33 100.613 33C101.421 33 102.685 33.7568 102.964 34.484C103.596 36.1312 103.905 37.9565 104.022 39.7373C104.184 42.4084 104.066 45.0796 104.066 47.7656H103.905Z" fill="#FED707"/>
<path d="M122.801 66.5082C122.595 66.8199 122.242 67.9328 121.567 68.2148C119.304 69.1349 116.938 69.773 114.602 70.4556C113.294 70.8414 111.971 71.2421 110.634 71.3608C109.944 71.4202 108.665 70.9008 108.607 70.515C108.504 69.7878 108.871 68.5561 109.444 68.2296C112.324 66.5676 115.278 65.0094 118.305 63.6441C120.832 62.5015 122.713 63.5848 122.786 66.5379L122.801 66.5082Z" fill="#FED707"/>
<path d="M120.964 41.7555C120.376 42.735 120.097 43.4918 119.583 43.9667C116.982 46.4152 114.367 48.8786 111.604 51.1491C111.09 51.5795 109.812 51.4756 109.15 51.1195C108.827 50.9562 108.754 49.4129 109.121 48.8935C111.119 46.0146 113.191 43.1802 115.483 40.5387C116.1 39.8115 117.599 39.4109 118.569 39.5889C119.436 39.7522 120.097 40.9245 120.964 41.7555Z" fill="#FED707"/>
<path d="M122.066 55.126C121.802 55.4673 121.39 56.4467 120.67 56.8029C117.305 58.4501 113.882 59.9786 110.429 61.4032C109.988 61.5813 108.651 60.8987 108.651 60.6612C108.68 59.6373 108.754 58.1682 109.4 57.6933C112.133 55.6899 115.042 53.8943 117.967 52.1877C119.98 51.0154 122.096 52.3213 122.066 55.1408V55.126Z" fill="#FED707"/>
<path d="M93.2957 49.6799C93.281 51.4607 91.694 52.3214 90.5185 51.342C87.6532 48.9379 84.9055 46.3855 82.1871 43.8033C80.9822 42.6607 81.1733 41.3399 82.3194 40.1824C83.583 38.9062 85.023 38.8765 86.1251 40.1824C88.0941 42.5271 89.8573 45.0647 91.7087 47.5133C92.3112 48.3146 92.8989 49.1308 93.3104 49.6799H93.2957Z" fill="#FED707"/>
<path d="M81.4524 62.7834C83.1863 63.57 84.5088 64.119 85.8018 64.7571C88.0206 65.8404 90.2687 66.8792 92.3846 68.1555C92.9724 68.5116 93.3985 69.6543 93.3397 70.3963C93.3104 70.7969 92.0026 71.5092 91.4295 71.3757C87.8736 70.5298 84.3618 69.5059 80.8647 68.4968C79.219 68.0219 78.7488 66.627 79.2778 65.232C79.6304 64.2823 80.7031 63.6145 81.4671 62.7834H81.4524Z" fill="#FED707"/>
<path d="M93.9862 59.8897C92.8989 60.4685 91.7969 61.5072 91.1797 61.2698C87.9177 60.0381 84.7585 58.5245 81.5993 57.0405C79.983 56.2836 79.2043 54.9926 80.13 53.2563C81.0851 51.4607 82.5691 51.2084 84.2149 52.3363C87.0361 54.2654 89.8426 56.2094 92.6197 58.198C93.0018 58.4651 93.2369 58.9548 93.9715 59.8897H93.9862Z" fill="#FED707"/>
</svg>
