<svg width="123" height="275" viewBox="0 0 123 275" fill="none" xmlns="http://www.w3.org/2000/svg">
<g opacity="0.1">
<path d="M17.6046 238.032C25.7595 242.103 31.8138 247.162 38.1153 247.778C60.2323 249.876 82.5964 249.876 104.713 252.097C111.015 252.714 116.946 258.142 123 261.473C117.687 265.792 112.621 273.565 107.061 274.058C33.6672 279.857 -32.1895 258.636 -91.0033 215.453C-96.687 211.258 -98.4168 201.512 -102 194.356L-95.9456 189.667C-73.9522 202.252 -52.5766 216.317 -29.7183 226.928C-14.2735 234.083 1.41844 248.519 17.481 238.032H17.6046Z" fill="#0E0327"/>
<path d="M-58.2571 174.615C-57.8864 167.089 -57.3922 156.602 -56.8979 145.991C-46.3955 150.68 -35.0281 154.134 -25.5141 160.303C10.8121 183.992 51.0922 190.901 93.4728 191.518C101.01 191.518 114.354 196.083 114.848 199.784C117.196 216.564 102.74 213.479 92.6078 214.096C49.6095 216.811 10.6886 203.239 -26.9968 184.239C-35.1516 180.167 -44.5421 178.687 -58.2571 174.492V174.615Z" fill="#0E0327"/>
<path d="M82.1018 157.341C57.2665 149.198 32.4313 141.178 7.84315 132.665C-1.54729 129.457 -11.0613 126.126 -19.4633 120.944C-23.9114 118.106 -26.0119 111.444 -29.1008 106.509C-22.9229 103.424 -15.7565 96.6387 -10.6906 97.9958C-1.42373 100.463 5.98978 109.84 15.1331 112.431C40.2155 119.464 66.0392 124.152 91.3687 130.568C99.0293 132.542 105.825 137.354 113.115 140.808C106.072 145.003 99.1529 149.445 91.7394 153.146C89.5153 154.256 86.0557 153.269 83.2138 153.269L81.9782 157.094L82.1018 157.341Z" fill="#0E0327"/>
<path d="M79.5122 95.0347C59.8664 86.028 39.7264 77.7617 20.822 67.6446C16.8681 65.5472 16.7445 56.1705 14.7676 50.2483C20.5748 50.495 26.6292 49.508 31.9422 51.1119C51.4645 56.9107 70.7396 63.3264 89.8911 70.1122C95.5748 72.0863 100.517 76.0344 105.83 78.9955C100.641 82.8202 95.6984 87.0151 90.1383 90.2229C88.0378 91.4567 84.5781 90.4697 81.7363 90.4697L79.5122 95.158V95.0347Z" fill="#0E0327"/>
<path d="M88.2787 32.3596C74.9344 26.5608 64.5555 23.3529 56.1535 17.5542C52.5703 15.0866 52.941 6.94361 51.4583 1.39158C56.6477 0.898065 61.9607 -0.459097 67.0266 0.157795C75.4286 1.39158 84.0777 2.9955 91.9854 6.20334C96.0629 7.80726 102.241 14.7164 101.376 16.4437C98.7812 22.1192 93.3446 26.5608 88.2787 32.3596Z" fill="#0E0327"/>
</g>
</svg>
