<svg width="1512" height="959" viewBox="0 0 1512 959" fill="none" xmlns="http://www.w3.org/2000/svg">
<g opacity="0.1">
<g clip-path="url(#clip0_49_3494)">
<path d="M1261.05 199.884C1280.99 210.147 1301.08 220.337 1320.94 230.82C1373.36 258.457 1425.77 286.24 1478.11 314.023C1478.48 314.243 1478.99 314.317 1479.29 314.537C1502.67 333.89 1524.88 329.418 1548.42 313.51C1563.44 303.394 1581.11 297.309 1597.24 288.732C1648.48 261.462 1699.58 233.825 1750.74 206.335C1754.41 204.356 1758.22 202.523 1764.23 202.523C1762.11 205.529 1760.27 208.828 1757.71 211.54C1715.04 256.991 1666.22 294.817 1611.17 323.847C1581.48 339.461 1550.25 352.07 1519.39 365.338C1514.55 367.391 1507.29 366.878 1502.16 364.972C1412.21 331.177 1332.75 281.109 1266.18 211.393C1263.62 208.681 1261.42 205.602 1259 202.67L1261.05 199.884Z" fill="#0E0327"/>
<path d="M1709.25 109.863C1707.79 116.607 1708.23 121.006 1706.32 122.472C1681.25 142.705 1657.2 164.697 1630.08 181.851C1598.56 201.79 1564.25 217.404 1531.04 234.852C1517.92 241.742 1504.87 240.203 1491.6 234.632C1433.18 210.147 1379.88 177.819 1334.14 133.614C1329.67 129.289 1323.95 126.21 1319.18 122.105C1317.65 120.786 1317.28 118.073 1316.33 116.021C1318.53 115.361 1321.24 113.602 1322.85 114.261C1328.71 116.754 1334.21 120.053 1339.86 123.058C1365.88 136.767 1391.98 150.475 1418 164.183C1446.15 179.065 1474.16 194.313 1502.67 208.461C1507.58 210.88 1515.79 211.1 1520.56 208.681C1566.52 185.223 1612.12 160.885 1657.79 136.84C1673.99 128.336 1690.19 119.833 1709.18 109.863L1709.25 109.863Z" fill="#0E0327"/>
<path d="M1652.88 48.1385C1635.36 72.2565 1612.41 90.51 1587.2 105.391C1566.74 117.487 1544.82 127.31 1523.42 137.72C1514.84 141.898 1506.85 143.218 1497.25 136.767C1487.2 130.022 1474.08 128.116 1463.45 122.032C1447.03 112.649 1431.78 101.139 1415.58 91.243C1410.53 88.0908 1404.07 87.1378 1396.89 84.7187C1399.16 68.2979 1377.32 64.9258 1369.99 47.9185C1378.34 51.7305 1384.94 54.3695 1391.25 57.6684C1427.46 76.5816 1463.82 95.4215 1499.74 114.921C1508.76 119.759 1515.87 119.393 1524.66 114.701C1565.72 92.9291 1606.99 71.67 1648.19 50.1911C1649.65 49.458 1651.27 48.8715 1652.73 48.2118L1652.88 48.1385Z" fill="#0E0327"/>
<path d="M1511.69 -105C1543.65 -69.2262 1545.26 6.49997 1511.69 46.5256L1511.69 -105Z" fill="#0E0327"/>
</g>
</g>
<g opacity="0.1">
<path d="M17.6046 922.032C25.7595 926.103 31.8138 931.162 38.1153 931.778C60.2323 933.876 82.5964 933.876 104.713 936.097C111.015 936.714 116.946 942.142 123 945.473C117.687 949.792 112.621 957.565 107.061 958.058C33.6672 963.857 -32.1895 942.636 -91.0033 899.453C-96.687 895.258 -98.4168 885.512 -102 878.356L-95.9456 873.667C-73.9522 886.252 -52.5766 900.317 -29.7183 910.928C-14.2735 918.083 1.41844 932.519 17.481 922.032H17.6046Z" fill="#0E0327"/>
<path d="M-58.2571 858.615C-57.8864 851.089 -57.3922 840.602 -56.8979 829.991C-46.3955 834.68 -35.0281 838.134 -25.5141 844.303C10.8121 867.992 51.0922 874.901 93.4728 875.518C101.01 875.518 114.354 880.083 114.848 883.784C117.196 900.564 102.74 897.479 92.6078 898.096C49.6095 900.811 10.6886 887.239 -26.9968 868.239C-35.1516 864.167 -44.5421 862.687 -58.2571 858.492V858.615Z" fill="#0E0327"/>
<path d="M82.1018 841.341C57.2665 833.198 32.4313 825.178 7.84315 816.665C-1.54729 813.457 -11.0613 810.126 -19.4633 804.944C-23.9114 802.106 -26.0119 795.444 -29.1008 790.509C-22.9229 787.424 -15.7565 780.639 -10.6906 781.996C-1.42373 784.463 5.98978 793.84 15.1331 796.431C40.2155 803.464 66.0392 808.152 91.3687 814.568C99.0293 816.542 105.825 821.354 113.115 824.808C106.072 829.003 99.1529 833.445 91.7394 837.146C89.5153 838.256 86.0557 837.269 83.2138 837.269L81.9782 841.094L82.1018 841.341Z" fill="#0E0327"/>
<path d="M79.5122 779.035C59.8664 770.028 39.7264 761.762 20.822 751.645C16.8681 749.547 16.7445 740.17 14.7676 734.248C20.5748 734.495 26.6292 733.508 31.9422 735.112C51.4645 740.911 70.7396 747.326 89.8911 754.112C95.5748 756.086 100.517 760.034 105.83 762.995C100.641 766.82 95.6984 771.015 90.1383 774.223C88.0378 775.457 84.5781 774.47 81.7363 774.47L79.5122 779.158V779.035Z" fill="#0E0327"/>
<path d="M88.2787 716.36C74.9344 710.561 64.5555 707.353 56.1535 701.554C52.5703 699.087 52.941 690.944 51.4583 685.392C56.6477 684.898 61.9607 683.541 67.0266 684.158C75.4286 685.392 84.0777 686.995 91.9854 690.203C96.0629 691.807 102.241 698.716 101.376 700.444C98.7812 706.119 93.3446 710.561 88.2787 716.36Z" fill="#0E0327"/>
</g>
<defs>
<clipPath id="clip0_49_3494">
<rect width="505.232" height="471.658" fill="white" transform="translate(1764.23 366.658) rotate(-180)"/>
</clipPath>
</defs>
</svg>
