<svg width="253" height="367" viewBox="0 0 253 367" fill="none" xmlns="http://www.w3.org/2000/svg">
<g opacity="0.1">
<g clip-path="url(#clip0_14_1703)">
<path d="M2.05264 199.884C21.9922 210.147 42.0783 220.337 61.9445 230.82C114.359 258.457 166.774 286.24 219.115 314.023C219.481 314.243 219.995 314.317 220.288 314.537C243.673 333.89 265.885 329.418 289.416 313.51C304.444 303.394 322.111 297.309 338.239 288.732C389.481 261.462 440.576 233.825 491.744 206.335C495.409 204.356 499.221 202.523 505.232 202.523C503.107 205.529 501.274 208.828 498.708 211.54C456.043 256.991 407.221 294.817 352.167 323.847C322.478 339.461 291.249 352.07 260.387 365.338C255.548 367.391 248.291 366.878 243.16 364.972C153.212 331.177 73.7469 281.109 7.18411 211.393C4.61837 208.681 2.41919 205.602 5.24212e-05 202.67L2.05264 199.884Z" fill="#0E0327"/>
<path d="M450.252 109.863C448.786 116.607 449.226 121.006 447.32 122.472C422.249 142.705 398.204 164.697 371.08 181.851C339.558 201.79 305.251 217.404 272.042 234.852C258.92 241.742 245.872 240.203 232.603 234.632C174.177 210.147 120.883 177.819 75.1396 133.614C70.6679 129.289 64.9499 126.21 60.185 122.105C58.6455 120.786 58.279 118.073 57.326 116.021C59.5252 115.361 62.2376 113.602 63.8503 114.261C69.7149 116.754 75.2129 120.053 80.8576 123.058C106.882 136.767 132.979 150.475 159.003 164.183C187.153 179.065 215.156 194.313 243.673 208.461C248.584 210.88 256.795 211.1 261.56 208.681C307.523 185.223 353.12 160.885 398.79 136.84C414.991 128.336 431.192 119.833 450.179 109.863L450.252 109.863Z" fill="#0E0327"/>
<path d="M393.879 48.1385C376.359 72.2565 353.413 90.51 328.196 105.391C307.743 117.487 285.824 127.31 264.419 137.72C255.842 141.898 247.851 143.218 238.248 136.767C228.205 130.022 215.083 128.116 204.453 122.032C188.033 112.649 172.785 101.139 156.584 91.243C151.526 88.0908 145.075 87.1378 137.891 84.7187C140.163 68.2979 118.318 64.9258 110.987 47.9185C119.344 51.7305 125.942 54.3695 132.246 57.6683C168.46 76.5816 204.82 95.4215 240.74 114.921C249.757 119.759 256.868 119.393 265.665 114.701C306.717 92.9291 347.989 71.67 389.187 50.1911C390.653 49.458 392.266 48.8715 393.732 48.2118L393.879 48.1385Z" fill="#0E0327"/>
<path d="M252.69 -105C284.652 -69.2262 286.264 6.49997 252.69 46.5256L252.69 -105Z" fill="#0E0327"/>
</g>
</g>
<defs>
<clipPath id="clip0_14_1703">
<rect width="505.232" height="471.658" fill="white" transform="translate(505.232 366.658) rotate(-180)"/>
</clipPath>
</defs>
</svg>
