<svg width="59" height="72" viewBox="0 0 59 72" fill="none" xmlns="http://www.w3.org/2000/svg">
<path d="M28.2956 13.2763V0.153928L30.5108 0C30.7997 4.44468 31.0694 8.88937 31.3776 13.6419C41.2205 14.8348 49.2336 19.1448 54.5499 27.7456C58.0364 33.364 59.6737 39.5211 58.7298 46.0823C56.4376 62.1678 44.264 72.3848 28.2186 71.9808C13.4445 71.6152 1.55974 60.186 0.134342 44.9663C-1.31032 29.7851 9.22608 17.6248 28.2956 13.2763ZM27.66 17.2977C14.3113 17.4131 3.62079 27.8803 3.11998 42.4073C2.61916 57.069 14.8121 69.0561 29.9714 69.0176C44.4373 68.9599 56.7266 56.2031 55.9946 41.984C55.3012 28.5152 43.3779 16.5088 31.262 17.3747C31.0694 21.3768 30.8768 25.4367 30.6649 29.4773L28.4305 29.4388C28.1608 25.3789 27.8911 21.3383 27.6407 17.3169L27.66 17.2977Z" fill="#32CC9A"/>
<path d="M35.0571 44.1582C33.1887 45.3511 31.1469 47.6985 29.5096 47.4484C27.699 47.179 26.2736 44.5045 24.6748 42.8883C26.3121 41.3105 27.8338 38.6745 29.6444 38.4821C31.301 38.2897 33.285 40.6948 35.1149 41.9455L35.0764 44.1582H35.0571Z" fill="#32CC9A"/>
</svg>
