<svg width="56" height="72" viewBox="0 0 56 72" fill="none" xmlns="http://www.w3.org/2000/svg">
<g clip-path="url(#clip0_51_7301)">
<path d="M55.9824 0C55.9824 7.24401 56.0907 13.296 55.8741 19.3479C55.838 20.3383 54.6465 21.512 53.6897 22.1538C52.9134 22.6673 51.6317 22.7407 50.6568 22.5573C39.8432 20.5583 31.8457 24.9781 24.7149 33.0107C18.9018 39.5578 12.0417 45.133 5.66908 51.1666C5.47049 51.35 5.41634 51.6984 5.07333 52.5053C12.6916 57.6037 20.3641 62.757 27.9463 67.8553C37.1713 58.649 46.1436 49.6628 55.5492 40.2731V68.2038C52.0108 65.5446 53.5633 61.8584 53.3106 58.6123C53.0218 55.0362 53.2384 51.4233 53.2384 47.5537C45.0424 55.8614 37.2435 63.7657 29.1198 72C19.2809 65.4529 9.94761 59.2359 -0.0175781 52.6154C10.4892 42.7122 20.7071 33.0841 31.25 23.1442C23.397 23.1442 16.2661 23.1442 9.11718 23.1442C7.90763 23.1442 6.68004 23.3642 5.52465 23.1442C4.83864 23.0158 4.2429 22.2822 3.61105 21.8237C4.22485 21.3469 4.82059 20.485 5.47049 20.43C8.91859 20.1732 12.3667 20.0998 15.8328 20.0265C21.3751 19.9165 26.9354 20.0082 32.4776 19.678C34.0662 19.5863 35.8896 18.6694 37.1172 17.569C43.1829 12.1039 49.0862 6.47376 55.9824 0V0ZM53.1662 6.52878C48.2377 11.187 44.1397 15.0382 39.3557 19.5497H53.1662V6.52878Z" fill="#32CC9A"/>
<path d="M28.8124 3.48438C30.5816 5.8318 32.423 7.22559 32.2605 8.34428C32.0619 9.82977 30.2927 11.0768 29.2096 12.4339C27.982 11.3519 25.8337 10.3249 25.7434 9.15121C25.6351 7.72075 27.2599 6.16191 28.8124 3.50271V3.48438Z" fill="#32CC9A"/>
<path d="M10.8864 14.1763C9.24354 11.4437 7.56463 9.90322 7.67294 8.50944C7.76321 7.29904 9.87539 6.25371 11.0849 5.13501C12.2042 6.45544 13.9914 7.64749 14.2261 9.11463C14.4067 10.2333 12.6194 11.6821 10.8683 14.1763H10.8864Z" fill="#32CC9A"/>
</g>
<defs>
<clipPath id="clip0_51_7301">
<rect width="56" height="72" fill="white"/>
</clipPath>
</defs>
</svg>
