<svg width="1512" height="94" viewBox="0 0 1512 94" fill="none" xmlns="http://www.w3.org/2000/svg">
<g clip-path="url(#clip0_51_3364)">
<path d="M1187.62 0.240505L1321.04 0.240517L1255.65 93.519L1187.62 0.240505Z" fill="white"/>
<path d="M1424.9 93.2788L1358.07 1.68314L1489.33 1.68315L1424.9 93.2788Z" fill="white"/>
<path d="M1027.51 0.481077L1140.26 0.481087C1141.22 5.28925 1143.38 9.1358 1142.18 10.3378C1123.67 33.6575 1104.92 56.7367 1086.17 79.8159L1021.74 12.5015L1027.75 0.240667L1027.51 0.481077Z" fill="white"/>
<path d="M340.178 0.721371L472.403 0.721382C452.689 28.3684 438.745 51.4476 420.715 70.6803C415.907 75.7288 394.27 73.8056 388.26 67.555C372.393 50.9668 360.613 30.0512 339.937 0.721371L340.178 0.721371Z" fill="white"/>
<path d="M509.666 0.24052L642.372 0.240532C621.457 29.5704 607.272 52.4092 589.482 72.3631C585.395 76.9309 564.96 75.248 559.671 69.4782C543.324 51.4476 530.582 29.8108 509.666 0.48093L509.666 0.24052Z" fill="white"/>
<path d="M236.321 93.9998C212.521 60.583 194.731 35.3401 170.93 1.92328L301.712 1.92329L236.321 93.9998Z" fill="white"/>
<path d="M-9.8825e-05 0.721393L133.667 0.721405C110.107 33.1766 91.3551 58.9003 67.5546 92.0767C44.4754 60.8235 25.7239 35.3402 0.240548 0.721393L-9.8825e-05 0.721393Z" fill="white"/>
<path d="M689.251 0.961903L813.783 0.961914L746.95 79.8159C725.553 56.9771 703.916 34.1383 682.52 11.2995L689.251 0.961903Z" fill="white"/>
<path d="M979.184 1.92335C961.875 27.6471 949.614 45.4373 938.074 63.7084C924.852 84.3835 910.427 85.5855 895.522 66.1124C881.338 47.601 868.356 28.1279 849.604 1.92334L979.184 1.92335Z" fill="white"/>
</g>
<defs>
<clipPath id="clip0_51_3364">
<rect width="1512" height="93.9997" fill="white" transform="translate(1512 94) rotate(-180)"/>
</clipPath>
</defs>
</svg>
