<svg width="72" height="72" viewBox="0 0 72 72" fill="none" xmlns="http://www.w3.org/2000/svg">
<path d="M16.2293 36.7572C11.2657 30.0639 4.27576 25.6328 0 19.033L1.5244 17.612C4.55461 20.4726 7.58482 23.3332 11.0798 26.6424C19.464 18.0047 27.7366 9.4791 36.9574 0C45.0999 9.17995 52.8335 17.8738 60.9388 27.0164C64.4338 23.6136 66.646 21.3513 69.0256 19.2386C69.6948 18.659 70.8102 18.5843 71.7212 18.2851C71.4609 19.2947 71.5352 20.6409 70.9032 21.2766C66.0883 26.0815 61.1247 30.7369 55.3617 36.2337C60.7343 41.3004 65.4934 45.6754 70.1038 50.2186C71.0333 51.1348 71.3679 52.6679 72 53.9018C70.6429 53.3036 69.007 53.0231 68.0217 52.0696C66.0511 50.1252 64.4338 47.8068 62.5933 45.5632C53.5213 54.7993 45.2858 63.1753 36.6228 71.9813C27.9969 62.9509 19.8172 54.388 10.9125 45.0771C8.14252 48.2181 6.20914 50.63 4.01549 52.7801C3.21611 53.5653 1.80325 53.7523 0.687839 54.2197C1.09682 53.0979 1.20837 51.677 1.97057 50.9104C6.59954 46.1615 11.3958 41.5435 16.2479 36.7572H16.2293ZM36.3811 57.3233C29.8745 50.3869 24.2974 44.4414 19.2223 39.0195C16.9543 40.9078 15.0953 42.4409 13.7196 43.5814C21.323 51.4713 28.7963 59.2303 35.8048 66.5032L59.0426 43.3944L54.1348 38.1407C48.316 44.4227 42.7576 50.4243 36.3811 57.3233ZM50.584 36.3459C45.9923 31.5783 40.9543 26.3246 36.6971 21.8935C31.622 26.792 26.4725 31.784 21.4531 36.645L35.9349 51.6209C41.0473 46.2737 46.048 41.0761 50.584 36.3459ZM36.4555 15.7798C42.5345 22.2114 48.1301 28.1568 53.4655 33.8219C55.9938 31.7653 58.0016 30.1387 59.9907 28.5121L57.8342 29.4843C50.7514 21.37 43.6871 13.2558 36.9388 5.53415C28.7033 13.6297 21.007 21.2018 13.6266 28.4373L19.1294 34.6071C24.8737 28.3625 30.4136 22.3609 36.4555 15.7798Z" fill="#32CC9A"/>
</svg>
