<svg width="74" height="72" viewBox="0 0 74 72" fill="none" xmlns="http://www.w3.org/2000/svg">
<g clip-path="url(#clip0_51_7286)">
<path d="M38.0493 34.0254H48.1888V0.207852L50.6363 0.145497C52.1171 11.1824 50.5129 22.4688 51.4795 33.9215H60.8786V14.7991L63.3467 14.7367C63.6346 21.2425 63.9225 27.7483 64.1693 33.485C67.5835 33.194 70.6479 31.9885 72.6429 32.9861C75.6663 34.4619 73.1366 39.4711 69.5785 38.8684C67.9742 38.5982 66.4523 37.8707 63.8608 37.0185V57.0139C59.1099 54.9769 61.0226 51.2979 60.7141 48.3672C60.3645 45.1247 60.6318 41.8199 60.6318 38.0993H51.2122C51.2122 43.94 51.315 49.7806 51.1916 55.5797C51.0682 61.0046 51.8086 66.5543 50.6568 71.8961L48.1477 71.8545C47.5924 60.7344 48.1888 49.552 47.8186 38.0369H38.3578V71.8753L36.116 71.9376C34.1621 66.5958 35.5401 60.8383 35.2933 55.3095C35.0465 49.6559 35.2316 43.9607 35.2316 37.9746H25.6885V71.6259L23.673 72.0208C23.3028 70.4827 22.6035 68.9446 22.5829 67.4065C22.4801 57.7413 22.5418 48.0762 22.5418 38.0162H13.1015V57.0554L10.9831 57.2425C8.61793 51.194 11.1065 44.3972 9.46118 37.5589C7.73355 37.9746 5.98536 38.806 4.31943 38.6813C2.85918 38.5566 1.15212 37.642 0.185471 36.5404C-0.308137 35.9584 0.185471 33.485 0.905315 33.0693C2.1599 32.3418 4.01093 32.2171 5.49175 32.4873C6.74634 32.7367 7.83639 33.9007 10.4895 35.6259V14.7367H12.5668V33.9423H22.2127C23.0765 22.8637 21.9659 11.3903 22.768 0.0623557L25.1949 0.124711V33.9631H35.6635V0H38.0081V34.0254H38.0493Z" fill="#32CC9A"/>
</g>
<defs>
<clipPath id="clip0_51_7286">
<rect width="74" height="72" fill="white"/>
</clipPath>
</defs>
</svg>
