<svg width="52" height="72" viewBox="0 0 52 72" fill="none" xmlns="http://www.w3.org/2000/svg">
<g clip-path="url(#clip0_51_7270)">
<path d="M25.8792 36.7416C15.7647 36.6603 7.72143 28.5926 7.70132 18.452C7.6611 8.02698 15.8452 -0.122045 26.2009 -0.000114306C36.3355 0.121816 44.1576 8.2302 44.0973 18.513C44.037 28.6536 35.873 36.8026 25.8792 36.7416ZM40.9604 18.2285C40.88 9.85594 34.1839 3.14976 25.8993 3.17008C17.675 3.17008 10.8583 9.99819 10.8181 18.2488C10.7779 26.723 17.7957 33.7543 26.1607 33.6324C34.3046 33.4901 41.0408 26.4995 40.9604 18.2488V18.2285Z" fill="#32CC9A"/>
<path d="M52 45.3786H0C3.80046 42.2084 47.737 42.1474 52 45.3786Z" fill="#32CC9A"/>
<path d="M51.9801 72H0.0605469C3.65993 68.8907 47.7172 68.8094 51.9801 72Z" fill="#32CC9A"/>
<path d="M0.865101 61.4734H50.8744L51.2363 62.7131C50.1505 63.1805 49.0646 64.034 47.9788 64.034C33.4405 64.1356 18.8821 64.1356 4.34383 64.0746C3.07701 64.0746 1.8303 63.5463 0.563477 63.2618L0.865101 61.4531V61.4734Z" fill="#32CC9A"/>
<path d="M46.5905 47.2683C48.5209 50.2556 50.8535 52.3081 50.5116 53.69C50.0692 55.458 47.4954 56.6976 45.8465 58.1811C44.4791 56.5757 42.0661 54.9906 42.046 53.3852C42.0259 51.7594 44.3786 50.093 46.5905 47.2683Z" fill="#32CC9A"/>
<path d="M5.50974 47.2888C7.601 50.1542 10.0542 52.1051 9.77269 53.5073C9.43085 55.2956 6.8771 56.6571 5.26844 58.2219C3.84075 56.6775 1.36743 55.1737 1.26689 53.5479C1.16635 51.9222 3.43859 50.1542 5.50974 47.2888Z" fill="#32CC9A"/>
<path d="M32.3539 53.629C29.4583 55.7425 27.548 58.1608 26.1404 57.8966C24.3307 57.5511 22.903 55.0516 21.3145 53.4868C22.8628 52.0236 24.3307 49.524 25.9997 49.3818C27.6083 49.2395 29.4181 51.5359 32.3539 53.629Z" fill="#32CC9A"/>
</g>
<defs>
<clipPath id="clip0_51_7270">
<rect width="52" height="72" fill="white"/>
</clipPath>
</defs>
</svg>
