<svg width="264" height="245" viewBox="0 0 264 245" fill="none" xmlns="http://www.w3.org/2000/svg">
<g clip-path="url(#clip0_51_6689)">
<path d="M223.06 78.4333H261.113V79.4734H222.819V117.913L221.518 117.967C221.135 113.949 221.409 109.866 221.365 105.815C221.31 101.457 221.354 97.0891 221.354 92.7317V79.8675H183.017V117.891L181.945 117.946C180.917 115.066 181.65 111.968 181.518 108.99C181.387 105.782 181.486 102.552 181.486 99.3335C181.486 96.1147 181.486 92.8959 181.486 89.6772C181.486 86.4803 181.486 83.2834 181.486 79.6267H143.279L143.246 78.2472C149.468 78.0829 155.712 78.2034 161.945 78.1815C168.353 78.1596 174.75 78.1815 181.343 78.1815V39.8079H143.312L143.225 38.5598C146.155 37.9466 149.217 38.3736 152.202 38.297C155.417 38.2204 158.632 38.2751 161.847 38.2751C165.061 38.2751 168.276 38.2751 171.491 38.2751H181.715V0L182.82 0.0218965V38.1437H221.474V0.0218965H222.59V38.5269H261.102V39.6436H223.027V78.4223L223.06 78.4333ZM221.168 40.0816H183.224V77.9625H221.168V40.0706V40.0816Z" fill="#32CC9A"/>
<path d="M39.5732 38.0997H78.2279V0.0326387H79.3542V38.472H117.889V39.5996H79.8572V78.2798H117.878V79.4184H79.6494V117.803C79.0808 117.891 78.9824 117.923 78.8949 117.923C78.7965 117.923 78.6434 117.923 78.5997 117.869C78.4247 117.628 78.1513 117.365 78.1513 117.102C78.1295 104.764 78.1295 92.4249 78.1295 79.9111H39.6935V117.956H38.5453V79.6921H0.0874788L0 78.3674C2.96334 77.9404 6.00323 78.236 8.99938 78.1922C12.2142 78.1375 15.4291 78.1813 18.6439 78.1813H38.0642V39.5996H0.0328045V38.5814H38.4579V0.0107422H39.5732V38.0997V38.0997ZM39.8903 77.9185H77.9326V40.0813H39.8903V77.9185V77.9185Z" fill="#32CC9A"/>
<path d="M206.133 184.982C186.056 205.072 167.052 224.089 148.047 243.117L147.664 242.745L205.247 185.113C186.133 165.986 167.128 146.969 148.123 127.952L147.773 128.303C166.724 147.276 185.685 166.249 204.886 185.474C224.973 165.373 244 146.323 263.038 127.284L263.475 127.722C244.481 146.718 225.487 165.713 205.925 185.277C225.63 205.006 244.7 224.078 263.759 243.15L264.011 242.898C244.973 223.848 225.947 204.798 206.133 184.971V184.982Z" fill="#32CC9A"/>
<path d="M117.08 244.31C98.086 225.293 79.0813 206.287 59.7922 186.974C40.0001 206.79 20.9079 225.895 1.81564 245L1.40012 244.584C20.4486 225.523 39.4971 206.451 59.0814 186.854C39.4096 167.169 20.4158 148.163 1.41105 129.145L1.08301 129.474C20.055 148.458 39.0269 167.453 58.3488 186.788C78.3486 166.764 97.3643 147.736 116.369 128.719L117.189 129.54C98.1954 148.557 79.1906 167.563 59.3111 187.456C78.5127 206.681 97.5612 225.731 116.61 244.792L117.08 244.321V244.31Z" fill="#32CC9A"/>
<path d="M201.583 150.265C202.655 145.875 203.727 141.473 204.809 137.05H209.708C210.791 141.43 211.884 145.875 213.207 151.195C214.508 145.929 215.591 141.539 216.684 137.072H221.507C220.02 143.4 218.62 149.597 217.034 155.75C216.903 156.275 215.657 156.724 214.88 156.834C213.677 157.02 212.42 156.878 210.933 156.878C209.785 152.17 208.669 147.572 207.543 142.984L206.996 142.864C206.187 146.269 205.389 149.685 204.569 153.089C203.606 157.14 203.235 157.447 199.167 156.823C198.489 156.724 197.527 155.925 197.363 155.279C195.832 149.29 194.443 143.258 192.967 137.072H197.833C198.904 141.397 199.987 145.787 201.07 150.166L201.573 150.276L201.583 150.265Z" fill="#32CC9A"/>
<path d="M171.699 68.0544H167.161V54.9931L166.68 54.7632C165.608 57.1937 164.679 59.7009 163.421 62.0329C162.886 63.0292 161.694 64.2554 160.764 64.2663C159.889 64.2882 158.676 63.0401 158.14 62.0548C156.915 59.7994 156.008 57.358 154.498 55.0041V68.0435H149.928V48.6322C155.603 47.5045 155.833 47.614 158.03 52.6831C158.84 54.5662 159.649 56.4383 160.699 58.8798C161.77 56.493 162.645 54.6099 163.487 52.7049C164.989 49.2818 167.719 47.9206 171.677 48.6212V68.0544H171.699Z" fill="#32CC9A"/>
<path d="M209.085 111.103C210.277 112.493 211.338 113.741 212.617 115.23C209.873 115.843 207.806 115.832 206.111 113.489C205.488 112.625 204.165 111.979 203.06 111.792C197.112 110.796 194.247 107.884 193.973 102.213C193.711 96.8591 196.302 92.852 200.818 91.6587C206.231 90.2354 211.469 92.1842 213.47 96.3883C215.766 101.206 214.323 107.15 210.091 110.314C209.851 110.501 209.61 110.687 209.096 111.092L209.085 111.103ZM199.244 100.932C199.222 104.895 200.359 107.49 202.634 107.687C204.34 107.84 206.581 107.282 207.817 106.187C209.883 104.359 209.927 98.9283 207.893 97.0014C206.69 95.8628 204.383 95.0855 202.787 95.3701C199.703 95.9175 199.386 98.8188 199.244 100.932Z" fill="#32CC9A"/>
<path d="M51.9619 29.3741C51.9619 23.4182 51.9619 17.8346 51.9619 12.251V9.44824C56.0625 9.67816 60.1084 9.48109 63.9684 10.2256C68.0361 11.0029 68.5938 15.1961 65.4336 19.0061C67.9049 20.3855 68.9328 22.5205 68.2876 25.2466C67.6097 28.1041 65.379 29.1551 62.7218 29.3303C60.0428 29.5054 57.3528 29.4835 54.6738 29.5164C53.8755 29.5164 53.0663 29.4288 51.9619 29.3631V29.3741ZM57.32 26.8122C59.5288 25.9473 61.2893 25.4436 62.8093 24.5349C63.1592 24.3269 62.9405 22.0497 62.4922 21.8526C60.9504 21.1738 59.1789 21.0096 57.32 20.6045V26.8122V26.8122ZM57.3528 17.9112C59.1789 17.2981 60.6004 16.9697 61.8361 16.28C62.1641 16.1048 62.1423 14.2983 61.8361 14.156C60.5239 13.51 59.0368 13.1925 57.3528 12.678V17.9112Z" fill="#32CC9A"/>
<path d="M10.6064 68.3171V47.9534C14.9366 48.3585 19.2778 48.3037 23.3783 49.2891C27.5664 50.2963 29.6221 54.599 29.1629 59.449C28.7583 63.7955 25.9262 67.1785 21.6616 67.7478C18.1187 68.2186 14.4993 68.1419 10.6064 68.3171ZM15.9755 64.2882C18.8732 64.6495 21.8365 64.5619 22.8535 61.8467C23.6627 59.679 23.6627 56.701 22.8207 54.5442C21.7709 51.8509 18.8076 51.7743 15.9755 52.2013V64.2882V64.2882Z" fill="#32CC9A"/>
<path d="M245.378 48.5665C251.742 48.5884 255.602 52.5079 255.57 58.9126C255.537 65.3064 251.644 69.1492 245.247 69.1164C238.883 69.0945 235.023 65.175 235.056 58.7812C235.089 52.3984 238.981 48.5446 245.378 48.5665V48.5665ZM240.305 58.836C240.414 61.4088 240.797 63.8941 243.509 65.0108C245.63 65.8866 247.576 65.4049 249.02 63.5328C250.758 61.2665 250.758 56.4164 249.02 54.1501C247.576 52.267 245.63 51.7853 243.509 52.6611C240.797 53.7888 240.403 56.2741 240.294 58.836H240.305Z" fill="#32CC9A"/>
<path d="M248.997 101.786C250.79 104.917 252.496 107.906 254.268 110.993C249.216 112.121 249.15 112.077 247.062 108.015C245.979 105.913 245.159 103.417 241.616 104.249V111.344H236.531V91.593C239.407 91.593 242.272 91.5054 245.137 91.6149C247.783 91.7134 250.517 92.0856 251.501 95.0745C252.496 98.0853 251.556 100.56 248.997 101.797V101.786ZM241.692 100.899C243.551 100.165 245.049 99.848 246.154 99.0049C246.58 98.6765 246.449 96.6073 245.968 96.3117C244.809 95.6 243.289 95.4577 241.692 95.0198V100.888V100.899Z" fill="#32CC9A"/>
<path d="M51.5469 87.8926H56.4894V95.425H64.0673V88.024H69.2176V107.534H64.1985V99.6072H56.6644V107.621H51.5578V87.8926H51.5469Z" fill="#32CC9A"/>
<path d="M27.6541 96.1039C27.6541 98.8847 27.7525 101.567 27.5884 104.227C27.5447 104.928 26.6918 106.1 26.1122 106.154C22.46 106.505 18.6765 107.271 15.1555 106.625C10.6394 105.793 8.34311 101.348 8.69303 96.2243C9.01014 91.6041 11.886 88.046 16.4021 87.3124C18.7093 86.9292 21.1697 87.0059 23.5097 87.3124C27.0854 87.7832 27.2057 88.1554 26.8011 92.1297C22.7771 90.9253 18.5891 88.9437 15.1118 93.0712C13.4606 95.0309 13.6028 99.2241 15.079 101.337C16.588 103.505 19.0374 104.107 22.8646 103.144L23.0286 99.7168L19.9997 99.0599V96.0929H27.665L27.6541 96.1039Z" fill="#32CC9A"/>
<path d="M195.657 9.1199H200.644V15.9845C205.007 13.2583 207.095 7.02878 213.328 9.27318C210.474 12.1964 207.544 15.1743 204.46 18.3274C208.068 21.787 211.415 24.9839 215.373 28.772C211.841 28.772 209.151 29.8449 206.92 27.2174C205.204 25.1919 203.235 23.3855 200.851 20.944V28.7063H195.646V9.1199H195.657Z" fill="#32CC9A"/>
<path d="M52.028 213.097H57.1346C57.1346 216.425 57.1346 219.698 57.1346 222.972C57.1346 224.22 56.8175 225.665 57.3424 226.651C57.9656 227.811 59.3434 229.289 60.4041 229.3C61.432 229.3 63.2144 227.734 63.3675 226.662C63.8267 223.618 63.6299 220.465 63.6736 217.356C63.6955 216.031 63.6736 214.706 63.6736 213.206H68.6053C68.6053 218.067 68.9989 223.027 68.485 227.888C68.0585 231.807 64.5812 233.526 59.6168 233.241C55.046 232.979 52.3779 231.019 52.0936 226.968C51.7765 222.457 52.0171 217.903 52.0171 213.097H52.028Z" fill="#32CC9A"/>
<path d="M8.04785 28.9471C10.377 22.619 12.5749 17.0464 14.4666 11.3642C15.1992 9.16362 16.4677 8.87897 18.4141 8.95561C20.2074 9.03224 21.6727 8.87897 22.4381 11.2109C24.3298 16.9916 26.5824 22.6519 28.7913 28.6406C26.2653 28.8157 23.7066 30.1405 22.8318 26.3743C22.7115 25.8597 21.6399 25.3123 20.9619 25.2466C19.3217 25.0824 17.6486 25.0824 16.0084 25.2466C15.3414 25.3123 14.2916 25.8597 14.1823 26.3633C13.3294 30.2281 10.5629 28.6187 8.04785 28.9581V28.9471ZM15.8553 21.2176H21.1587L18.436 13.7181L15.8553 21.2176Z" fill="#32CC9A"/>
<path d="M159.059 110.753H153.952V91.0786C157.572 91.0786 161.082 90.8268 164.526 91.1443C168.211 91.4837 170.19 93.9033 170.256 97.3082C170.322 100.877 168.321 103.264 164.537 103.844C162.831 104.107 161.082 104.063 159.059 104.173V110.742V110.753ZM159.19 101.009C161.388 100.155 163.126 99.7387 164.504 98.7862C164.953 98.4796 164.8 96.1258 164.297 95.8521C162.842 95.0528 161.071 94.8339 159.179 94.3302V101.009H159.19Z" fill="#32CC9A"/>
<path d="M239.976 173.88C245.969 171.515 246.614 177 249.227 179.409C250.9 177.384 252.311 175.172 254.235 173.574C255.066 172.884 256.936 173.453 258.894 173.453C256.882 176.42 255.077 178.807 253.634 181.402C253.131 182.299 253.098 183.964 253.601 184.839C255.176 187.609 257.111 190.171 258.905 192.81L258.598 193.74C256.75 193.171 254.574 193.029 253.142 191.923C251.589 190.73 250.714 188.638 249.424 186.766C246.483 189.383 245.815 195.328 239.604 192.919C241.409 190.27 243.366 187.664 244.963 184.872C245.466 183.985 245.466 182.332 244.963 181.434C243.519 178.84 241.715 176.453 239.965 173.88H239.976Z" fill="#32CC9A"/>
<path d="M51.1535 153.341C54.4558 154.042 56.8178 154.797 59.2234 154.94C60.2294 154.994 61.3229 153.757 62.3727 153.1C61.4869 152.268 60.7434 151.163 59.6936 150.681C58.119 149.958 56.271 149.827 54.6527 149.17C52.5313 148.305 51.1207 146.488 51.6456 144.276C52.083 142.448 53.2858 139.689 54.5871 139.404C57.9987 138.671 61.6728 138.911 65.2048 139.174C65.7297 139.218 66.0905 141.506 66.6701 143.192C64.0457 142.71 62.0556 142.032 60.0873 142.086C58.797 142.119 57.5285 143.214 56.2601 143.827C57.3098 144.605 58.283 145.568 59.4421 146.104C60.5465 146.619 61.8587 146.641 63.0616 146.969C65.9046 147.758 67.4902 149.542 67.3808 152.608C67.2715 155.684 65.839 158.049 62.7445 158.312C59.6171 158.575 56.3585 158.301 53.2858 157.633C52.4001 157.436 51.9736 155.104 51.1426 153.33L51.1535 153.341Z" fill="#32CC9A"/>
<path d="M8.40937 175.095C11.6461 174.555 13.7456 175.628 14.7078 178.314C15.9544 181.785 17.201 185.244 18.6772 189.361C20.1425 185.299 21.3562 181.927 22.57 178.566C23.5833 175.749 25.7156 174.573 28.9669 175.041C26.7143 181.161 24.5601 187.27 22.1217 193.258C21.8046 194.036 19.9894 194.55 18.8631 194.55C17.6274 194.55 15.6264 194.123 15.2874 193.335C12.8052 187.346 10.662 181.226 8.39844 175.106L8.40937 175.095Z" fill="#32CC9A"/>
<path d="M156.62 177.219V173.409H173.886C173.066 175.391 172.727 177.066 171.786 178.292C168.987 181.982 165.947 185.496 162.645 189.525H173.416V193.182H155.811C156.39 191.54 156.587 189.919 157.44 188.803C160.305 185.015 163.41 181.413 166.844 177.219H156.62V177.219Z" fill="#32CC9A"/>
<path d="M108.659 24.6774C109.731 27.8852 108.244 29.0567 105.401 29.626C97.0467 31.3011 90.8466 25.9036 91.962 17.78C92.9133 10.8388 102 6.55803 107.872 10.4556C108.758 11.0359 108.845 12.8314 109.556 14.7473C105.051 13.1817 101.202 11.4519 98.1729 15.5356C96.5765 17.6924 96.6202 21.6995 98.2823 23.7687C101.355 27.5896 105.073 26.0569 108.659 24.6774V24.6774Z" fill="#32CC9A"/>
<path d="M215.941 212.144C212.628 218.144 206.603 223.147 209.194 231.413H203.279C205.662 223.443 199.976 218.232 196.39 212.221L196.816 211.312C198.675 211.86 200.917 211.947 202.305 213.075C203.902 214.367 204.744 216.578 206.056 218.593C208.965 215.757 209.49 209.681 215.941 212.144Z" fill="#32CC9A"/>
<path d="M107.096 52.683H98.4685V56.6134H106.298L106.473 60.3029H98.3919V68.6783H93.2744V49.0591H106.921L107.096 52.683V52.683Z" fill="#32CC9A"/>
<path d="M104.286 194.496H98.917V178.445H92.4326V174.909H110.552L110.705 178.259C108.551 178.369 106.528 178.478 104.275 178.588V194.496H104.286Z" fill="#32CC9A"/>
<path d="M164.952 8.6272C164.952 14.9772 165.095 21.1848 164.909 27.3816C164.777 31.947 161.88 33.9067 155.789 33.7753C155.734 32.7353 155.691 31.6623 155.625 30.4361C159.223 30.2062 159.791 27.9618 159.726 25.0167C159.605 19.6411 159.693 14.2546 159.693 8.6272H164.952V8.6272Z" fill="#32CC9A"/>
<path d="M241.879 9.20752V25.0277H250.703V28.7502H236.838V9.20752H241.879Z" fill="#32CC9A"/>
<path d="M97.8672 107.545V88.002H102.766V107.545H97.8672V107.545Z" fill="#32CC9A"/>
<path d="M176.325 62.7553C175.362 61.3977 173.635 60.0292 173.656 58.6826C173.678 57.5002 175.472 55.6609 176.784 55.3324C178.807 54.8288 180.578 56.482 180.36 58.5403C180.195 60.0183 178.665 61.343 177.746 62.7444L176.325 62.7663V62.7553Z" fill="#32CC9A"/>
<path d="M216.204 189.12C215.307 187.708 213.787 186.35 213.667 184.872C213.492 182.825 215.285 181.194 217.308 181.741C218.621 182.102 220.392 183.974 220.381 185.157C220.381 186.503 218.61 187.839 217.615 189.175L216.193 189.12H216.204Z" fill="#32CC9A"/>
<path d="M203.082 29.7136C204.077 31.0493 205.684 32.2865 205.914 33.7535C206.231 35.7899 204.525 37.5197 202.491 37.1365C201.157 36.8847 199.276 35.133 199.189 33.9396C199.09 32.6149 200.752 31.1588 201.649 29.7574L203.082 29.7136Z" fill="#32CC9A"/>
<path d="M177.516 29.7026C178.511 31.0274 180.119 32.2536 180.37 33.7097C180.72 35.768 179.014 37.4868 176.992 37.1256C175.657 36.8847 173.766 35.1549 173.667 33.9615C173.547 32.6477 175.198 31.1697 176.073 29.7683L177.516 29.7026Z" fill="#32CC9A"/>
<path d="M204.678 176.935C203.792 175.533 202.13 174.077 202.229 172.752C202.327 171.548 204.208 169.796 205.542 169.545C207.554 169.172 209.282 170.902 208.954 172.95C208.724 174.406 207.117 175.643 206.122 176.979L204.678 176.924V176.935Z" fill="#32CC9A"/>
<path d="M209.916 197.857C208.571 198.831 207.205 200.561 205.871 200.539C204.668 200.517 202.798 198.755 202.47 197.441C201.956 195.404 203.651 193.653 205.674 193.839C207.139 193.981 208.484 195.514 209.884 196.434L209.927 197.857H209.916Z" fill="#32CC9A"/>
<path d="M197.745 185.934C196.335 186.832 194.979 188.354 193.503 188.485C191.469 188.671 189.807 186.898 190.353 184.861C190.703 183.547 192.573 181.774 193.754 181.785C195.11 181.785 196.455 183.525 197.811 184.522L197.756 185.945L197.745 185.934Z" fill="#32CC9A"/>
<path d="M203.378 80.2944C204.274 81.6849 205.947 83.141 205.827 84.4329C205.718 85.6372 203.837 87.378 202.503 87.6188C200.491 87.9911 198.785 86.2612 199.113 84.2139C199.343 82.7688 200.928 81.5535 201.912 80.2288L203.388 80.2835L203.378 80.2944Z" fill="#32CC9A"/>
<path d="M177.571 80.2617C178.555 81.5864 180.141 82.8126 180.37 84.2468C180.687 86.2942 178.971 88.0021 176.959 87.6299C175.636 87.378 173.777 85.6373 173.667 84.422C173.547 83.1301 175.209 81.674 176.095 80.2945L177.582 80.2507L177.571 80.2617Z" fill="#32CC9A"/>
<path d="M223.541 57.5112C224.984 56.7448 226.548 55.223 227.816 55.442C229.03 55.65 230.649 57.5988 230.791 58.9235C230.999 60.9271 229.205 62.5693 227.16 62.0876C225.739 61.7482 224.624 60.084 223.377 59.0002L223.541 57.5112Z" fill="#32CC9A"/>
<path d="M228.068 29.7246C229.041 31.0822 230.627 32.3412 230.824 33.8083C231.108 35.8337 229.38 37.5526 227.357 37.1366C226.056 36.8629 224.241 35.0783 224.164 33.8849C224.077 32.5712 225.717 31.1369 226.614 29.7575H228.068V29.7246Z" fill="#32CC9A"/>
<path d="M223.432 83.5243C224.777 82.6156 226.165 80.9406 227.456 81.0172C228.68 81.0829 230.496 82.8237 230.802 84.1155C231.272 86.141 229.566 87.8598 227.554 87.6518C226.111 87.4986 224.809 85.9549 223.454 85.0243L223.432 83.5243V83.5243Z" fill="#32CC9A"/>
<path d="M221.169 40.0706V77.9515H183.225V40.0706H221.169ZM194.411 49.1686V68.6127H198.96V55.2339C201.158 59.0658 202.875 62.0656 204.591 65.0654C206.239 67.9485 208.747 69.0688 212.114 68.4265V49.1357H207.489V62.2736C205.411 58.6278 203.454 55.8141 202.153 52.7267C200.589 49.0481 198.096 48.2161 194.422 49.1795L194.411 49.1686ZM201.858 77.6997L203.29 77.6778C204.22 76.2874 205.761 74.9626 205.914 73.4956C206.133 71.4483 204.362 69.7841 202.339 70.2877C201.027 70.6162 199.222 72.4445 199.2 73.6379C199.179 74.9736 200.906 76.3421 201.869 77.6997H201.858Z" fill="#160D0B"/>
<path d="M39.8906 77.9187V40.0815H77.933V77.9187H39.8906ZM52.1595 49.0372V68.5689H66.1124V64.9998H57.3864V60.3687H65.3579L65.172 56.5806H57.4629V52.5735H65.7515V49.0482H52.1595V49.0372Z" fill="#160D0B"/>
<path d="M199.233 100.932C199.375 98.819 199.692 95.9287 202.776 95.3703C204.372 95.0857 206.679 95.863 207.882 97.0016C209.916 98.9285 209.872 104.359 207.806 106.187C206.57 107.282 204.328 107.84 202.623 107.687C200.348 107.49 199.211 104.895 199.233 100.932Z" fill="#160D0B"/>
<path d="M57.3203 26.8122V20.6045C59.1792 21.0096 60.9398 21.1847 62.4925 21.8526C62.9408 22.0497 63.1595 24.3269 62.8096 24.5349C61.2897 25.4436 59.5292 25.9472 57.3203 26.8122V26.8122Z" fill="#160D0B"/>
<path d="M57.3535 17.9112V12.678C59.0484 13.1925 60.5246 13.51 61.8368 14.156C62.143 14.3093 62.1648 16.1048 61.8368 16.28C60.6012 16.9587 59.1796 17.2872 57.3535 17.9112V17.9112Z" fill="#160D0B"/>
<path d="M15.9756 64.2772V52.1903C18.8186 51.7524 21.7711 51.84 22.8208 54.5332C23.6628 56.6791 23.6628 59.668 22.8536 61.8357C21.8367 64.5509 18.8733 64.6494 15.9756 64.2772Z" fill="#160D0B"/>
<path d="M240.304 58.8359C240.413 56.274 240.807 53.7888 243.519 52.6611C245.64 51.7853 247.586 52.267 249.03 54.1501C250.768 56.4164 250.768 61.2664 249.03 63.5327C247.586 65.4158 245.629 65.8976 243.519 65.0107C240.807 63.8831 240.413 61.3978 240.315 58.8359H240.304Z" fill="#160D0B"/>
<path d="M241.693 100.888V95.0198C243.29 95.4577 244.799 95.5891 245.969 96.3117C246.45 96.6073 246.581 98.6765 246.155 99.0049C245.05 99.848 243.552 100.165 241.693 100.899V100.888Z" fill="#160D0B"/>
<path d="M15.8555 21.2178L18.4361 13.7183L21.1589 21.2178H15.8555V21.2178Z" fill="#160D0B"/>
<path d="M159.189 101.019V94.3411C161.081 94.8556 162.853 95.0746 164.307 95.8629C164.81 96.1366 164.952 98.4905 164.515 98.797C163.137 99.7386 161.398 100.166 159.2 101.019H159.189Z" fill="#160D0B"/>
<path d="M194.4 49.1686C198.074 48.2051 200.567 49.0372 202.131 52.7158C203.443 55.8032 205.4 58.6169 207.467 62.2627V49.1248H212.092V68.4156C208.732 69.0652 206.224 67.9448 204.569 65.0545C202.863 62.0547 201.135 59.0548 198.938 55.223V68.6017H194.389V49.1576L194.4 49.1686Z" fill="#32CC9A"/>
<path d="M201.858 77.6998C200.895 76.3422 199.168 74.9737 199.19 73.638C199.212 72.4446 201.005 70.6162 202.328 70.2878C204.351 69.7842 206.122 71.4483 205.904 73.4956C205.751 74.9627 204.209 76.2874 203.279 77.6779L201.847 77.6998H201.858Z" fill="#32CC9A"/>
<path d="M52.1592 49.0263H65.7512V52.5517H57.4626V56.5587H65.1716L65.3575 60.3468H57.386V64.9779H66.112V68.5471H52.1592V49.0154V49.0263Z" fill="#32CC9A"/>
</g>
<defs>
<clipPath id="clip0_51_6689">
<rect width="264" height="245" fill="white"/>
</clipPath>
</defs>
</svg>
