<svg width="202" height="186" viewBox="0 0 202 186" fill="none" xmlns="http://www.w3.org/2000/svg">
<g clip-path="url(#clip0_51_3393)">
<path d="M200.348 98.8841C188.525 92.7989 176.616 86.7572 164.836 80.5416C133.759 64.1551 102.681 47.6816 71.6462 31.2082C71.4289 31.0778 71.1246 31.0343 70.9507 30.9039C57.0852 19.429 43.9152 22.0804 29.9627 31.5124C21.0523 37.5107 10.577 41.1183 1.01462 46.2038C-29.3678 62.373 -59.6633 78.7595 -90.0023 95.0591C-92.1756 96.2327 -94.4358 97.3193 -98 97.3193C-96.7395 95.5372 -95.6529 93.5813 -94.1316 91.9731C-68.8346 65.0244 -39.8865 42.5962 -7.24385 25.3838C10.3597 16.1256 28.8761 8.64954 47.1751 0.782264C50.0438 -0.434772 54.3469 -0.130513 57.3895 0.999592C110.722 21.0372 157.838 50.7242 197.305 92.06C198.827 93.6682 200.13 95.4938 201.565 97.2324L200.348 98.8841Z" fill="white"/>
<path d="M-65.4009 152.26C-64.5316 148.261 -64.7924 145.653 -63.6623 144.784C-48.797 132.787 -34.5403 119.748 -18.458 109.577C0.232162 97.754 20.5741 88.4959 40.264 78.1511C48.0443 74.0653 55.7812 74.9781 63.6485 78.2815C98.2905 92.799 129.89 111.967 157.013 138.177C159.664 140.742 163.054 142.567 165.88 145.001C166.792 145.784 167.01 147.392 167.575 148.609C166.271 149 164.662 150.043 163.706 149.652C160.229 148.174 156.969 146.218 153.622 144.436C138.192 136.308 122.718 128.18 107.288 120.052C90.5971 111.228 73.9933 102.188 57.0852 93.7987C54.173 92.3643 49.3048 92.2339 46.4796 93.6683C19.2266 107.577 -7.80897 122.008 -34.888 136.265C-44.4939 141.307 -54.0998 146.349 -65.3574 152.26H-65.4009Z" fill="white"/>
<path d="M-31.9756 188.858C-21.5873 174.558 -7.98258 163.735 6.96958 154.911C19.0965 147.739 32.0927 141.915 44.7846 135.743C49.8701 133.265 54.6079 132.483 60.3019 136.308C66.2566 140.307 74.037 141.437 80.3395 145.045C90.0758 150.608 99.1167 157.432 108.723 163.3C111.722 165.169 115.547 165.734 119.806 167.169C118.459 176.905 131.412 178.904 135.758 188.988C130.803 186.728 126.891 185.163 123.153 183.207C101.681 171.993 80.1222 160.823 58.824 149.261C53.4778 146.392 49.2616 146.609 44.0457 149.391C19.705 162.3 -4.76612 174.905 -29.1938 187.641C-30.0631 188.076 -31.0193 188.423 -31.8887 188.814L-31.9756 188.858Z" fill="white"/>
</g>
<defs>
<clipPath id="clip0_51_3393">
<rect width="299.565" height="279.658" fill="white" transform="translate(-98)"/>
</clipPath>
</defs>
</svg>
