<svg width="63" height="72" viewBox="0 0 63 72" fill="none" xmlns="http://www.w3.org/2000/svg">
<g clip-path="url(#clip0_51_7289)">
<path d="M32.2033 16.2512C21.7104 26.8294 12.3905 36.2559 2.45215 46.2796V14.8223L4.52087 14.737V36.8744L5.97111 37.045C13.9901 28.6635 22.009 20.3033 30.3905 11.5806C39.4545 21.1137 47.5588 29.6659 55.6631 38.1967C59.2886 29.7938 56.2389 21.8602 58.9474 14.7156L60.5256 14.8223V45.6398C50.8858 35.6374 41.7365 26.1256 32.2247 16.2512H32.2033Z" fill="#32CC9A"/>
<path d="M32.0545 24.3342C41.5663 33.9954 51.8246 44.403 61.8483 54.5973C55.4076 56.3674 40.8625 55.621 38.1327 52.5072H53.6588C45.8317 44.6802 38.1327 36.9598 30.8815 29.7086C24.1422 36.4693 16.3365 44.275 8.25355 52.3579C12.4123 52.3579 16.5924 52.23 20.7512 52.4432C21.8175 52.4859 22.8412 53.5522 23.8649 54.1707C22.8839 54.6612 21.9242 55.5783 20.9431 55.5996C14.0545 55.7276 7.16587 55.6636 1.32227 55.6636C11.3673 45.4266 21.7749 34.8271 32.0545 24.3556V24.3342Z" fill="#32CC9A"/>
<path d="M29.8795 71.6587C29.8795 65.3672 30.0715 59.0544 29.7942 52.7843C29.6662 49.9265 28.4506 47.154 28.0667 44.2962C27.8748 42.8886 27.9814 40.8198 28.8345 40.0307C29.7089 39.2203 31.9056 39.1137 33.1212 39.6469C34.0383 40.0521 34.8914 41.9288 34.8274 43.1232C34.4222 51.1634 33.8037 59.1824 33.1639 67.2227C33.0359 68.8435 32.5241 70.4217 32.2042 72.0213L29.8795 71.68V71.6587Z" fill="#32CC9A"/>
<path d="M26.0615 5.39567C28.6208 3.68951 30.1137 1.94069 31.3506 2.08998C32.6942 2.2606 34.8696 4.28667 34.8056 5.37434C34.7203 6.71795 32.8009 8.78667 31.4573 8.95728C30.2203 9.1279 28.6847 7.25112 26.0615 5.417V5.39567Z" fill="#32CC9A"/>
<path d="M8.74417 5.11848C6.24891 7.05924 4.79868 9.04265 3.51905 8.95735C2.19678 8.87204 0.12806 6.84597 9.77577e-05 5.50237C-0.106537 4.37204 1.94086 2.17536 3.26313 1.98341C4.56408 1.79147 6.14228 3.51896 8.74417 5.11848Z" fill="#32CC9A"/>
<path d="M59.6943 8.67806e-05C61.3792 2.62331 63.2133 4.20151 63 5.43848C62.7654 6.84606 60.718 7.95506 59.4597 9.19203C58.2441 7.89108 56.2393 6.69677 56.0687 5.26786C55.9194 4.03089 57.8389 2.538 59.7156 -0.0212402L59.6943 8.67806e-05Z" fill="#32CC9A"/>
</g>
<defs>
<clipPath id="clip0_51_7289">
<rect width="63" height="72" fill="white"/>
</clipPath>
</defs>
</svg>
