<svg width="357" height="365" viewBox="0 0 357 365" fill="none" xmlns="http://www.w3.org/2000/svg">
<rect opacity="0.5" x="178.793" width="117.984" height="117.984" rx="20" transform="rotate(45 178.793 0)" fill="#1E9796"/>
<rect opacity="0.5" x="179.145" y="198.146" width="117.984" height="117.984" rx="20" transform="rotate(45 179.145 198.146)" fill="#1E9796"/>
<rect opacity="0.5" x="273.167" y="102.429" width="117.984" height="117.984" rx="20" transform="rotate(45 273.167 102.429)" fill="#1E9796"/>
<rect opacity="0.5" x="83.4268" y="102.429" width="117.984" height="117.984" rx="20" transform="rotate(45 83.4268 102.429)" fill="#1E9796"/>
<circle cx="179" cy="43" r="19" fill="#FED707"/>
<ellipse cx="179.5" cy="241" rx="19.5" ry="19" fill="#FED707"/>
<ellipse cx="273.5" cy="145" rx="19.5" ry="19" fill="#FED707"/>
<circle cx="84" cy="145" r="19" fill="#FED707"/>
<ellipse cx="179" cy="121.5" rx="19" ry="19.5" fill="#DF229D"/>
<ellipse cx="179.5" cy="320" rx="19.5" ry="19" fill="#DF229D"/>
<ellipse cx="273.5" cy="224" rx="19.5" ry="19" fill="#DF229D"/>
<circle cx="84" cy="224" r="19" fill="#DF229D"/>
<circle cx="217" cy="83" r="19" fill="#32CC9A"/>
<ellipse cx="218" cy="281.5" rx="19" ry="19.5" fill="#32CC9A"/>
<circle cx="312" cy="186" r="19" fill="#32CC9A"/>
<circle cx="122" cy="186" r="19" fill="#32CC9A"/>
<circle cx="141" cy="83" r="19" fill="#FF7B3F"/>
<ellipse cx="141" cy="281.5" rx="19" ry="19.5" fill="#FF7B3F"/>
<circle cx="235" cy="186" r="19" fill="#FF7B3F"/>
<circle cx="46" cy="186" r="19" fill="#FF7B3F"/>
</svg>
