<svg width="51" height="72" viewBox="0 0 51 72" fill="none" xmlns="http://www.w3.org/2000/svg">
<g clip-path="url(#clip0_51_7279)">
<path d="M15.7627 44.725C11.4637 39.1193 10.9659 33.6643 14.6917 27.7873C15.2348 26.9435 14.2694 24.6379 13.3794 23.4927C10.5134 19.7857 7.36078 16.3047 3.83105 12.1758H45.9464L34.1203 26.5065C38.8568 32.4889 38.9473 38.622 34.1203 44.7099C37.9668 49.3361 41.6926 53.8267 45.8559 58.8296H4.02715C8.14516 53.887 11.8559 49.4114 15.7627 44.725ZM40.7876 14.6471H8.82396C12.052 18.4897 14.8124 21.7597 17.6483 25.1502C22.5959 21.9707 27.3626 22.257 32.2499 24.9845C35.0555 21.5939 37.7255 18.339 40.7876 14.6471ZM17.6181 46.1415C14.6917 49.7128 12.0369 52.9225 9.09547 56.524H40.8328L32.1594 46.1415C27.1665 49.0046 22.4903 48.8539 17.6181 46.1415ZM17.5276 42.5852L23.3049 35.5178C22.1132 34.1013 21.1629 32.956 20.1975 31.8258C19.2774 30.7559 18.3421 29.7011 17.3315 28.5559C13.5453 34.0561 13.5755 37.6877 17.5427 42.5852H17.5276ZM26.5329 35.6383C28.5693 38.0343 30.4398 40.2645 32.3856 42.555C36.398 37.4315 36.2472 32.7752 32.099 28.8572L26.5329 35.6383ZM24.934 33.7698C26.9251 31.2834 28.6296 29.1737 30.3342 27.064L29.8213 26.0243H19.8355L19.5338 27.1996L24.934 33.7547V33.7698ZM19.3226 44.1674C23.1691 46.4428 26.5933 46.5182 30.3342 44.2428C28.4788 41.9673 26.7894 39.8878 24.8736 37.537L19.3226 44.1674Z" fill="#32CC9A"/>
<path d="M6.12402 70.6588C8.77886 68.7601 41.6325 68.9409 43.5934 70.8698C40.4559 72.4972 8.447 72.3164 6.12402 70.6588Z" fill="#32CC9A"/>
<path d="M43.6689 1.59732C31.4657 1.59732 19.2776 1.59732 7.07437 1.53704C6.69726 1.53704 6.32015 0.602763 5.85254 0H43.6387L43.6689 1.59732Z" fill="#32CC9A"/>
<path d="M51.0001 35.7589C49.6576 36.6781 48.7978 37.7329 48.0436 37.6576C47.2441 37.5822 46.5653 36.4219 45.8262 35.7438C46.6106 34.9602 47.2893 33.7999 48.2095 33.5588C48.7676 33.4081 49.7028 34.689 51.0001 35.7739V35.7589Z" fill="#32CC9A"/>
<path d="M1.68967 38.6974C0.84495 37.2357 -0.0902763 36.3315 0.000229454 35.5479C0.10582 34.7644 1.22206 34.1013 1.90085 33.3931C2.67015 34.2219 3.81656 34.9753 4.04282 35.9247C4.17858 36.4822 2.83608 37.4014 1.67459 38.6974H1.68967Z" fill="#32CC9A"/>
</g>
<defs>
<clipPath id="clip0_51_7279">
<rect width="51" height="72" fill="white"/>
</clipPath>
</defs>
</svg>
