<svg width="327" height="221" viewBox="0 0 327 221" fill="none" xmlns="http://www.w3.org/2000/svg">
<g clip-path="url(#clip0_51_5417)">
<path d="M139.011 94.1824H136.836V79.6304L136.593 79.601C135.074 84.0904 133.533 88.5651 132.074 93.0767C131.764 94.035 131.3 94.3225 130.341 94.3078C129.479 94.293 129.11 93.9687 128.852 93.1725C127.496 89.0369 126.081 84.9234 124.68 80.8026C124.569 80.4782 124.437 80.1686 124.075 79.8737V94.1824H121.783V76.0625C122.778 76.0625 123.707 75.9298 124.569 76.1141C124.997 76.2026 125.461 76.8144 125.631 77.2862C127.061 81.3481 128.425 85.4247 129.811 89.5013C129.965 89.9658 130.15 90.4228 130.437 91.2263C130.732 90.4523 130.939 89.9731 131.101 89.4792C132.398 85.6459 133.799 81.8346 134.934 77.9497C135.406 76.3426 136.165 75.8118 137.699 76.0477C138.097 76.1067 138.495 76.0993 139.003 76.1215V94.1751L139.011 94.1824Z" fill="#32CC9A"/>
<path d="M239.548 115.701C240.705 111.558 241.862 107.407 243.005 103.264C243.263 102.336 243.337 101.495 244.767 101.51C246.109 101.525 246.322 102.188 246.595 103.191C247.73 107.393 248.917 111.58 250.222 116.239C250.48 115.332 250.628 114.875 250.738 114.411C251.586 110.762 252.426 107.105 253.267 103.449C253.761 101.311 253.775 101.304 256.274 101.79C255.766 103.795 255.264 105.8 254.741 107.798C253.805 111.381 252.824 114.941 251.94 118.539C251.697 119.527 251.225 119.785 250.259 119.807C249.234 119.822 248.873 119.409 248.63 118.48C247.583 114.514 246.455 110.563 245.349 106.611C245.224 106.154 245.054 105.705 244.767 104.82C243.418 109.641 242.128 113.99 241.022 118.391C240.676 119.77 239.909 119.932 238.847 119.733C238.464 119.659 237.926 119.276 237.83 118.937C236.304 113.261 234.844 107.57 233.37 101.893C235.523 101.178 235.877 101.348 236.341 103.346C237.167 106.899 237.978 110.459 238.796 114.013C238.928 114.588 239.083 115.155 239.231 115.73L239.54 115.715L239.548 115.701Z" fill="#32CC9A"/>
<path d="M137.035 197.086C135.48 194.904 133.718 195.206 131.528 195.766C125.837 197.226 121.399 193.702 120.891 187.672C120.286 180.536 125.071 176.15 132.089 177.455C134.964 177.985 136.917 179.681 137.912 182.431C139.232 186.102 138.554 190.119 136.018 193.577C136.77 194.203 137.536 194.83 138.362 195.516C137.957 195.995 137.603 196.415 137.035 197.093V197.086ZM134.02 192.11C136.504 189.39 136.696 184.119 134.499 181.428C132.059 178.45 126.899 178.597 124.673 181.716C122.911 184.185 122.962 189.257 124.776 191.675C126.383 193.82 130.209 194.646 132.207 193.252L130.548 191.822L131.757 190.414C132.575 191.026 133.261 191.535 134.02 192.102V192.11Z" fill="#32CC9A"/>
<path d="M133.806 115.634V101.709H136.136V119.63C134.551 119.925 133.357 119.881 132.361 118.156C129.877 113.873 127.113 109.752 124.171 105.616V119.645H121.834V101.746C124.51 101.259 124.525 101.259 125.896 103.464C128.432 107.54 130.961 111.624 133.497 115.701L133.806 115.627V115.634Z" fill="#32CC9A"/>
<path d="M1.48193 42.6313V24.4819C4.55599 24.4819 7.57844 24.3713 10.5862 24.5261C12.4291 24.6219 13.874 25.6687 14.3679 27.5485C14.8987 29.5832 14.3237 31.3303 12.783 32.3255C13.6307 33.5271 14.6996 34.5739 15.1567 35.8492C15.5105 36.837 15.3115 38.1787 14.9577 39.2181C14.1541 41.5698 12.1195 42.447 9.8416 42.5944C7.62268 42.7419 5.38901 42.6313 3.16271 42.6313C2.66143 42.6313 2.16014 42.6313 1.48931 42.6313H1.48193ZM3.92201 33.8588V40.781C5.97876 40.781 7.95441 40.8989 9.90794 40.7515C11.9131 40.5967 13.0115 39.1665 12.9967 37.1172C12.9894 35.2668 11.9131 34.0358 9.87846 33.8957C7.92492 33.763 5.95664 33.8662 3.92201 33.8662V33.8588ZM3.92201 32.1265C6.15568 31.9864 8.22717 32.0011 10.2544 31.6841C11.7214 31.4556 12.1785 30.2024 12.1269 28.7944C12.0826 27.438 11.3528 26.4944 10.0554 26.3912C8.02075 26.2364 5.97138 26.3469 3.82618 26.3469C3.82618 27.9319 3.82618 29.4357 3.82618 30.947C3.82618 31.2418 3.87041 31.5293 3.91464 32.1117L3.92201 32.1265Z" fill="#32CC9A"/>
<path d="M17.0141 151.498C15.5839 151.86 14.6993 151.72 14.0285 150.157C13.1439 148.1 11.1092 147.614 9.023 147.717C6.70087 147.835 4.98323 149.014 4.08387 151.174C3.05181 153.658 3.05918 156.231 3.95117 158.752C4.95374 161.561 7.53389 162.822 10.7259 162.195C13.5714 161.635 15.0384 159.674 15.0089 156.283H9.40633V154.462H17.3163V164.038L15.8862 164.104L15.2964 162.269C13.5051 162.984 11.8243 164.045 10.0329 164.303C5.05695 165.018 1.49635 162.114 0.921348 157.013C0.737052 155.383 0.803398 153.629 1.20885 152.044C2.85277 145.52 9.3621 144.311 13.8442 146.64C15.7682 147.636 16.7413 149.346 17.0214 151.491L17.0141 151.498Z" fill="#32CC9A"/>
<path d="M129.98 145.269C124.628 145.24 121.414 142.365 120.965 137.485C120.854 136.283 120.876 135.052 121.038 133.858C121.54 130.194 124.053 127.393 127.341 126.7C131.403 125.837 135.17 127.112 137.072 129.995C140.92 135.804 137.573 144.267 131.064 145.196C130.563 145.269 130.054 145.269 129.973 145.277L129.98 145.269ZM136.04 135.988C135.996 135.332 135.974 134.986 135.944 134.632C135.679 131.078 133.445 128.742 130.15 128.572C126.7 128.395 124.061 130.555 123.537 134.13C123.368 135.317 123.353 136.57 123.523 137.757C123.98 141.053 126.036 142.962 129.125 143.139C132.671 143.345 134.661 141.959 135.612 138.531C135.87 137.617 135.937 136.644 136.047 135.988H136.04Z" fill="#32CC9A"/>
<path d="M124.599 220.897H122.254V202.563C125.926 202.733 129.634 202.6 133.238 203.145C136.571 203.647 137.654 208.365 135.221 210.783C134.904 211.1 134.529 211.365 134.005 211.807C136.01 212.478 136.047 214.129 136.165 215.781C136.283 217.454 136.467 219.127 136.644 221.007C136.91 220.83 136.836 220.919 136.77 220.919C133.754 220.919 133.902 221.509 133.777 218.206C133.732 217.144 133.666 216.083 133.555 215.029C133.408 213.672 132.545 212.869 131.255 212.81C129.095 212.699 126.928 212.78 124.606 212.78V220.904L124.599 220.897ZM124.613 210.871C126.906 210.871 129.073 210.974 131.226 210.842C132.988 210.731 133.813 209.684 133.917 207.952C134.027 206.131 133.312 204.841 131.698 204.701C129.361 204.502 127.002 204.649 124.606 204.649V210.871H124.613Z" fill="#32CC9A"/>
<path d="M1.70312 91.1378V73.2906C4.91725 73.2906 8.10188 73.0547 11.2275 73.3643C13.616 73.6002 15.1199 75.48 15.916 77.6842C17.0587 80.8615 16.9039 84.0461 15.4958 87.1349C14.449 89.4201 12.7093 90.9461 10.166 91.0935C7.40156 91.2631 4.62237 91.1304 1.70312 91.1304V91.1378ZM4.17269 89.3022C6.10411 89.3022 7.91759 89.4128 9.71631 89.2727C11.5077 89.1326 12.6356 87.9384 13.2917 86.3461C14.3974 83.6554 14.3974 80.9057 13.4833 78.1707C12.9157 76.4752 11.7731 75.1851 9.94484 74.9935C8.06502 74.8018 6.14097 74.9492 4.17269 74.9492V89.3022V89.3022Z" fill="#32CC9A"/>
<path d="M247.797 5.77963H245.607C245.313 4.05462 244.671 2.38122 242.666 2.10846C241.405 1.93891 240.034 2.01263 238.811 2.33699C237.661 2.63923 237.1 3.73026 237.137 4.96136C237.174 6.14822 237.911 6.78957 238.995 7.06233C240.705 7.49726 242.43 7.91009 244.148 8.33028C247.038 9.0306 248.364 10.4239 248.46 12.864C248.571 15.5031 247.332 17.1691 244.531 18.0906C242.504 18.7614 240.454 18.813 238.412 18.2233C235.729 17.4492 234.211 15.3261 234.196 12.3406H236.26C237.801 16.1297 240.16 17.346 243.691 16.1297C245.04 15.6652 245.991 14.8617 245.976 13.2841C245.969 11.7361 245.003 11.0357 243.661 10.6966C241.944 10.2691 240.211 9.90785 238.501 9.45817C235.869 8.76522 234.727 7.44566 234.734 5.212C234.734 2.74244 236.282 0.471913 238.685 0.140181C240.528 -0.117833 242.526 -0.0367426 244.325 0.405567C246.794 1.01743 247.885 2.95622 247.797 5.77226V5.77963Z" fill="#32CC9A"/>
<path d="M299.511 193.584C296.127 193.584 293.797 191.262 293.768 187.871C293.738 184.443 296.156 182.018 299.577 182.04C303.034 182.062 305.334 184.436 305.297 187.937C305.261 191.328 302.938 193.592 299.511 193.592V193.584Z" fill="#32CC9A"/>
<path d="M259.172 4.93904C262.607 4.95378 264.885 7.23167 264.885 10.6522C264.885 14.1317 262.548 16.4907 259.09 16.4833C255.699 16.4833 253.326 14.0432 253.348 10.5785C253.37 7.23167 255.751 4.92429 259.164 4.93904H259.172Z" fill="#32CC9A"/>
<path d="M276.731 168.358C273.281 168.358 270.952 165.984 270.981 162.505C271.011 159.173 273.429 156.799 276.783 156.814C280.174 156.828 282.511 159.165 282.518 162.549C282.518 166.065 280.233 168.358 276.739 168.358H276.731Z" fill="#32CC9A"/>
<path d="M296.215 4.93923C299.65 4.93923 301.958 7.22449 301.965 10.6229C301.98 14.1172 299.65 16.4761 296.193 16.4835C292.787 16.4835 290.421 14.0729 290.428 10.6082C290.428 7.25398 292.802 4.93185 296.215 4.93923V4.93923Z" fill="#32CC9A"/>
<path d="M67.3125 29.2589C70.733 29.2736 72.9741 31.5589 72.9519 35.0236C72.9298 38.5105 70.5856 40.84 67.1208 40.8105C63.8182 40.7884 61.4371 38.3483 61.4224 34.9868C61.415 31.5736 63.8035 29.2441 67.3125 29.2589Z" fill="#32CC9A"/>
<path d="M85.7639 29.2588C89.2286 29.2588 91.4844 31.4998 91.4918 34.9351C91.4918 38.4367 89.177 40.8031 85.7417 40.8031C82.3728 40.8031 79.9254 38.3188 79.9549 34.913C79.9843 31.5736 82.3654 29.2514 85.7639 29.2588Z" fill="#32CC9A"/>
<path d="M261.553 61.0755C261.553 57.714 263.912 55.3918 267.318 55.3918C270.856 55.3918 273.097 57.6476 273.09 61.1861C273.09 64.5919 270.65 66.9656 267.2 66.9361C263.919 66.9066 261.545 64.4444 261.553 61.0682V61.0755Z" fill="#32CC9A"/>
<path d="M141.981 4.93904C145.409 4.95378 147.672 7.23167 147.672 10.6743C147.672 14.1464 145.313 16.4981 141.856 16.4833C138.465 16.4686 136.099 13.999 136.15 10.549C136.202 7.16533 138.539 4.92429 141.981 4.93904V4.93904Z" fill="#32CC9A"/>
<path d="M277.682 16.4835C274.262 16.4835 271.896 14.1024 271.888 10.6303C271.888 7.2761 274.247 4.93185 277.646 4.93923C281.169 4.93923 283.447 7.23186 283.418 10.7482C283.396 14.1393 281.051 16.4761 277.682 16.4835Z" fill="#32CC9A"/>
<path d="M86.5676 186.596C83.2282 186.581 80.8839 184.207 80.8692 180.816C80.8545 177.455 83.3461 175.015 86.7667 175.051C90.1209 175.081 92.4356 177.469 92.4135 180.868C92.3914 184.392 90.1282 186.618 86.5676 186.603V186.596Z" fill="#32CC9A"/>
<path d="M291.932 61.1493C291.918 64.5993 289.544 66.9509 286.079 66.9362C282.777 66.9215 280.403 64.4814 280.403 61.1125C280.403 57.6551 282.747 55.3772 286.271 55.3919C289.691 55.4067 291.94 57.6993 291.925 61.1493H291.932Z" fill="#32CC9A"/>
<path d="M318.073 193.584C314.637 193.584 312.279 191.188 312.315 187.731C312.352 184.377 314.741 182.025 318.11 182.032C321.508 182.04 323.823 184.355 323.845 187.76C323.867 191.247 321.552 193.584 318.073 193.584Z" fill="#32CC9A"/>
<path d="M302.231 142.836C298.876 142.851 296.54 140.514 296.51 137.101C296.481 133.754 298.869 131.307 302.194 131.3C305.688 131.292 308.032 133.592 308.054 137.057C308.076 140.492 305.732 142.822 302.231 142.836Z" fill="#32CC9A"/>
<path d="M88.2779 53.571C91.7205 53.5931 93.9321 55.8415 93.9247 59.321C93.9247 62.7784 91.5363 65.1447 88.101 65.1079C84.791 65.071 82.4173 62.653 82.3952 59.2915C82.3731 55.8931 84.791 53.5488 88.2779 53.571V53.571Z" fill="#32CC9A"/>
<path d="M283.631 142.829C280.299 142.829 277.955 140.441 277.962 137.05C277.962 133.688 280.344 131.314 283.705 131.307C287.185 131.307 289.514 133.636 289.507 137.116C289.499 140.559 287.162 142.829 283.631 142.829Z" fill="#32CC9A"/>
<path d="M72.9591 83.5301C72.9738 87.0317 70.6517 89.4054 67.2238 89.4128C63.8327 89.4128 61.3927 86.958 61.4221 83.5522C61.4516 80.2496 63.7885 77.9054 67.0542 77.8759C70.6591 77.8538 72.9443 80.0432 72.9591 83.5301Z" fill="#32CC9A"/>
<path d="M68.1159 186.588C64.6732 186.581 62.2995 184.185 62.3364 180.742C62.3658 177.418 64.7838 175.051 68.1454 175.044C71.529 175.044 73.8512 177.366 73.8659 180.764C73.8733 184.31 71.6249 186.596 68.1159 186.588Z" fill="#32CC9A"/>
<path d="M151.042 218.818C147.592 218.818 145.24 216.452 145.255 212.987C145.27 209.625 147.651 207.259 151.012 207.266C154.499 207.281 156.821 209.633 156.792 213.105C156.755 216.518 154.44 218.811 151.042 218.811V218.818Z" fill="#32CC9A"/>
<path d="M149.346 55.3992C152.715 55.3992 155 57.7655 154.971 61.2008C154.934 64.5771 152.56 66.9582 149.228 66.9435C145.822 66.9361 143.426 64.5108 143.434 61.0755C143.434 57.6623 145.8 55.3918 149.353 55.3992H149.346Z" fill="#32CC9A"/>
<path d="M31.2712 137.971C27.9096 137.964 25.5949 135.634 25.558 132.214C25.5212 128.845 27.9981 126.412 31.4334 126.442C34.8244 126.471 37.0728 128.771 37.0802 132.221C37.0876 135.738 34.8244 137.979 31.2712 137.971V137.971Z" fill="#32CC9A"/>
<path d="M301.339 92.4501C297.955 92.4501 295.574 90.01 295.596 86.5452C295.618 83.2427 297.94 80.9279 301.25 80.9132C304.818 80.8984 307.118 83.1247 307.133 86.6042C307.148 90.0616 304.789 92.4427 301.339 92.4501Z" fill="#32CC9A"/>
<path d="M44.0687 205.047C44.0834 208.615 41.8498 210.908 38.3555 210.915C34.9202 210.915 32.5244 208.527 32.5391 205.092C32.5539 201.774 34.9792 199.364 38.3187 199.364C41.7244 199.364 44.0539 201.671 44.0687 205.047Z" fill="#32CC9A"/>
<path d="M191.432 61.2303C191.402 64.6066 189.036 66.9509 185.66 66.9435C182.254 66.9287 179.873 64.4887 179.902 61.046C179.932 57.6181 182.298 55.3697 185.851 55.3992C189.257 55.4287 191.454 57.7287 191.432 61.2303Z" fill="#32CC9A"/>
<path d="M146.176 168.358C142.704 168.358 140.382 166.021 140.404 162.534C140.419 159.18 142.792 156.835 146.169 156.828C149.567 156.828 151.897 159.121 151.934 162.519C151.97 166.006 149.663 168.35 146.183 168.358H146.176Z" fill="#32CC9A"/>
<path d="M168.726 30.1729C172.154 30.1877 174.432 32.4803 174.425 35.9008C174.41 39.373 172.051 41.7319 168.601 41.7172C165.225 41.7025 162.851 39.2329 162.903 35.7755C162.954 32.3845 165.269 30.1582 168.726 30.1729Z" fill="#32CC9A"/>
<path d="M55.6278 132.155C55.6425 135.7 53.3941 137.978 49.8851 137.978C46.4941 137.978 44.172 135.7 44.1056 132.287C44.0319 128.911 46.5015 126.427 49.9072 126.441C53.3204 126.456 55.6204 128.749 55.6352 132.155H55.6278Z" fill="#32CC9A"/>
<path d="M49.2584 186.596C45.8379 186.596 43.4494 184.17 43.4863 180.735C43.5231 177.418 45.9632 175.037 49.3026 175.044C52.6789 175.059 55.0084 177.388 55.0158 180.779C55.0306 184.318 52.7748 186.588 49.2584 186.588V186.596Z" fill="#32CC9A"/>
<path d="M264.03 80.9205C267.502 80.9352 269.743 83.1763 269.75 86.6115C269.75 90.1132 267.436 92.4427 263.964 92.4427C260.572 92.4427 258.169 89.9805 258.213 86.5452C258.258 83.1763 260.609 80.9057 264.03 80.9205V80.9205Z" fill="#32CC9A"/>
<path d="M52.0523 53.5711C55.5319 53.5859 57.7508 55.7974 57.7581 59.2622C57.7655 62.749 55.4286 65.1228 51.986 65.1154C48.6023 65.1154 46.1696 62.6163 46.2286 59.2032C46.2876 55.8343 48.6392 53.5564 52.0523 53.5711Z" fill="#32CC9A"/>
<path d="M76.9031 156.578C76.881 160.079 74.6031 162.298 71.0351 162.276C67.7031 162.261 65.3809 159.88 65.3736 156.467C65.3662 153.172 67.821 150.732 71.1457 150.739C74.6252 150.739 76.9252 153.076 76.9105 156.578H76.9031Z" fill="#32CC9A"/>
<path d="M204.34 55.3919C207.761 55.4067 209.979 57.6846 209.972 61.1714C209.957 64.5551 207.606 66.9362 204.259 66.9362C200.853 66.9362 198.443 64.5182 198.428 61.0903C198.413 57.6993 200.824 55.3772 204.34 55.3919V55.3919Z" fill="#32CC9A"/>
<path d="M199.983 168.358C196.526 168.358 194.167 165.991 194.197 162.541C194.219 159.187 196.607 156.813 199.961 156.813C203.411 156.813 205.733 159.172 205.719 162.667C205.704 166.095 203.426 168.358 199.991 168.358H199.983Z" fill="#32CC9A"/>
<path d="M86.258 137.978C82.9038 137.956 80.5522 135.56 80.567 132.192C80.5817 128.771 83.0144 126.405 86.4644 126.434C89.8481 126.471 92.126 128.815 92.0965 132.243C92.0744 135.767 89.7965 138.001 86.258 137.978Z" fill="#32CC9A"/>
<path d="M48.4919 77.876C51.9271 77.9055 54.1313 80.176 54.1018 83.6555C54.0724 87.135 51.7207 89.4497 48.2486 89.4055C44.9534 89.3686 42.5649 86.9138 42.5723 83.5596C42.5723 80.1612 44.9976 77.8317 48.4919 77.8686V77.876Z" fill="#32CC9A"/>
<path d="M48.4919 29.2587C51.9124 29.2808 54.1313 31.5661 54.1018 35.0456C54.0724 38.5398 51.7502 40.8251 48.256 40.803C44.9902 40.7809 42.5797 38.3113 42.5723 34.9645C42.5649 31.5956 45.005 29.2366 48.4919 29.2587Z" fill="#32CC9A"/>
<path d="M186.566 193.584C183.146 193.584 180.779 191.181 180.816 187.716C180.853 184.436 183.22 182.055 186.471 182.032C189.98 182.01 192.331 184.31 192.339 187.768C192.346 191.284 190.075 193.577 186.566 193.584V193.584Z" fill="#32CC9A"/>
<path d="M187.532 218.811C184.075 218.811 181.716 216.444 181.738 212.994C181.76 209.625 184.126 207.281 187.495 207.274C190.931 207.274 193.231 209.537 193.245 212.95C193.268 216.511 191.026 218.811 187.532 218.811Z" fill="#32CC9A"/>
<path d="M30.6592 186.588C27.3124 186.581 24.9755 184.222 24.9461 180.831C24.9166 177.462 27.3861 175.037 30.8214 175.044C34.1682 175.059 36.4756 177.418 36.4682 180.838C36.4682 184.377 34.2125 186.596 30.6519 186.588H30.6592Z" fill="#32CC9A"/>
<path d="M288.29 86.5894C288.32 90.0394 285.954 92.4426 282.518 92.45C279.179 92.45 276.798 90.0836 276.754 86.7147C276.709 83.3163 279.024 80.9426 282.393 80.9278C285.968 80.9131 288.261 83.1099 288.29 86.5967V86.5894Z" fill="#32CC9A"/>
<path d="M31.6178 10.6671C31.6252 14.1466 29.2883 16.4982 25.8236 16.4909C22.5062 16.4835 20.1325 14.0876 20.0956 10.7113C20.0588 7.30557 22.462 4.93921 25.9415 4.93921C29.3915 4.93921 31.6104 7.18024 31.6178 10.6671Z" fill="#32CC9A"/>
<path d="M172.31 117.64C168.882 117.647 166.508 115.251 166.537 111.794C166.559 108.418 168.926 106.095 172.317 106.11C175.774 106.125 178.052 108.381 178.06 111.794C178.067 115.332 175.811 117.632 172.317 117.64H172.31Z" fill="#32CC9A"/>
<path d="M19.7196 210.908C16.3802 210.9 14.0359 208.527 14.0138 205.136C13.9917 201.804 16.417 199.356 19.7344 199.356C23.2581 199.356 25.5507 201.641 25.5434 205.136C25.5286 208.667 23.2655 210.915 19.727 210.9L19.7196 210.908Z" fill="#32CC9A"/>
<path d="M38.6063 107.82C38.6211 111.373 36.3505 113.703 32.8931 113.696C29.4358 113.688 27.062 111.307 27.0841 107.872C27.1063 104.547 29.4284 102.196 32.6941 102.166C36.2916 102.137 38.5916 104.341 38.5989 107.82H38.6063Z" fill="#32CC9A"/>
<path d="M273.031 106.125C276.569 106.11 278.869 108.373 278.877 111.867C278.877 115.273 276.54 117.647 273.193 117.64C269.692 117.64 267.355 115.332 267.333 111.875C267.318 108.491 269.647 106.14 273.031 106.125V106.125Z" fill="#32CC9A"/>
<path d="M1.64404 170.252H4.03989V177.705H13.4464V170.311H15.8864V188.336H13.5201V179.71H4.13572V188.328H1.64404V170.252Z" fill="#32CC9A"/>
<path d="M128.963 33.0996C131.418 36.5496 133.902 40.0438 136.408 43.5749C134.101 44.2089 133.614 44.0467 132.413 42.3291C130.673 39.8374 128.941 37.3458 127.223 34.8909C122.984 36.7118 124.422 40.523 124.112 43.7666H121.959V25.7278H124.164V34.5297C125.409 33.2986 126.316 32.3919 127.223 31.4925C128.697 30.0255 130.297 28.6617 131.594 27.0547C132.855 25.4992 134.329 25.4624 136.018 25.7204C133.659 28.1899 131.336 30.6226 128.955 33.1143L128.963 33.0996Z" fill="#32CC9A"/>
<path d="M235.132 50.9099H237.417C237.417 54.3599 237.403 57.7436 237.425 61.1273C237.425 62.034 237.44 62.9629 237.631 63.8475C238.155 66.2065 239.85 67.4007 242.305 67.2533C244.797 67.1058 246.404 65.7789 246.595 63.3757C246.772 61.1125 246.691 58.8199 246.713 56.542C246.728 54.7285 246.713 52.9077 246.713 50.9689H249.198C249.198 53.0625 249.227 55.1708 249.198 57.2792C249.161 59.4539 249.257 61.6507 248.962 63.7959C248.446 67.5702 245.976 69.4132 241.892 69.3763C238.059 69.3469 235.464 67.4375 235.199 63.759C234.896 59.5423 235.125 55.2814 235.125 50.9173L235.132 50.9099Z" fill="#32CC9A"/>
<path d="M233.894 126.972C236.584 126.456 236.651 126.478 237.933 128.417C239.054 130.105 240.174 131.786 241.464 133.732C242.651 131.926 243.742 130.26 244.833 128.602C245.703 127.284 247.062 126.697 248.91 126.84C248.379 127.628 247.922 128.314 247.458 128.992C246.603 130.245 245.74 131.499 244.885 132.752C243.563 134.688 243.583 136.642 244.944 138.612C246.337 140.64 247.716 142.682 249.131 144.775C247.237 145.262 245.946 144.974 245.01 143.183C244.008 141.266 242.666 139.527 241.354 137.521C240.027 139.482 238.656 141.229 237.602 143.154C236.68 144.827 235.471 145.284 233.518 144.797C234.07 143.979 234.587 143.212 235.117 142.446C236.415 140.573 237.668 138.664 239.039 136.843C239.688 135.981 239.732 135.362 239.083 134.462C237.329 132.052 235.685 129.553 233.908 126.965L233.894 126.972Z" fill="#32CC9A"/>
<path d="M4.2167 107.002V113.703H15.0386V115.413C14.7289 115.45 14.4857 115.509 14.2424 115.509C10.1363 115.509 6.03754 115.509 1.81348 115.509V97.4409H14.8837V99.0848H4.2683V105.174H14.0581V106.995H4.2167V107.002Z" fill="#32CC9A"/>
<path d="M16.6676 54.4263H14.3675C12.5762 50.8214 10.3351 49.6493 7.15788 50.8804C6.13319 51.2785 5.11588 52.0673 4.45979 52.9519C2.66106 55.3846 2.79375 60.4343 4.54825 62.9186C5.82358 64.7321 7.67391 65.2776 9.75277 65.0712C11.7284 64.8721 13.2986 63.8032 13.7925 61.8866C14.2348 60.1615 15.1932 60.0657 16.557 60.3311C16.7708 62.609 15.09 65.2186 12.6499 66.4055C7.68865 68.8161 2.22612 66.2949 1.09086 60.9061C0.700148 59.0631 0.619058 57.0433 0.943419 55.1929C1.92387 49.6641 7.52647 46.8038 12.7089 49.0522C14.9573 50.0253 16.2179 51.824 16.6749 54.4263H16.6676Z" fill="#32CC9A"/>
<path d="M15.9748 18.1863C14.3579 18.3877 13.2791 17.739 12.7385 16.2401C11.9227 13.9696 10.3599 12.8368 8.05005 12.8417C5.62717 12.8417 3.99308 14.0261 3.14778 16.3949C2.64649 17.8005 1.59723 18.3853 0 18.1494C1.17949 15.009 2.34424 11.8907 3.51637 8.7798C4.49682 6.17755 5.54362 3.59741 6.42824 0.965667C6.78209 -0.0885043 7.48242 0.0884196 8.21223 0.073676C8.90518 0.0663041 9.53916 -0.0442733 9.87089 0.906692C11.8392 6.48716 13.8812 12.0382 15.8863 17.5965C15.9527 17.7808 15.9453 17.9872 15.9674 18.1789L15.9748 18.1863ZM10.8956 10.9324C9.96673 8.28589 9.08211 5.7721 8.19748 3.2583L7.85838 3.32465L5.12343 10.9324H10.8882H10.8956Z" fill="#32CC9A"/>
<path d="M124.496 162.276V170.083H122.07V152.147C125.321 152.147 128.513 151.904 131.646 152.221C134.411 152.501 135.834 154.808 135.576 157.624C135.318 160.411 133.497 162.18 130.695 162.269C128.683 162.328 126.67 162.283 124.496 162.283V162.276ZM124.54 160.396C126.575 160.396 128.543 160.521 130.489 160.359C132.207 160.212 133.076 158.988 133.099 157.197C133.121 155.354 132.347 154.13 130.614 153.953C128.639 153.754 126.619 153.909 124.54 153.909V160.403V160.396Z" fill="#32CC9A"/>
<path d="M236.511 193.916H247.569V195.641H233.164C233.511 194.69 233.636 193.79 234.115 193.149C237.196 188.999 240.359 184.907 243.485 180.794C243.78 180.403 244.052 179.99 244.517 179.327H234.299V177.58H247.974C247.583 178.605 247.429 179.555 246.92 180.241C243.979 184.178 240.949 188.055 237.956 191.955C237.536 192.508 237.13 193.075 236.511 193.916V193.916Z" fill="#32CC9A"/>
<path d="M249.212 76.232C248.483 78.2445 247.775 80.2349 247.053 82.2179C245.74 85.8375 244.391 89.4423 243.138 93.0766C242.814 94.0128 242.335 94.2929 241.384 94.2929C240.433 94.2929 239.953 94.0202 239.622 93.084C237.771 87.8279 235.855 82.6012 233.968 77.3599C233.835 76.9839 233.739 76.6006 233.628 76.2099C235.285 75.9494 236.354 76.5342 236.835 77.9644C238.302 82.3285 239.769 86.6926 241.332 91.3442C241.597 90.7471 241.774 90.4227 241.892 90.0763C243.241 86.0439 244.583 82.0041 245.925 77.9717C246.396 76.5465 247.495 75.9666 249.22 76.232H249.212Z" fill="#32CC9A"/>
<path d="M1.7251 121.65H14.2499L14.3457 123.412H4.22415V129.471H13.0261L13.1441 131.241H4.18729V139.681H1.7251V121.65V121.65Z" fill="#32CC9A"/>
<path d="M242.666 170.098H240.241C240.241 168.365 240.167 166.707 240.263 165.055C240.344 163.573 239.961 162.335 239.12 161.089C237.181 158.199 235.383 155.214 233.51 152.243C235.67 151.594 236.061 151.749 237.108 153.496C238.494 155.833 239.887 158.163 241.42 160.728C242.895 158.258 244.354 156.076 245.534 153.747C246.374 152.088 247.458 151.587 249.374 152.14C248.991 152.759 248.645 153.341 248.283 153.916C248.018 154.344 247.745 154.772 247.473 155.199C246.529 156.696 245.548 158.177 244.642 159.703C243.735 161.237 242.408 162.556 242.622 164.62C242.799 166.367 242.659 168.151 242.659 170.09L242.666 170.098Z" fill="#32CC9A"/>
<path d="M247.885 25.7129V27.3789H241.907V43.7444H239.445V27.46H233.341V25.7129H247.893H247.885Z" fill="#32CC9A"/>
<path d="M128.263 0.147461H130.688C130.688 1.77663 130.688 3.33209 130.688 4.88755C130.688 7.6741 130.755 10.4606 130.673 13.2472C130.555 17.6261 126.825 19.8966 122.8 18.1126C120.766 17.2132 120.073 15.5841 120.404 12.3478H122.476C122.55 13.1292 122.564 13.8812 122.704 14.611C122.992 16.1075 123.854 16.7857 125.344 16.793C126.943 16.8004 127.887 16.137 128.086 14.5741C128.27 13.1292 128.255 11.6475 128.263 10.1805C128.285 6.89268 128.263 3.60485 128.263 0.147461V0.147461Z" fill="#32CC9A"/>
<path d="M121.886 68.9265V50.9688H124.208V67.1868H133.364L133.474 68.9265H121.886Z" fill="#32CC9A"/>
<path d="M36.6306 85.071H23.7446V80.7363H36.6306V85.071Z" fill="#32CC9A"/>
<path d="M63.5083 60.7366V56.4241H76.4385V60.7366H63.5083Z" fill="#32CC9A"/>
<path d="M162.527 214.771V210.399H175.391V214.771H162.527Z" fill="#32CC9A"/>
<path d="M27.0254 60.7364V56.4165H39.9556V60.7364H27.0254Z" fill="#32CC9A"/>
<path d="M37.3604 12.1046V7.78467H50.2906V12.1046H37.3604Z" fill="#32CC9A"/>
<path d="M166.294 12.1488H153.438V7.74048H166.294V12.1488Z" fill="#32CC9A"/>
<path d="M171.063 7.74048H183.935V12.1046H171.063V7.74048V7.74048Z" fill="#32CC9A"/>
<path d="M201.591 7.75513V12.1487H188.712V7.75513H201.591Z" fill="#32CC9A"/>
<path d="M41.518 153.592V157.912H28.5952V153.592H41.518Z" fill="#32CC9A"/>
<path d="M59.0777 157.956H46.2212V153.585H59.0777V157.956Z" fill="#32CC9A"/>
<path d="M161.731 184.863H174.492V189.242H161.731V184.863V184.863Z" fill="#32CC9A"/>
<path d="M180.47 37.3604V33.0037H193.385V37.3604H180.47V37.3604Z" fill="#32CC9A"/>
<path d="M210.982 189.249H198.133V184.915H210.982V189.249Z" fill="#32CC9A"/>
<path d="M23.6855 36.4315V32.1116H36.6084V36.4315H23.6855Z" fill="#32CC9A"/>
<path d="M157.706 159.637H170.569V164.008H157.706V159.637Z" fill="#32CC9A"/>
<path d="M188.174 164.03H175.332V159.688H188.174V164.03Z" fill="#32CC9A"/>
<path d="M252.154 159.63H264.951V164.016H252.154V159.63Z" fill="#32CC9A"/>
<path d="M301.147 159.644V164.008H288.298V159.644H301.147Z" fill="#32CC9A"/>
<path d="M318.803 159.659V163.979H305.887V159.659H318.803Z" fill="#32CC9A"/>
<path d="M144.016 37.3751V33.0183H156.85V37.3751H144.016Z" fill="#32CC9A"/>
<path d="M257.299 37.3752V33.0037H270.134V37.3752H257.299Z" fill="#32CC9A"/>
<path d="M325.769 83.7661V88.1081H312.897V83.7661H325.769Z" fill="#32CC9A"/>
<path d="M327 138.804H314.106V134.455H327V138.804Z" fill="#32CC9A"/>
<path d="M271.962 138.804H259.127V134.447H271.962V138.804Z" fill="#32CC9A"/>
<path d="M197.307 138.797H184.429V134.44H197.307V138.797Z" fill="#32CC9A"/>
<path d="M166.478 138.789V134.484H179.386V138.789H166.478Z" fill="#32CC9A"/>
<path d="M148.875 134.447H161.768V138.752H148.875V134.447Z" fill="#32CC9A"/>
<path d="M74.6252 129.309V133.629H61.7393V129.309H74.6252Z" fill="#32CC9A"/>
<path d="M173.946 58.5249V62.8669H161.075V58.5249H173.946Z" fill="#32CC9A"/>
<path d="M310.546 62.9111H297.741V58.5322H310.546V62.9111Z" fill="#32CC9A"/>
<path d="M144.016 189.235V184.863H156.895V189.235H144.016Z" fill="#32CC9A"/>
<path d="M156.85 88.1081H144.031V83.7734H156.85V88.1081V88.1081Z" fill="#32CC9A"/>
<path d="M174.521 88.1007H161.657V83.7808H174.521V88.1007Z" fill="#32CC9A"/>
<path d="M256.982 189.235V184.871H269.854V189.235H256.982Z" fill="#32CC9A"/>
<path d="M274.63 184.871H287.479V189.235H274.63V184.871Z" fill="#32CC9A"/>
<path d="M315.139 108.852V113.29H302.164C302.164 112.015 302.105 110.769 302.216 109.538C302.238 109.28 302.901 108.882 303.277 108.882C307.17 108.83 311.062 108.852 315.139 108.852V108.852Z" fill="#32CC9A"/>
<path d="M160.249 108.963V113.261H147.355V108.963H160.249Z" fill="#32CC9A"/>
<path d="M297.49 108.941V113.298H284.634V108.941H297.49Z" fill="#32CC9A"/>
<path d="M4.40104 212.67H2.1084V194.624H4.40841V212.67H4.40104Z" fill="#32CC9A"/>
<path d="M134.02 192.102C133.261 191.535 132.575 191.026 131.757 190.414L130.548 191.822L132.207 193.252C130.209 194.653 126.383 193.82 124.776 191.675C122.962 189.25 122.911 184.178 124.673 181.715C126.899 178.597 132.059 178.442 134.499 181.428C136.696 184.111 136.504 189.39 134.02 192.11V192.102Z" fill="#0E0327"/>
<path d="M3.92188 33.8515C5.9565 33.8515 7.92478 33.7483 9.87832 33.881C11.9056 34.021 12.9819 35.2521 12.9966 37.1024C13.0114 39.1518 11.9129 40.5819 9.90781 40.7368C7.95427 40.8916 5.98599 40.7662 3.92188 40.7662V33.8441V33.8515Z" fill="#0E0327"/>
<path d="M3.91463 32.1189C3.8704 31.5366 3.83354 31.2417 3.82617 30.9542C3.82617 29.443 3.82617 27.9391 3.82617 26.3542C5.96401 26.3542 8.02075 26.2436 10.0554 26.3984C11.3454 26.4942 12.0753 27.4378 12.1269 28.8016C12.1711 30.2023 11.714 31.4629 10.2544 31.6914C8.22716 32.0084 6.15567 31.9936 3.92201 32.1337L3.91463 32.1189Z" fill="#0E0327"/>
<path d="M136.04 135.988C135.929 136.644 135.863 137.617 135.605 138.531C134.654 141.959 132.664 143.345 129.118 143.139C126.029 142.955 123.972 141.053 123.515 137.757C123.353 136.571 123.36 135.317 123.53 134.13C124.053 130.562 126.692 128.395 130.142 128.572C133.445 128.742 135.679 131.078 135.937 134.632C135.966 134.986 135.988 135.339 136.032 135.988H136.04Z" fill="#0E0327"/>
<path d="M124.606 210.871V204.649C127.002 204.649 129.368 204.502 131.698 204.701C133.312 204.834 134.02 206.131 133.917 207.952C133.813 209.684 132.98 210.731 131.226 210.842C129.073 210.982 126.906 210.871 124.613 210.871H124.606Z" fill="#0E0327"/>
<path d="M4.17236 89.3097V74.9567C6.14064 74.9567 8.05732 74.8093 9.94451 75.001C11.7727 75.1853 12.9154 76.4753 13.483 78.1782C14.3971 80.9132 14.4045 83.6629 13.2913 86.3536C12.6352 87.9459 11.5073 89.1475 9.71599 89.2802C7.91726 89.4203 6.10378 89.3097 4.17236 89.3097V89.3097Z" fill="#0E0327"/>
<path d="M10.8956 10.9324H5.13086L7.86581 3.32465L8.20492 3.2583C9.08954 5.77209 9.96679 8.28589 10.903 10.9324H10.8956Z" fill="#0E0327"/>
<path d="M124.547 160.396V153.902C126.626 153.902 128.639 153.747 130.622 153.946C132.362 154.123 133.128 155.346 133.106 157.189C133.084 158.981 132.214 160.205 130.496 160.352C128.55 160.514 126.582 160.389 124.547 160.389V160.396Z" fill="#0E0327"/>
</g>
<defs>
<clipPath id="clip0_51_5417">
<rect width="327" height="221" fill="white"/>
</clipPath>
</defs>
</svg>
