<svg width="47" height="72" viewBox="0 0 47 72" fill="none" xmlns="http://www.w3.org/2000/svg">
<path d="M46.3602 29.4933C47.5689 37.3849 46.5557 45.381 46.929 53.2552C31.5349 38.012 16.3541 22.9779 1.83105 8.58838H45.9513L45.9869 10.3305C33.0637 11.5847 19.9982 10.2956 7.43052 10.9228C19.3938 22.8037 31.446 34.7892 44.1559 47.4018V29.5455C44.8848 29.5281 45.6136 29.5107 46.3424 29.4933H46.3602Z" fill="#32CC9A"/>
<path d="M46.5023 63.2722H1.4043C2.85009 61.8321 7.1045 61.1121 14.1675 61.1121C18.5938 61.1121 23.0378 61.1121 27.4641 61.1121C31.8903 61.1121 36.2988 61.1121 40.3873 61.1121C28.264 49.144 16.1229 37.1411 3.94628 25.1034C2.82638 30.6257 4.78176 36.7753 2.87971 42.437L1.4754 42.3499V18.5183C16.5673 33.5176 31.7125 48.5691 46.52 63.2722H46.5023Z" fill="#32CC9A"/>
<path d="M45.8801 2.19502H0C1.51097 0.940721 2.0798 0.069683 2.64864 0.069683C17.0828 0 31.517 0 45.9512 0L45.8623 2.19502H45.8801Z" fill="#32CC9A"/>
<path d="M1.27949 69.7178H46.9996C44.4399 72.6793 4.49697 72.8361 1.26172 69.7178H1.27949Z" fill="#32CC9A"/>
<path d="M39.1781 22.856C36.6894 24.6851 35.2496 26.5492 34.023 26.4272C32.6543 26.2878 31.4633 24.3541 30.2012 23.2044C31.3922 22.0023 32.4587 20.0512 33.8097 19.8247C35.0363 19.6157 36.5828 21.3055 39.1781 22.856Z" fill="#32CC9A"/>
<path d="M19.3228 48.9873C16.7275 50.5377 15.1988 52.1753 13.9189 52.0011C12.6212 51.8094 11.5724 49.8583 10.417 48.6737C11.6435 47.5414 12.8168 45.5728 14.1144 45.4857C15.3943 45.3986 16.8164 47.1929 19.305 48.9873H19.3228Z" fill="#32CC9A"/>
</svg>
