<svg width="1512" height="982" viewBox="0 0 1512 982" fill="none" xmlns="http://www.w3.org/2000/svg">
<g clip-path="url(#clip0_51_7773)">
<rect width="1512" height="982" fill="#0E0327"/>
<g opacity="0.1">
<g clip-path="url(#clip1_51_7773)">
<path d="M193.348 827.884C181.525 821.799 169.616 815.757 157.836 809.542C126.759 793.155 95.6806 776.682 64.6462 760.208C64.4289 760.078 64.1246 760.034 63.9507 759.904C50.0852 748.429 36.9152 751.08 22.9627 760.512C14.0523 766.511 3.57705 770.118 -5.98538 775.204C-36.3678 791.373 -66.6633 807.76 -97.0023 824.059C-99.1756 825.233 -101.436 826.319 -105 826.319C-103.739 824.537 -102.653 822.581 -101.132 820.973C-75.8346 794.024 -46.8865 771.596 -14.2439 754.384C3.35971 745.126 21.8761 737.65 40.1751 729.782C43.0438 728.565 47.3469 728.869 50.3895 730C103.722 750.037 150.838 779.724 190.305 821.06C191.827 822.668 193.13 824.494 194.565 826.232L193.348 827.884Z" fill="white"/>
<path d="M-72.4004 881.26C-71.5311 877.261 -71.7919 874.653 -70.6618 873.784C-55.7965 861.787 -41.5398 848.748 -25.4576 838.577C-6.76735 826.754 13.5745 817.496 33.2645 807.151C41.0448 803.065 48.7817 803.978 56.6489 807.281C91.291 821.799 122.891 840.967 150.013 867.177C152.664 869.742 156.055 871.567 158.88 874.001C159.793 874.784 160.01 876.392 160.575 877.609C159.271 878 157.663 879.043 156.707 878.652C153.229 877.174 149.97 875.218 146.623 873.436C131.192 865.308 115.719 857.18 100.288 849.052C83.5976 840.228 66.9938 831.188 50.0856 822.799C47.1734 821.364 42.3053 821.234 39.48 822.668C12.2271 836.577 -14.8085 851.008 -41.8875 865.265C-51.4934 870.307 -61.0993 875.349 -72.3569 881.26H-72.4004Z" fill="white"/>
<path d="M-38.9756 917.858C-28.5873 903.558 -14.9826 892.735 -0.0304184 883.911C12.0965 876.739 25.0927 870.915 37.7846 864.743C42.8701 862.265 47.6079 861.483 53.3019 865.308C59.2566 869.307 67.037 870.437 73.3395 874.045C83.0758 879.608 92.1167 886.432 101.723 892.3C104.722 894.169 108.547 894.734 112.806 896.169C111.459 905.905 124.412 907.904 128.758 917.988C123.803 915.728 119.891 914.163 116.153 912.207C94.6811 900.993 73.1222 889.823 51.824 878.261C46.4778 875.392 42.2616 875.609 37.0457 878.391C12.705 891.3 -11.7661 903.905 -36.1938 916.641C-37.0631 917.076 -38.0193 917.423 -38.8887 917.814L-38.9756 917.858Z" fill="white"/>
<path d="M44.7391 1008.66C25.7881 987.446 24.8318 942.546 44.7391 918.814L44.7391 1008.66Z" fill="white"/>
</g>
</g>
<path d="M155.36 758.16L181.808 790.84C184.747 794.488 186.621 798.44 187.432 802.696C188.243 806.952 187.077 810.701 183.936 813.944L178.464 819.264C175.627 821.797 172.131 823.317 167.976 823.824C161.693 824.533 156.323 823.165 151.864 819.72L130.584 801.784L146.848 784.456L163.72 804.064C164.227 804.672 164.784 804.925 165.392 804.824C166 804.621 166.405 804.267 166.608 803.76C166.811 803.253 166.709 802.696 166.304 802.088C166 801.683 165.291 800.872 164.176 799.656C160.528 795.197 154.448 787.952 145.936 777.92C141.376 772.752 138.336 767.635 136.816 762.568C135.296 757.501 135.6 751.472 137.728 744.48C140.059 737.285 143.403 730.8 147.76 725.024C151.611 719.957 155.411 716.917 159.16 715.904C162.909 714.789 167.52 715.347 172.992 717.576C177.552 719.4 181.96 721.376 186.216 723.504C190.472 725.632 194.019 727.507 196.856 729.128C199.795 730.648 201.264 731.408 201.264 731.408L179.984 754.968L168.432 744.784C165.392 742.453 162.504 741.997 159.768 743.416C157.133 744.733 155.259 746.912 154.144 749.952C153.131 752.992 153.536 755.728 155.36 758.16ZM180.44 732.168C179.123 732.168 177.957 732.624 176.944 733.536C176.032 734.448 175.576 735.563 175.576 736.88C175.576 738.197 176.032 739.363 176.944 740.376C177.957 741.288 179.123 741.744 180.44 741.744C181.757 741.744 182.872 741.288 183.784 740.376C184.696 739.363 185.152 738.197 185.152 736.88C185.152 735.563 184.696 734.448 183.784 733.536C182.872 732.624 181.757 732.168 180.44 732.168ZM164.328 726.24C163.213 726.24 162.251 726.645 161.44 727.456C160.629 728.267 160.224 729.229 160.224 730.344C160.224 731.56 160.629 732.573 161.44 733.384C162.251 734.093 163.213 734.448 164.328 734.448C165.443 734.448 166.405 734.093 167.216 733.384C168.027 732.573 168.432 731.56 168.432 730.344C168.432 729.229 168.027 728.267 167.216 727.456C166.405 726.645 165.443 726.24 164.328 726.24ZM145.632 756.64C146.341 756.64 146.949 756.387 147.456 755.88C147.963 755.373 148.216 754.765 148.216 754.056C148.216 753.347 147.963 752.739 147.456 752.232C146.949 751.725 146.341 751.472 145.632 751.472C144.923 751.472 144.315 751.725 143.808 752.232C143.301 752.739 143.048 753.347 143.048 754.056C143.048 754.765 143.301 755.373 143.808 755.88C144.315 756.387 144.923 756.64 145.632 756.64ZM147.608 739.464C147.608 740.477 147.963 741.339 148.672 742.048C149.381 742.757 150.243 743.112 151.256 743.112C152.269 743.112 153.08 742.757 153.688 742.048C154.397 741.339 154.752 740.477 154.752 739.464C154.752 738.451 154.397 737.589 153.688 736.88C153.08 736.171 152.269 735.816 151.256 735.816C150.243 735.816 149.381 736.171 148.672 736.88C147.963 737.589 147.608 738.451 147.608 739.464ZM144.568 799.352L152.32 800.112L145.328 791.6L144.568 799.352ZM152.928 809.688L160.832 810.448L153.84 801.784L152.928 809.688ZM164.328 765.304L161.592 764.392C162.301 762.264 161.845 759.832 160.224 757.096L162.656 755.576C164.683 759.021 165.24 762.264 164.328 765.304ZM175.272 754.36C173.651 754.765 172.029 754.765 170.408 754.36C168.888 754.056 167.368 753.549 165.848 752.84L167.064 750.104C168.381 750.813 169.699 751.32 171.016 751.624C172.232 751.827 173.397 751.827 174.512 751.624L175.272 754.36ZM169.952 762.264C169.851 762.163 169.395 761.656 168.584 760.744C167.773 759.731 166.76 758.616 165.544 757.4C164.429 756.184 163.264 755.12 162.048 754.208C160.933 753.195 159.971 752.587 159.16 752.384L159.768 749.496C160.781 749.8 161.947 750.509 163.264 751.624C164.683 752.637 166.051 753.853 167.368 755.272C168.685 756.589 169.749 757.755 170.56 758.768C171.472 759.781 171.979 760.339 172.08 760.44L169.952 762.264ZM232.685 785.52L257.461 800.416C255.131 807.408 251.027 813.083 245.149 817.44C239.373 821.797 232.736 823.976 225.237 823.976C215.915 823.976 207.909 820.632 201.221 813.944C194.635 807.256 191.341 799.149 191.341 789.624C191.341 780.099 194.635 771.992 201.221 765.304C207.909 758.616 215.915 755.272 225.237 755.272C234.155 755.272 241.856 758.312 248.341 764.392L231.925 777.16C230.101 770.472 227.365 767.128 223.717 767.128C221.184 767.128 219.056 768.8 217.333 772.144C215.611 775.387 214.749 779.339 214.749 784C214.749 788.661 215.611 792.664 217.333 796.008C219.056 799.251 221.184 800.872 223.717 800.872C226.048 800.872 228.024 799.453 229.645 796.616C231.368 793.677 232.381 789.979 232.685 785.52ZM205.173 772.904C204.667 772.904 204.211 773.157 203.805 773.664C203.4 774.069 203.197 774.627 203.197 775.336C203.197 775.944 203.4 776.501 203.805 777.008C204.211 777.515 204.667 777.768 205.173 777.768C205.68 777.768 206.085 777.515 206.389 777.008C206.795 776.501 206.997 775.944 206.997 775.336C206.997 774.627 206.795 774.069 206.389 773.664C206.085 773.157 205.68 772.904 205.173 772.904ZM205.173 806.344L207.909 802.848L205.173 799.2L202.437 802.848L205.173 806.344ZM205.173 795.248C206.997 792.715 209.328 790.637 212.165 789.016C210.848 788.307 209.581 787.445 208.365 786.432C207.149 785.317 206.085 784 205.173 782.48C204.261 784 203.147 785.317 201.829 786.432C200.613 787.445 199.347 788.307 198.029 789.016C200.867 790.637 203.248 792.715 205.173 795.248ZM224.173 777.16C225.997 777.16 227.315 778.021 228.125 779.744H243.325V783.24H228.125C227.315 784.963 225.997 785.824 224.173 785.824C223.059 785.824 222.045 785.419 221.133 784.608C220.323 783.696 219.917 782.632 219.917 781.416C219.917 780.301 220.323 779.339 221.133 778.528C222.045 777.616 223.059 777.16 224.173 777.16ZM291.453 782.936L294.949 822.152H266.981L269.109 758.16L288.869 755.272L289.629 762.416L323.373 755.272L330.517 769.712L291.453 782.936ZM317.749 760.744L315.317 765.304L319.573 767.736L322.005 763.176L317.749 760.744ZM311.213 765L305.133 766.824L306.045 770.016L312.125 768.192L311.213 765ZM297.533 767.128L295.101 771.536L299.357 773.968L301.941 769.408L297.533 767.128ZM280.813 793.576L284.157 790.08L280.509 786.432L277.013 790.08L280.813 793.576ZM282.941 803.76L282.637 797.376H279.445L279.597 803.76H282.941ZM281.573 814.704L285.069 811.208L281.269 807.56L277.925 811.208L281.573 814.704ZM282.637 778.984C283.752 777.261 285.019 775.843 286.437 774.728C284.917 773.512 283.549 772.093 282.333 770.472C281.219 768.851 280.256 767.179 279.445 765.456C278.027 769.104 276.101 772.195 273.669 774.728C276.304 777.16 278.483 780.2 280.205 783.848C280.915 782.125 281.725 780.504 282.637 778.984ZM401.311 761.048L390.367 802.848L366.655 798.288L367.871 808.776L388.087 813.488L385.655 823.976L347.199 816.376L333.367 761.504L360.423 757.096H381.551L401.311 761.048ZM348.415 785.52L349.631 787.496L351.911 787.8L355.711 781.416L354.495 779.44L352.215 779.136L348.415 785.52ZM358.599 804.52L359.207 802.544L353.279 796.16L351.151 796.464L350.543 798.44L356.471 804.824L358.599 804.52ZM360.423 797.072L363.919 792.816L358.903 788.56L355.407 792.816L360.423 797.072ZM376.839 786.888L379.879 767.888H362.247L365.135 786.432L376.839 786.888ZM461.712 763.328L475.544 817.744L450.616 822.152H429.64L405.472 817.744L416.416 776.248L444.384 781.112L443.32 770.776L418.544 765.76L420.976 755.272L461.712 763.328ZM451.224 772.6C450.718 773.309 450.515 774.12 450.616 775.032C450.819 775.944 451.326 776.755 452.136 777.464C452.947 778.173 453.808 778.528 454.72 778.528C455.632 778.528 456.392 778.173 457 777.464C457.507 776.755 457.659 775.944 457.456 775.032C457.355 774.12 456.899 773.309 456.088 772.6C455.278 771.891 454.416 771.536 453.504 771.536C452.592 771.536 451.832 771.891 451.224 772.6ZM431.312 811.36H448.944L446.056 792.968L434.352 792.512L431.312 811.36ZM449.856 789.016L457.76 795.552L463.08 788.864L455.328 782.328L449.856 789.016ZM461.864 805.28C462.371 804.571 462.523 803.76 462.32 802.848C462.219 801.936 461.763 801.125 460.952 800.416C460.142 799.707 459.28 799.352 458.368 799.352C457.456 799.352 456.696 799.707 456.088 800.416C455.582 801.125 455.379 801.936 455.48 802.848C455.683 803.76 456.19 804.571 457 805.28C457.811 805.888 458.672 806.192 459.584 806.192C460.496 806.192 461.256 805.888 461.864 805.28ZM423.712 773.968L421.736 775.336L420.368 773.208L419 771.232L421.128 769.864L423.104 768.496L424.472 770.624L425.84 772.6L423.712 773.968ZM541.983 757.096L556.575 821.696L535.751 823.976L531.951 797.984L525.263 808.624H519.335L511.431 797.984L509.303 823.976L481.943 820.176L496.079 755.272L513.407 778.984H529.367L541.983 757.096ZM494.407 801.632L496.687 797.68L494.407 793.728L492.279 797.68L494.407 801.632ZM503.223 791.448C504.439 789.827 505.756 788.408 507.175 787.192C505.756 785.976 504.439 784.557 503.223 782.936C502.209 781.416 501.348 779.744 500.639 777.92C499.017 781.669 496.94 784.76 494.407 787.192C496.94 789.624 499.017 792.715 500.639 796.464C501.348 794.64 502.209 792.968 503.223 791.448ZM526.783 787.952C525.263 786.736 523.692 786.128 522.071 786.128C520.449 786.128 518.879 786.736 517.359 787.952L520.247 790.84H523.895L526.783 787.952ZM516.599 788.712C515.484 790.131 514.927 791.701 514.927 793.424C514.927 795.045 515.484 796.565 516.599 797.984L519.487 795.248V791.6L516.599 788.712ZM517.359 798.896C518.879 800.011 520.449 800.568 522.071 800.568C523.692 800.568 525.263 800.011 526.783 798.896L523.895 796.008H520.247L517.359 798.896ZM527.543 797.984C528.657 796.565 529.215 795.045 529.215 793.424C529.215 791.701 528.657 790.131 527.543 788.712L524.655 791.6V795.248L527.543 797.984ZM536.663 791.448C537.676 792.968 538.537 794.64 539.247 796.464C540.868 792.715 542.945 789.624 545.479 787.192C542.945 784.76 540.868 781.669 539.247 777.92C538.537 779.744 537.676 781.416 536.663 782.936C535.548 784.557 534.231 785.976 532.711 787.192C534.231 788.408 535.548 789.827 536.663 791.448ZM543.199 797.68L545.479 801.632L547.759 797.68L545.479 793.728L543.199 797.68ZM526.175 821.088V814.248H528.911V821.088H526.175ZM515.839 821.088V814.248H518.575V821.088H515.839ZM521.007 823.976V810.904H523.743V823.976H521.007ZM521.159 771.992C519.639 768.344 517.561 765.304 514.927 762.872C517.561 760.339 519.639 757.248 521.159 753.6C521.868 755.323 522.78 756.944 523.895 758.464C525.009 760.187 526.276 761.656 527.695 762.872C526.276 763.987 525.009 765.405 523.895 767.128C522.78 768.648 521.868 770.269 521.159 771.992ZM657.828 788.256L678.348 802.088C676.22 808.573 672.623 813.843 667.556 817.896C662.489 821.949 656.561 823.976 649.772 823.976C643.895 823.976 638.879 822.507 634.724 819.568C630.671 816.528 627.529 812.576 625.3 807.712C623.172 802.848 621.956 797.528 621.652 791.752L620.132 757.096H619.98L605.844 739.312L619.068 736.576L618.156 715.296L646.124 717.272L645.212 730.952L651.9 729.432L659.044 744.024L643.844 749.192L641.564 784.304C641.463 785.824 641.513 787.851 641.716 790.384C641.919 792.816 642.577 795.045 643.692 797.072C644.807 798.997 646.529 800.011 648.86 800.112C652.812 800.112 655.801 796.16 657.828 788.256ZM631.532 725.632L630.164 729.28L631.532 732.928L632.9 736.728L634.116 732.928L635.484 729.28L634.116 725.632L632.9 721.832L631.532 725.632ZM617.852 745.696L625.148 752.536L624.844 738.4L617.852 745.696ZM633.052 793.272L634.572 789.624L633.356 785.976L632.292 782.176L630.772 785.976L629.252 789.624L630.468 793.272L631.532 796.92L633.052 793.272ZM635.028 776.704L637.612 774.12L635.18 771.688L632.9 769.256L630.164 771.688L627.58 774.12L630.012 776.704L632.444 779.136L635.028 776.704ZM630.164 759.376L631.532 763.024L632.9 766.672L634.116 763.024L635.484 759.376L634.116 755.728L632.9 751.928L631.532 755.728L630.164 759.376ZM635.332 746.456L637.764 744.024L635.332 741.592L632.9 739.008L630.316 741.592L627.884 744.024L630.316 746.456L632.9 749.04L635.332 746.456ZM641.26 733.384L640.956 747.52L648.252 740.528L641.26 733.384ZM649.316 816.984C650.228 816.984 650.988 816.68 651.596 816.072C652.305 815.363 652.66 814.552 652.66 813.64C652.66 812.728 652.305 811.968 651.596 811.36C650.988 810.651 650.228 810.296 649.316 810.296C648.404 810.296 647.593 810.651 646.884 811.36C646.276 811.968 645.972 812.728 645.972 813.64C645.972 814.552 646.276 815.363 646.884 816.072C647.593 816.68 648.404 816.984 649.316 816.984ZM661.02 807.256L670.14 806.04L659.652 798.136L661.02 807.256ZM660.26 776.248H657.372C657.372 776.248 657.321 776.096 657.22 775.792C657.22 775.387 657.169 774.88 657.068 774.272C656.967 773.664 656.713 773.107 656.308 772.6C656.004 771.992 655.548 771.485 654.94 771.08C654.433 770.675 653.724 770.472 652.812 770.472C652.001 770.472 651.343 770.725 650.836 771.232C650.329 771.637 649.975 772.195 649.772 772.904C649.569 773.512 649.417 774.171 649.316 774.88C649.316 775.589 649.316 776.147 649.316 776.552C649.417 776.957 649.468 777.211 649.468 777.312L646.58 777.616C646.58 777.616 646.529 777.312 646.428 776.704C646.428 775.995 646.428 775.133 646.428 774.12C646.529 773.107 646.783 772.093 647.188 771.08C647.593 770.067 648.252 769.256 649.164 768.648C650.076 767.939 651.292 767.584 652.812 767.584C654.332 767.584 655.548 767.888 656.46 768.496C657.473 769.003 658.233 769.712 658.74 770.624C659.247 771.536 659.601 772.448 659.804 773.36C660.108 774.171 660.26 774.88 660.26 775.488C660.26 775.995 660.26 776.248 660.26 776.248ZM648.404 760.592C648.303 760.491 648.201 760.136 648.1 759.528C648.1 758.819 648.151 757.957 648.252 756.944C648.353 755.931 648.607 754.968 649.012 754.056C649.417 753.043 650.076 752.181 650.988 751.472C651.9 750.763 653.116 750.408 654.636 750.408C656.156 750.408 657.372 750.712 658.284 751.32C659.297 751.928 660.057 752.688 660.564 753.6C661.071 754.411 661.425 755.272 661.628 756.184C661.932 756.995 662.084 757.704 662.084 758.312C662.084 758.92 662.084 759.224 662.084 759.224H659.044C659.044 759.224 659.044 759.021 659.044 758.616C659.044 758.211 658.943 757.755 658.74 757.248C658.639 756.64 658.436 756.083 658.132 755.576C657.828 754.968 657.372 754.461 656.764 754.056C656.257 753.651 655.548 753.448 654.636 753.448C653.724 753.448 653.015 753.701 652.508 754.208C652.103 754.613 651.799 755.171 651.596 755.88C651.393 756.488 651.241 757.147 651.14 757.856C651.14 758.464 651.14 759.021 651.14 759.528C651.241 759.933 651.292 760.136 651.292 760.136L648.404 760.592ZM717.308 755.272C726.732 755.272 734.737 758.616 741.324 765.304C748.012 771.992 751.356 780.099 751.356 789.624C751.356 799.149 748.012 807.256 741.324 813.944C734.737 820.632 726.732 823.976 717.308 823.976C707.985 823.976 699.98 820.632 693.292 813.944C686.705 807.256 683.412 799.149 683.412 789.624C683.412 780.099 686.705 771.992 693.292 765.304C699.98 758.616 707.985 755.272 717.308 755.272ZM706.212 805.736C707.225 805.837 708.137 805.736 708.948 805.432C709.758 805.027 710.417 804.621 710.924 804.216C711.532 803.811 711.988 803.456 712.292 803.152C712.697 802.747 712.9 802.544 712.9 802.544C710.366 801.328 708.188 800.669 706.364 800.568C706.364 797.832 706.009 795.197 705.3 792.664C704.489 789.827 703.172 787.648 701.348 786.128C699.828 784.811 698.004 784.355 695.876 784.76C694.052 785.064 692.633 785.925 691.62 787.344C690.606 788.864 690.201 790.536 690.404 792.36C690.809 794.184 691.721 795.603 693.14 796.616C694.558 797.629 696.23 798.035 698.156 797.832L697.7 795.552C696.484 795.755 695.42 795.501 694.508 794.792C693.494 794.184 692.886 793.221 692.684 791.904C692.481 790.688 692.734 789.624 693.444 788.712C694.052 787.699 694.964 787.091 696.18 786.888C697.7 786.685 698.966 786.989 699.98 787.8C701.398 789.016 702.462 790.84 703.172 793.272C703.78 795.603 704.084 798.085 704.084 800.72C703.07 800.821 702.209 801.024 701.5 801.328C700.79 801.632 700.233 801.936 699.828 802.24C699.524 802.544 699.372 802.696 699.372 802.696C699.372 802.696 699.676 802.949 700.284 803.456C700.892 803.861 701.702 804.317 702.716 804.824C703.83 805.331 704.996 805.635 706.212 805.736ZM713.052 813.488C713.862 812.272 714.369 811.259 714.572 810.448C714.774 809.536 714.825 808.827 714.724 808.32C714.622 807.712 714.521 807.256 714.42 806.952C714.318 806.749 714.268 806.597 714.268 806.496C712.14 807.205 710.518 808.269 709.404 809.688C708.289 811.107 707.529 812.576 707.124 814.096C706.82 815.515 706.668 816.781 706.668 817.896C706.668 818.909 706.668 819.416 706.668 819.416C706.668 819.416 707.326 818.96 708.644 818.048C709.961 817.136 711.43 815.616 713.052 813.488ZM706.82 784C706.82 788.661 707.732 792.664 709.556 796.008C711.481 799.251 714.065 800.872 717.308 800.872C720.652 800.872 723.236 799.251 725.06 796.008C726.985 792.664 727.948 788.661 727.948 784C727.948 779.339 726.985 775.387 725.06 772.144C723.236 768.8 720.652 767.128 717.308 767.128C714.065 767.128 711.481 768.8 709.556 772.144C707.732 775.387 706.82 779.339 706.82 784ZM728.1 819.416C728.1 819.416 728.1 818.909 728.1 817.896C728.1 816.781 727.897 815.515 727.492 814.096C727.086 812.576 726.326 811.107 725.212 809.688C724.198 808.269 722.628 807.205 720.5 806.496C720.5 806.597 720.449 806.749 720.348 806.952C720.246 807.256 720.094 807.712 719.892 808.32C719.79 808.827 719.841 809.536 720.044 810.448C720.348 811.259 720.905 812.272 721.716 813.488C723.337 815.616 724.806 817.136 726.124 818.048C727.441 818.96 728.1 819.416 728.1 819.416ZM741.628 796.616C743.046 795.603 743.908 794.184 744.212 792.36C744.516 790.536 744.161 788.864 743.148 787.344C742.134 785.925 740.716 785.064 738.892 784.76C736.662 784.355 734.838 784.811 733.42 786.128C731.596 787.648 730.278 789.827 729.468 792.664C728.758 795.197 728.404 797.832 728.404 800.568C726.58 800.669 724.401 801.328 721.868 802.544C721.868 802.544 722.02 802.747 722.324 803.152C722.628 803.456 723.084 803.811 723.692 804.216C724.3 804.621 725.009 805.027 725.82 805.432C726.63 805.736 727.542 805.837 728.556 805.736C729.772 805.635 730.886 805.331 731.9 804.824C733.014 804.317 733.876 803.861 734.484 803.456C735.092 802.949 735.396 802.696 735.396 802.696C735.396 802.696 735.193 802.544 734.788 802.24C734.484 801.936 733.977 801.632 733.268 801.328C732.558 801.024 731.697 800.821 730.684 800.72C730.684 798.085 730.988 795.603 731.596 793.272C732.305 790.84 733.369 789.016 734.788 787.8C735.801 786.989 737.017 786.685 738.436 786.888C739.753 787.091 740.716 787.699 741.324 788.712C742.033 789.624 742.286 790.688 742.084 791.904C741.881 793.221 741.273 794.184 740.26 794.792C739.348 795.501 738.284 795.755 737.068 795.552L736.612 797.68C738.537 797.984 740.209 797.629 741.628 796.616ZM714.42 782.024V786.128L711.228 789.32C709.91 787.699 709.252 785.976 709.252 784.152C709.252 782.227 709.91 780.453 711.228 778.832L714.42 782.024ZM719.436 781.112H715.332L712.14 777.92C713.761 776.704 715.484 776.096 717.308 776.096C719.233 776.096 721.006 776.704 722.628 777.92L719.436 781.112ZM720.348 786.128V782.024L723.54 778.832C724.756 780.453 725.364 782.227 725.364 784.152C725.364 785.976 724.756 787.699 723.54 789.32L720.348 786.128ZM715.332 787.04H719.436L722.628 790.232C721.006 791.549 719.233 792.208 717.308 792.208C715.484 792.208 713.761 791.549 712.14 790.232L715.332 787.04ZM854.656 788.256L875.176 802.088C873.048 808.573 869.451 813.843 864.384 817.896C859.318 821.949 853.39 823.976 846.6 823.976C840.723 823.976 835.707 822.507 831.552 819.568C827.499 816.528 824.358 812.576 822.128 807.712C820 802.848 818.784 797.528 818.48 791.752L816.96 757.096H816.808L802.672 739.312L815.896 736.576L814.984 715.296L842.952 717.272L842.04 730.952L848.728 729.432L855.872 744.024L840.672 749.192L838.392 784.304C838.291 785.824 838.342 787.851 838.544 790.384C838.747 792.816 839.406 795.045 840.52 797.072C841.635 798.997 843.358 800.011 845.688 800.112C849.64 800.112 852.63 796.16 854.656 788.256ZM828.36 725.632L826.992 729.28L828.36 732.928L829.728 736.728L830.944 732.928L832.312 729.28L830.944 725.632L829.728 721.832L828.36 725.632ZM814.68 745.696L821.976 752.536L821.672 738.4L814.68 745.696ZM829.88 793.272L831.4 789.624L830.184 785.976L829.12 782.176L827.6 785.976L826.08 789.624L827.296 793.272L828.36 796.92L829.88 793.272ZM831.856 776.704L834.44 774.12L832.008 771.688L829.728 769.256L826.992 771.688L824.408 774.12L826.84 776.704L829.272 779.136L831.856 776.704ZM826.992 759.376L828.36 763.024L829.728 766.672L830.944 763.024L832.312 759.376L830.944 755.728L829.728 751.928L828.36 755.728L826.992 759.376ZM832.16 746.456L834.592 744.024L832.16 741.592L829.728 739.008L827.144 741.592L824.712 744.024L827.144 746.456L829.728 749.04L832.16 746.456ZM838.088 733.384L837.784 747.52L845.08 740.528L838.088 733.384ZM846.144 816.984C847.056 816.984 847.816 816.68 848.424 816.072C849.134 815.363 849.488 814.552 849.488 813.64C849.488 812.728 849.134 811.968 848.424 811.36C847.816 810.651 847.056 810.296 846.144 810.296C845.232 810.296 844.422 810.651 843.712 811.36C843.104 811.968 842.8 812.728 842.8 813.64C842.8 814.552 843.104 815.363 843.712 816.072C844.422 816.68 845.232 816.984 846.144 816.984ZM857.848 807.256L866.968 806.04L856.48 798.136L857.848 807.256ZM857.088 776.248H854.2C854.2 776.248 854.15 776.096 854.048 775.792C854.048 775.387 853.998 774.88 853.896 774.272C853.795 773.664 853.542 773.107 853.136 772.6C852.832 771.992 852.376 771.485 851.768 771.08C851.262 770.675 850.552 770.472 849.64 770.472C848.83 770.472 848.171 770.725 847.664 771.232C847.158 771.637 846.803 772.195 846.6 772.904C846.398 773.512 846.246 774.171 846.144 774.88C846.144 775.589 846.144 776.147 846.144 776.552C846.246 776.957 846.296 777.211 846.296 777.312L843.408 777.616C843.408 777.616 843.358 777.312 843.256 776.704C843.256 775.995 843.256 775.133 843.256 774.12C843.358 773.107 843.611 772.093 844.016 771.08C844.422 770.067 845.08 769.256 845.992 768.648C846.904 767.939 848.12 767.584 849.64 767.584C851.16 767.584 852.376 767.888 853.288 768.496C854.302 769.003 855.062 769.712 855.568 770.624C856.075 771.536 856.43 772.448 856.632 773.36C856.936 774.171 857.088 774.88 857.088 775.488C857.088 775.995 857.088 776.248 857.088 776.248ZM845.232 760.592C845.131 760.491 845.03 760.136 844.928 759.528C844.928 758.819 844.979 757.957 845.08 756.944C845.182 755.931 845.435 754.968 845.84 754.056C846.246 753.043 846.904 752.181 847.816 751.472C848.728 750.763 849.944 750.408 851.464 750.408C852.984 750.408 854.2 750.712 855.112 751.32C856.126 751.928 856.886 752.688 857.392 753.6C857.899 754.411 858.254 755.272 858.456 756.184C858.76 756.995 858.912 757.704 858.912 758.312C858.912 758.92 858.912 759.224 858.912 759.224H855.872C855.872 759.224 855.872 759.021 855.872 758.616C855.872 758.211 855.771 757.755 855.568 757.248C855.467 756.64 855.264 756.083 854.96 755.576C854.656 754.968 854.2 754.461 853.592 754.056C853.086 753.651 852.376 753.448 851.464 753.448C850.552 753.448 849.843 753.701 849.336 754.208C848.931 754.613 848.627 755.171 848.424 755.88C848.222 756.488 848.07 757.147 847.968 757.856C847.968 758.464 847.968 759.021 847.968 759.528C848.07 759.933 848.12 760.136 848.12 760.136L845.232 760.592ZM950.312 778.376L953.048 819.872L924.472 822.152L928.88 771.232L909.272 766.672C909.373 767.888 909.474 769.104 909.576 770.32C910.893 787.547 912.464 804.824 914.288 822.152H884.8L884.952 720.16L904.712 717.272C906.13 730.547 907.397 743.821 908.512 757.096L930.248 759.376C936.733 760.085 941.597 762.112 944.84 765.456C948.184 768.8 950.008 773.107 950.312 778.376ZM894.984 735.208V741.592H898.176V735.208H894.984ZM896.504 748.736L893.008 752.384L896.504 755.88L900.152 752.384L896.504 748.736ZM898.176 808.168V801.784H894.984V808.168H898.176ZM896.504 794.64L900.152 790.992L896.504 787.496L893.008 790.992L896.504 794.64ZM899.088 775.944C900.202 774.323 901.469 772.904 902.888 771.688C901.469 770.472 900.202 769.053 899.088 767.432C897.973 765.912 897.061 764.24 896.352 762.416C894.832 766.165 892.754 769.256 890.12 771.688C892.754 774.12 894.832 777.211 896.352 780.96C897.061 779.136 897.973 777.464 899.088 775.944ZM922.04 773.968C922.952 773.968 923.712 774.272 924.32 774.88C925.029 775.488 925.384 776.248 925.384 777.16C925.384 778.477 924.928 779.795 924.016 781.112C923.104 782.429 922.04 783.747 920.824 785.064V812.88H916.568V785.064C915.25 783.747 914.136 782.429 913.224 781.112C912.413 779.795 912.008 778.477 912.008 777.16C912.008 776.248 912.312 775.488 912.92 774.88C913.629 774.272 914.44 773.968 915.352 773.968C916.973 773.968 918.088 774.779 918.696 776.4C919.202 774.779 920.317 773.968 922.04 773.968ZM910.488 726.392C909.576 726.392 908.765 726.088 908.056 725.48C907.448 724.771 907.144 724.011 907.144 723.2C907.144 722.288 907.448 721.528 908.056 720.92C908.765 720.312 909.576 720.008 910.488 720.008C911.298 720.008 912.008 720.312 912.616 720.92C913.325 721.528 913.68 722.288 913.68 723.2C913.68 724.011 913.325 724.771 912.616 725.48C912.008 726.088 911.298 726.392 910.488 726.392ZM910.792 750.712C910.792 749.8 911.096 749.04 911.704 748.432C912.312 747.824 913.072 747.52 913.984 747.52C914.794 747.52 915.504 747.824 916.112 748.432C916.821 749.04 917.176 749.8 917.176 750.712C917.176 751.523 916.821 752.283 916.112 752.992C915.504 753.6 914.794 753.904 913.984 753.904C913.072 753.904 912.312 753.6 911.704 752.992C911.096 752.283 910.792 751.523 910.792 750.712ZM909.272 737.032C909.272 736.12 909.576 735.36 910.184 734.752C910.792 734.144 911.552 733.84 912.464 733.84C913.376 733.84 914.136 734.144 914.744 734.752C915.352 735.36 915.656 736.12 915.656 737.032C915.656 737.843 915.352 738.603 914.744 739.312C914.136 739.92 913.376 740.224 912.464 740.224C911.552 740.224 910.792 739.92 910.184 739.312C909.576 738.603 909.272 737.843 909.272 737.032ZM929.944 749.952C930.856 749.952 931.616 750.256 932.224 750.864C932.832 751.472 933.136 752.232 933.136 753.144C933.136 754.056 932.832 754.816 932.224 755.424C931.616 756.032 930.856 756.336 929.944 756.336C929.032 756.336 928.272 756.032 927.664 755.424C927.056 754.816 926.752 754.056 926.752 753.144C926.752 752.232 927.056 751.472 927.664 750.864C928.272 750.256 929.032 749.952 929.944 749.952ZM929.792 747.672C928.17 744.024 926.093 740.984 923.56 738.552C926.093 736.019 928.17 732.928 929.792 729.28C930.501 731.003 931.362 732.675 932.376 734.296C933.592 735.917 934.909 737.336 936.328 738.552C934.909 739.667 933.592 741.085 932.376 742.808C931.362 744.328 930.501 745.949 929.792 747.672ZM1030.69 761.048L1019.74 802.848L996.03 798.288L997.246 808.776L1017.46 813.488L1015.03 823.976L976.574 816.376L962.742 761.504L989.798 757.096H1010.93L1030.69 761.048ZM977.79 785.52L979.006 787.496L981.286 787.8L985.086 781.416L983.87 779.44L981.59 779.136L977.79 785.52ZM987.974 804.52L988.582 802.544L982.654 796.16L980.526 796.464L979.918 798.44L985.846 804.824L987.974 804.52ZM989.798 797.072L993.294 792.816L988.278 788.56L984.782 792.816L989.798 797.072ZM1006.21 786.888L1009.25 767.888H991.622L994.51 786.432L1006.21 786.888ZM1156.43 755.272V829.904C1156.23 838.821 1153.34 846.421 1147.77 852.704C1142.19 858.987 1135 862.128 1126.18 862.128C1119.39 862.128 1113.21 860.101 1107.64 856.048C1102.17 851.995 1098.37 846.725 1096.24 840.24L1118.73 826.408C1119.75 830.664 1121.22 833.755 1123.14 835.68C1125.17 837.707 1127.25 838.568 1129.37 838.264C1131.4 837.96 1132.97 836.491 1134.09 833.856C1135.3 831.221 1135.66 827.421 1135.15 822.456V822.152H1118.58C1113.62 822.152 1108.85 821.037 1104.29 818.808C1099.84 816.579 1096.19 813.437 1093.35 809.384C1090.51 805.229 1089.09 800.365 1089.09 794.792C1089.09 786.381 1092.29 778.528 1098.67 771.232C1105.16 763.835 1114.63 759.123 1127.09 757.096L1156.43 755.272ZM1113.11 814.4C1113.82 814.4 1114.38 814.197 1114.78 813.792C1115.29 813.285 1115.54 812.677 1115.54 811.968C1115.54 811.36 1115.29 810.803 1114.78 810.296C1114.38 809.789 1113.82 809.536 1113.11 809.536C1112.5 809.536 1111.95 809.789 1111.44 810.296C1111.03 810.803 1110.83 811.36 1110.83 811.968C1110.83 812.677 1111.03 813.285 1111.44 813.792C1111.95 814.197 1112.5 814.4 1113.11 814.4ZM1115.39 804.824L1120.86 810.296L1126.33 804.824L1120.86 799.352L1115.39 804.824ZM1128.46 814.4C1129.17 814.4 1129.73 814.197 1130.13 813.792C1130.64 813.285 1130.89 812.677 1130.89 811.968C1130.89 811.36 1130.64 810.803 1130.13 810.296C1129.73 809.789 1129.17 809.536 1128.46 809.536C1127.85 809.536 1127.3 809.789 1126.79 810.296C1126.39 810.803 1126.18 811.36 1126.18 811.968C1126.18 812.677 1126.39 813.285 1126.79 813.792C1127.3 814.197 1127.85 814.4 1128.46 814.4ZM1110.83 793.728L1132.72 798.44L1129.98 776.096L1112.81 777.312L1110.83 793.728ZM1138.34 775.64V779.136H1148.98V775.64H1138.34ZM1144.42 825.8L1147.92 822.152L1144.12 818.656L1140.77 822.152L1144.42 825.8ZM1148.98 813.032V809.536H1138.34V813.032H1148.98ZM1148.98 801.784C1148.98 800.568 1148.98 799.403 1148.98 798.288C1145.44 798.288 1141.89 798.288 1138.34 798.288C1138.34 799.403 1138.34 800.568 1138.34 801.784C1141.89 801.784 1145.44 801.784 1148.98 801.784ZM1148.98 790.536C1148.98 789.32 1148.98 788.155 1148.98 787.04C1145.44 787.04 1141.89 787.04 1138.34 787.04C1138.34 788.155 1138.34 789.32 1138.34 790.536C1141.89 790.536 1145.44 790.536 1148.98 790.536ZM1121.77 784C1122.69 784 1123.45 784.355 1124.05 785.064C1124.66 785.672 1124.97 786.432 1124.97 787.344C1124.97 788.155 1124.66 788.915 1124.05 789.624C1123.45 790.232 1122.69 790.536 1121.77 790.536C1120.86 790.536 1120.1 790.232 1119.49 789.624C1118.89 788.915 1118.58 788.155 1118.58 787.344C1118.58 786.432 1118.89 785.672 1119.49 785.064C1120.1 784.355 1120.86 784 1121.77 784ZM1205.82 755.272C1215.24 755.272 1223.24 758.616 1229.83 765.304C1236.52 771.992 1239.86 780.099 1239.86 789.624C1239.86 799.149 1236.52 807.256 1229.83 813.944C1223.24 820.632 1215.24 823.976 1205.82 823.976C1196.49 823.976 1188.49 820.632 1181.8 813.944C1175.21 807.256 1171.92 799.149 1171.92 789.624C1171.92 780.099 1175.21 771.992 1181.8 765.304C1188.49 758.616 1196.49 755.272 1205.82 755.272ZM1194.72 805.736C1195.73 805.837 1196.64 805.736 1197.46 805.432C1198.27 805.027 1198.92 804.621 1199.43 804.216C1200.04 803.811 1200.5 803.456 1200.8 803.152C1201.2 802.747 1201.41 802.544 1201.41 802.544C1198.87 801.328 1196.7 800.669 1194.87 800.568C1194.87 797.832 1194.52 795.197 1193.81 792.664C1193 789.827 1191.68 787.648 1189.86 786.128C1188.34 784.811 1186.51 784.355 1184.38 784.76C1182.56 785.064 1181.14 785.925 1180.13 787.344C1179.11 788.864 1178.71 790.536 1178.91 792.36C1179.32 794.184 1180.23 795.603 1181.65 796.616C1183.07 797.629 1184.74 798.035 1186.66 797.832L1186.21 795.552C1184.99 795.755 1183.93 795.501 1183.02 794.792C1182 794.184 1181.39 793.221 1181.19 791.904C1180.99 790.688 1181.24 789.624 1181.95 788.712C1182.56 787.699 1183.47 787.091 1184.69 786.888C1186.21 786.685 1187.47 786.989 1188.49 787.8C1189.91 789.016 1190.97 790.84 1191.68 793.272C1192.29 795.603 1192.59 798.085 1192.59 800.72C1191.58 800.821 1190.72 801.024 1190.01 801.328C1189.3 801.632 1188.74 801.936 1188.34 802.24C1188.03 802.544 1187.88 802.696 1187.88 802.696C1187.88 802.696 1188.18 802.949 1188.79 803.456C1189.4 803.861 1190.21 804.317 1191.22 804.824C1192.34 805.331 1193.5 805.635 1194.72 805.736ZM1201.56 813.488C1202.37 812.272 1202.88 811.259 1203.08 810.448C1203.28 809.536 1203.33 808.827 1203.23 808.32C1203.13 807.712 1203.03 807.256 1202.93 806.952C1202.83 806.749 1202.78 806.597 1202.78 806.496C1200.65 807.205 1199.03 808.269 1197.91 809.688C1196.8 811.107 1196.04 812.576 1195.63 814.096C1195.33 815.515 1195.18 816.781 1195.18 817.896C1195.18 818.909 1195.18 819.416 1195.18 819.416C1195.18 819.416 1195.83 818.96 1197.15 818.048C1198.47 817.136 1199.94 815.616 1201.56 813.488ZM1195.33 784C1195.33 788.661 1196.24 792.664 1198.06 796.008C1199.99 799.251 1202.57 800.872 1205.82 800.872C1209.16 800.872 1211.74 799.251 1213.57 796.008C1215.49 792.664 1216.46 788.661 1216.46 784C1216.46 779.339 1215.49 775.387 1213.57 772.144C1211.74 768.8 1209.16 767.128 1205.82 767.128C1202.57 767.128 1199.99 768.8 1198.06 772.144C1196.24 775.387 1195.33 779.339 1195.33 784ZM1216.61 819.416C1216.61 819.416 1216.61 818.909 1216.61 817.896C1216.61 816.781 1216.4 815.515 1216 814.096C1215.59 812.576 1214.83 811.107 1213.72 809.688C1212.71 808.269 1211.14 807.205 1209.01 806.496C1209.01 806.597 1208.96 806.749 1208.86 806.952C1208.75 807.256 1208.6 807.712 1208.4 808.32C1208.3 808.827 1208.35 809.536 1208.55 810.448C1208.86 811.259 1209.41 812.272 1210.22 813.488C1211.84 815.616 1213.31 817.136 1214.63 818.048C1215.95 818.96 1216.61 819.416 1216.61 819.416ZM1230.14 796.616C1231.55 795.603 1232.42 794.184 1232.72 792.36C1233.02 790.536 1232.67 788.864 1231.66 787.344C1230.64 785.925 1229.22 785.064 1227.4 784.76C1225.17 784.355 1223.35 784.811 1221.93 786.128C1220.1 787.648 1218.79 789.827 1217.98 792.664C1217.27 795.197 1216.91 797.832 1216.91 800.568C1215.09 800.669 1212.91 801.328 1210.38 802.544C1210.38 802.544 1210.53 802.747 1210.83 803.152C1211.14 803.456 1211.59 803.811 1212.2 804.216C1212.81 804.621 1213.52 805.027 1214.33 805.432C1215.14 805.736 1216.05 805.837 1217.06 805.736C1218.28 805.635 1219.39 805.331 1220.41 804.824C1221.52 804.317 1222.38 803.861 1222.99 803.456C1223.6 802.949 1223.9 802.696 1223.9 802.696C1223.9 802.696 1223.7 802.544 1223.3 802.24C1222.99 801.936 1222.48 801.632 1221.78 801.328C1221.07 801.024 1220.2 800.821 1219.19 800.72C1219.19 798.085 1219.5 795.603 1220.1 793.272C1220.81 790.84 1221.88 789.016 1223.3 787.8C1224.31 786.989 1225.52 786.685 1226.94 786.888C1228.26 787.091 1229.22 787.699 1229.83 788.712C1230.54 789.624 1230.79 790.688 1230.59 791.904C1230.39 793.221 1229.78 794.184 1228.77 794.792C1227.86 795.501 1226.79 795.755 1225.58 795.552L1225.12 797.68C1227.04 797.984 1228.72 797.629 1230.14 796.616ZM1202.93 782.024V786.128L1199.74 789.32C1198.42 787.699 1197.76 785.976 1197.76 784.152C1197.76 782.227 1198.42 780.453 1199.74 778.832L1202.93 782.024ZM1207.94 781.112H1203.84L1200.65 777.92C1202.27 776.704 1203.99 776.096 1205.82 776.096C1207.74 776.096 1209.51 776.704 1211.14 777.92L1207.94 781.112ZM1208.86 786.128V782.024L1212.05 778.832C1213.26 780.453 1213.87 782.227 1213.87 784.152C1213.87 785.976 1213.26 787.699 1212.05 789.32L1208.86 786.128ZM1203.84 787.04H1207.94L1211.14 790.232C1209.51 791.549 1207.74 792.208 1205.82 792.208C1203.99 792.208 1202.27 791.549 1200.65 790.232L1203.84 787.04ZM1298.19 717.272L1317.95 720.16L1315.97 822.152H1286.48C1273.11 818.403 1263.53 813.387 1257.76 807.104C1251.98 800.72 1249.19 794.133 1249.4 787.344C1249.4 779.136 1253.1 772.144 1260.49 766.368C1267.89 760.491 1278.99 757.4 1293.78 757.096L1298.19 717.272ZM1290.13 788.864L1292.72 766.368L1270.37 771.232L1272.35 787.496L1290.13 788.864ZM1304.88 739.16L1304.42 745.544H1307.61L1308.07 739.16H1304.88ZM1305.64 752.84L1301.84 756.488L1305.18 759.984L1308.98 756.488L1305.64 752.84ZM1304.27 800.112L1304.57 793.728H1301.38L1300.92 800.112H1304.27ZM1303.51 786.432L1307.31 782.936L1303.96 779.288L1300.16 782.936L1303.51 786.432ZM1306.7 773.968C1307.92 772.245 1309.34 770.827 1310.96 769.712C1309.54 768.496 1308.32 767.077 1307.31 765.456C1306.3 763.835 1305.48 762.163 1304.88 760.44C1303.05 764.189 1300.82 767.28 1298.19 769.712C1300.52 772.144 1302.39 775.184 1303.81 778.832C1304.62 777.109 1305.59 775.488 1306.7 773.968ZM1281.16 784.456L1279.04 782.024L1276.91 779.744L1279.04 777.312L1281.16 774.88L1283.29 777.312L1285.42 779.744L1283.29 782.024L1281.16 784.456ZM1376.02 800.72C1378.55 803.051 1379.71 805.837 1379.51 809.08C1379.31 812.323 1377.79 815.109 1374.95 817.44C1372.92 819.264 1370.9 820.683 1368.87 821.696C1366.95 822.709 1364.26 823.368 1360.82 823.672C1356.05 824.179 1352.15 823.976 1349.11 823.064C1346.07 822.253 1343.18 820.733 1340.45 818.504L1329.5 809.992L1339.08 798.44L1356.71 811.816C1357.32 812.221 1357.93 812.323 1358.54 812.12C1359.24 811.816 1359.7 811.36 1359.9 810.752C1360.21 810.144 1360.06 809.536 1359.45 808.928L1342.12 794.944C1337.96 791.701 1335.28 788.509 1334.06 785.368C1332.95 782.125 1333.61 778.275 1336.04 773.816C1338.57 769.256 1342.02 765.152 1346.38 761.504C1350.23 758.261 1353.98 756.285 1357.62 755.576C1361.27 754.867 1365.63 755.171 1370.7 756.488L1389.24 765.76L1372.22 785.824L1361.73 777.92C1359.3 776.197 1357.32 775.589 1355.8 776.096C1354.28 776.603 1353.42 777.667 1353.22 779.288C1353.11 780.808 1353.87 782.328 1355.5 783.848L1376.02 800.72ZM1371 779.136C1372.01 776.096 1371.51 772.853 1369.48 769.408L1367.05 770.928C1368.57 773.664 1368.97 776.096 1368.26 778.224L1371 779.136ZM1373.74 763.936L1372.67 766.672C1374.09 767.381 1375.61 767.888 1377.23 768.192C1378.85 768.496 1380.42 768.496 1381.94 768.192L1381.34 765.456C1380.12 765.659 1378.95 765.608 1377.84 765.304C1376.52 765.101 1375.15 764.645 1373.74 763.936ZM1366.44 763.328L1365.98 766.216C1366.79 766.419 1367.76 767.027 1368.87 768.04C1370.09 768.952 1371.25 770.016 1372.37 771.232C1373.58 772.448 1374.6 773.563 1375.41 774.576C1376.22 775.488 1376.62 775.995 1376.62 776.096L1378.9 774.272C1378.8 774.171 1378.3 773.613 1377.38 772.6C1376.57 771.587 1375.51 770.421 1374.19 769.104C1372.87 767.685 1371.51 766.469 1370.09 765.456C1368.77 764.341 1367.55 763.632 1366.44 763.328ZM1343.79 812.424V807.56H1338.93V812.424H1343.79ZM1349.72 767.888C1349.72 768.597 1349.97 769.205 1350.48 769.712C1351.09 770.219 1351.75 770.472 1352.46 770.472C1353.16 770.472 1353.77 770.219 1354.28 769.712C1354.79 769.205 1355.04 768.597 1355.04 767.888C1355.04 767.179 1354.79 766.571 1354.28 766.064C1353.77 765.557 1353.16 765.304 1352.46 765.304C1351.75 765.304 1351.09 765.557 1350.48 766.064C1349.97 766.571 1349.72 767.179 1349.72 767.888ZM1353.22 795.704L1361.12 795.552L1353.06 787.952L1353.22 795.704ZM1362.94 804.824L1370.7 804.672L1362.64 797.072L1362.94 804.824Z" fill="#DF229D"/>
<g opacity="0.1">
<path d="M1389.02 458.588C1397.92 468.541 1406.68 477.307 1414.22 487.006C1468.22 556.505 1465.76 652.346 1408.21 719.049C1403.8 724.131 1402.7 728.409 1403.68 735.142C1412.87 798.796 1421.46 862.535 1430.31 926.232C1431.67 936.099 1433.53 945.883 1435.1 955.708C1440.1 986.328 1421.46 1012.97 1391.31 1018.43C1362.56 1023.64 1334.86 1004.37 1330.2 974.004C1322.62 924.495 1316.31 874.775 1309.45 825.139C1307.42 810.401 1305.17 795.662 1302.89 779.95C1290.44 780.839 1278.49 781.729 1264.94 782.703C1266.89 798.246 1268.67 813.577 1270.79 828.866C1278.28 883.076 1285.86 937.243 1293.44 991.453C1294.16 996.747 1294.16 1002.25 1295.81 1007.21C1301.62 1024.57 1294.5 1038.25 1284.59 1051.59C1255.46 1090.85 1216.12 1116.26 1171.95 1134.98C1110.67 1160.94 1046 1172.76 980.023 1175.26C935.345 1176.95 890.244 1177.16 845.821 1173.01C756.762 1164.75 672.658 1140.06 601.132 1083.31C584.573 1070.14 570.641 1053.67 555.607 1038.59C549.17 1032.11 547.688 1024.57 549.043 1015.3C559.207 945.713 568.904 876.045 578.687 806.377C579.703 799.008 580.084 791.597 580.889 782.999C570.006 782.11 559.545 780.585 549.085 780.839C546.544 780.882 542.479 786.43 541.971 789.86C536.593 825.69 531.807 861.646 526.81 897.56C523.422 921.827 519.653 946.094 516.647 970.404C512.878 1000.85 486.283 1023 457.443 1019.02C426.36 1014.75 406.202 987.048 410.775 956.132C420.854 887.565 429.79 818.829 440.673 750.389C443.426 733.025 439.488 720.997 429.112 707.148C372.577 632.017 383.757 526.35 453.717 463.586C454.987 462.442 456.851 461.892 459.349 460.579C411.495 440.674 391.211 407.385 394.768 357.411C395.699 344.367 397.012 331.365 398.156 318.109C372.238 309.257 348.65 297.314 329.424 277.96C293.767 242.046 294.021 194.866 332.346 162.002C348.269 148.365 367.411 137.777 386.51 128.883C397.097 123.97 398.749 119.354 397.097 109.317C393.116 85.2189 392.947 60.9939 400.993 37.616C417.424 -10.0293 458.333 -29.5532 505.551 -11.4692C523.211 -4.69299 539.599 5.34425 555.946 13.6028C519.526 -44.3338 520.161 -107.861 534.475 -175.623C598.294 -156.777 652.416 -127.47 687.057 -69.7023C688.031 -69.9564 689.089 -69.914 689.259 -70.2952C706.537 -106.336 738.256 -117.856 774.93 -119.719C788.65 -120.397 802.668 -119.042 816.304 -116.966C823.969 -115.823 826.171 -117.898 829.474 -124.505C838.494 -142.504 846.964 -161.393 859.33 -177.021C895.792 -223.014 949.49 -223.438 986.375 -177.741C1000.86 -159.784 1010.85 -138.142 1023.85 -116.628C1074.08 -123.107 1126.25 -126.241 1158.52 -68.7706C1162.54 -74.7421 1166.53 -81.1371 1171.01 -87.1934C1204.34 -132.043 1251.05 -156.395 1302.76 -173.167C1310.13 -175.538 1313.01 -172.235 1314.32 -165.416C1326.05 -103.329 1325.63 -42.8939 1290.48 12.8828C1290.18 13.3487 1290.39 14.0687 1290.39 13.7298C1306.32 5.55605 1321.99 -4.31183 1338.97 -10.8339C1391.14 -30.9932 1434.8 -7.06467 1447.85 47.0603C1453.14 68.956 1453.35 90.9363 1448.73 112.663C1446.7 122.276 1449.88 124.775 1457.76 127.697C1482.7 136.972 1505.44 149.932 1522.89 170.684C1551.22 204.396 1549.52 244.883 1518.65 276.308C1501.08 294.18 1480.2 306.801 1456.65 314.763C1448.35 317.558 1447.17 320.777 1448.73 329.29C1454.58 360.291 1453.39 390.995 1438.99 419.921C1428.79 440.504 1412.02 453.252 1389.07 458.588H1389.02ZM551.118 521.438C592.535 640.741 643.692 754.666 717.463 857.03C724.958 846.908 730.633 837.336 738.129 829.459C761.717 804.81 792.673 793.884 824.816 786.388C879.107 773.682 934.117 771.988 989.128 780.416C1010.13 783.635 1031.1 788.632 1051.21 795.366C1083.82 806.293 1112.28 823.699 1127.52 858.215C1166.02 806.377 1197.61 752.379 1223.61 695.417C1249.7 638.285 1273.07 579.967 1297.76 521.946C1331.9 530.586 1356.54 568.998 1352.14 609.105C1349.94 628.968 1341.38 645.866 1326.86 659.545C1305.3 679.874 1279.13 684.49 1249.4 679.959C1251.22 694.316 1253.42 707.233 1254.36 720.192C1254.99 728.832 1258.55 731.373 1266.93 731.585C1320.25 733.11 1369.76 701.812 1391.65 652.176C1413.16 603.43 1402.11 544.434 1364.84 506.699C1349.34 490.987 1330.92 480.145 1309.96 472.606C1315.17 452.617 1320.33 433.474 1325.2 414.204C1340.45 353.684 1352.35 292.656 1347.99 229.806C1344.9 185.253 1329.69 145.146 1299.25 111.773C1261.98 70.9465 1214.12 48.4579 1161.95 33.8467C1094.32 14.9157 1024.83 8.43591 955.122 8.01239C896.215 7.67358 837.139 10.977 778.402 16.1439C727.033 20.6755 676.766 32.195 629.166 53.7095C537.736 95.0444 492.55 166.491 497.251 266.059C499.919 323.106 510.464 378.968 526.048 433.855C529.69 446.688 532.824 459.647 536.127 472.395C455.834 501.914 428.901 580.009 451.261 643.367C476.161 714.009 548.238 738.996 590.036 729.256C591.264 721.336 592.662 713.289 593.763 705.2C594.906 696.984 595.796 688.768 596.854 680.043C534.518 689.234 502.163 651.456 494.964 615.712C486.494 573.826 511.903 531.263 551.16 521.395L551.118 521.438ZM780.519 1141.59C820.412 1100 866.656 1077.89 922.005 1077.55C977.355 1077.21 1023.77 1098.94 1063.15 1138.75C1065.86 1087 1002.3 1027.24 935.938 1020.72C861.998 1013.43 794.791 1064.21 780.519 1141.63V1141.59ZM774.464 884.304C778.444 890.995 780.138 896.501 783.865 899.593C794.706 908.614 805.336 918.693 817.828 924.749C874.067 951.939 932.931 953.294 992.6 938.471C1018.05 932.161 1041.81 921.7 1060.27 902.134C1064.51 897.645 1067.22 891.673 1072.13 884.092C971.384 894.341 874.279 894.002 774.464 884.261V884.304ZM1068.74 880.746L1070.44 877.824C1065.78 873.377 1061.88 867.448 1056.38 864.822C1041.72 857.834 1026.82 850.677 1011.23 846.399C968.885 834.88 925.436 834.16 882.029 838.141C850.775 840.978 819.904 846.526 792.377 863.043C786.152 866.77 781.239 872.657 775.692 877.57L777.555 880.746C874.618 870.455 971.68 870.455 1068.74 880.746ZM1245.97 947.619C1246.14 930.678 1232.76 916.957 1215.99 916.914C1199.51 916.872 1186.17 929.874 1185.79 946.306C1185.41 963.797 1199.01 977.773 1216.28 977.604C1232.55 977.434 1245.8 964.051 1245.97 947.619ZM630.183 977.604C646.826 977.604 660.716 963.713 660.631 947.111C660.546 930.34 646.783 916.745 629.971 916.872C613.667 916.999 600.496 930.297 600.285 946.772C600.073 963.755 613.497 977.561 630.183 977.561V977.604ZM922.641 1089.11C916.881 1117.7 903.076 1137.1 881.52 1151.37C904.473 1167.34 942.417 1167.42 964.862 1151.5C942.29 1137.73 929.035 1117.49 922.641 1089.11ZM1414.52 962.442C1393 965.618 1372.25 968.668 1351.5 971.717C1354.04 989.716 1369.76 1000.9 1387.16 998.314C1405.54 995.603 1417.23 980.865 1414.56 962.442H1414.52ZM431.823 963.289C429.324 981.839 442.367 997.212 461.424 998.822C478.279 1000.26 493.948 987.429 494.117 971.632C474.298 968.668 454.437 965.661 434.575 962.696C433.94 962.611 433.22 962.993 431.823 963.289ZM707.68 998.187C708.104 985.735 698.66 975.486 686.252 975.02C674.098 974.554 663.638 984.507 663.341 996.831C663.087 1008.65 672.489 1018.77 684.346 1019.36C696.754 1019.96 707.257 1010.43 707.68 998.187ZM1182.74 997.212C1182.74 984.761 1172.79 974.809 1160.47 974.978C1148.36 975.147 1139.17 984.422 1138.96 996.704C1138.74 1009.58 1147.89 1019.24 1160.51 1019.36C1173 1019.49 1182.74 1009.79 1182.74 997.17V997.212ZM727.626 1022.45C719.284 1022.45 712.677 1028.85 712.466 1037.11C712.211 1045.54 719.453 1052.9 727.796 1052.82C735.927 1052.73 742.787 1046 742.999 1038C743.253 1029.44 736.265 1022.41 727.626 1022.45ZM1118.38 1022.45C1110.24 1022.54 1103.47 1029.15 1103.26 1037.19C1103.04 1045.54 1110.33 1052.9 1118.76 1052.86C1127.18 1052.86 1133.32 1046.59 1133.45 1037.95C1133.58 1028.64 1127.48 1022.37 1118.38 1022.45ZM1098.85 1068.45C1092.08 1063.62 1088.52 1059.21 1084.37 1058.54C1077.93 1057.52 1072.85 1062.56 1074.21 1068.74C1075.05 1072.64 1080.56 1077.68 1084.41 1078.06C1087.93 1078.44 1092.03 1073.28 1098.89 1068.41L1098.85 1068.45ZM776.835 1068.96C770.186 1063.83 766.799 1059.34 762.775 1058.58C756.381 1057.35 751.214 1061.93 752.57 1068.41C753.417 1072.34 758.414 1077.55 762.098 1078.06C765.57 1078.57 769.763 1073.61 776.835 1068.91V1068.96Z" fill="white"/>
<path d="M921.963 190.377C935.218 173.987 946.483 156.835 960.839 142.944C1017.63 88.0141 1085.47 70.9888 1160.43 94.3244C1233.35 116.982 1278.24 168.482 1296.37 242.851C1298.91 253.269 1293.1 262.84 1283.45 265.254C1273.75 267.711 1264.31 262.332 1261.68 251.49C1256.52 230.188 1249.06 209.817 1236.1 192.156C1195.96 137.48 1141.71 112.197 1074.63 123.123C1011.32 133.415 968.631 171.658 945.678 231.712C943.561 237.26 943.434 241.961 947.753 247.34C991.796 301.973 1019.96 364.187 1029.27 433.643C1045.83 557.479 1012.46 666.576 927.892 759.325C926.706 760.596 925.308 761.654 922.641 764.111C915.187 755.768 907.649 747.975 900.873 739.505C847.98 673.437 818.082 598.559 813.551 513.645C808.3 414.966 836.546 327.045 896.935 249.246C901.255 243.698 902.694 239.081 900.408 231.966C867.757 131.085 742.533 88.3105 654.744 148.238C619.129 172.547 595.753 205.285 585.928 247.425C583.726 256.827 579.661 264.196 569.201 265.593C556.539 267.287 547.222 256.191 550.144 242.851C561.663 189.954 589.867 147.899 635.053 118.422C733.682 54.0906 858.398 84.0754 918.787 185.803C919.846 187.624 921.201 189.276 922.005 190.462L921.963 190.377ZM935.345 271.226C929.416 267.414 925.944 263.476 922.598 263.56C919.93 263.645 914.848 269.235 915.399 271.268C916.246 274.572 920.438 278.637 923.784 279.188C926.367 279.654 929.797 275.292 935.387 271.226H935.345ZM881.393 632.229C877.201 638.751 873.22 642.224 873.432 645.4C873.643 648.195 878.513 652.642 881.393 652.727C884.103 652.811 889.016 648.238 889.185 645.442C889.397 642.266 885.501 638.793 881.351 632.271L881.393 632.229ZM964.777 657.004C968.673 651.414 972.866 647.941 972.4 645.4C971.765 642.097 967.657 637.946 964.438 637.269C962.321 636.845 956.858 641.885 956.858 644.511C956.858 647.814 960.839 651.16 964.82 657.004H964.777ZM1181.22 133.203C1185.16 127.994 1189.56 124.606 1189.14 122.065C1188.59 118.761 1184.14 116.093 1181.39 113.171C1178.64 116.093 1174.27 118.676 1173.72 121.98C1173.26 124.563 1177.54 127.951 1181.26 133.203H1181.22ZM677.232 120.794C670.964 117.194 667.407 113.467 664.061 113.679C661.393 113.848 656.523 119.651 657.116 121.429C658.217 124.775 662.367 128.671 665.713 129.137C668.296 129.518 671.599 125.071 677.232 120.752V120.794ZM846.329 479.256C842.687 485.566 838.918 489.251 839.172 492.596C839.384 495.307 844.423 497.636 847.345 500.135C849.971 497.043 854.248 494.121 854.714 490.733C855.052 488.107 850.648 484.846 846.329 479.213V479.256ZM1002.47 569.506C996.623 565.949 993.151 562.137 990.271 562.518C987.307 562.942 984.893 567.431 982.225 570.142C985.189 572.979 987.857 577.426 991.287 578.061C993.701 578.527 997.089 573.869 1002.47 569.506ZM868.35 570.353C861.871 566.245 858.44 562.391 855.222 562.561C852.469 562.73 847.853 567.516 847.896 570.184C847.938 573.064 852.3 577.892 855.095 578.104C858.271 578.358 861.786 574.461 868.392 570.353H868.35ZM923.36 700.203C919.38 705.285 914.933 708.546 915.314 711.087C915.822 714.475 920.1 717.27 922.768 720.32C925.69 717.44 930.221 714.941 930.983 711.595C931.534 709.096 927.129 705.539 923.36 700.203ZM600.92 160.562C597.108 167.169 593.339 170.811 593.636 174.072C593.89 176.825 598.929 181.145 601.767 181.06C604.477 181.018 609.178 176.19 609.178 173.437C609.178 170.133 605.197 166.788 600.92 160.562ZM1034.19 121.302C1028.05 117.109 1024.74 113.128 1021.48 113.128C1018.73 113.128 1015.98 117.829 1013.22 120.455C1016.06 123.293 1018.56 127.74 1021.91 128.502C1024.49 129.095 1028.09 125.114 1034.23 121.302H1034.19ZM998.19 504.455C1002.68 498.568 1007 495.307 1006.62 492.766C1006.15 489.293 1002.04 486.328 999.503 483.152C996.623 485.693 991.838 487.98 991.457 490.818C991.033 494.036 994.633 497.763 998.148 504.455H998.19ZM856.196 400.567C851.919 406.75 847.938 410.054 847.938 413.399C847.938 416.025 852.681 420.641 855.476 420.769C858.186 420.896 863.226 416.576 863.395 413.95C863.607 410.647 859.965 407.089 856.238 400.609L856.196 400.567ZM744.565 115.077C748.589 109.274 752.781 105.802 752.315 103.218C751.68 99.8725 747.318 97.2043 744.565 94.2821C741.77 96.9079 736.858 99.4913 736.773 102.202C736.646 105.463 740.627 108.936 744.565 115.034V115.077ZM567.549 235.736C563.314 241.284 558.825 244.672 559.249 247.213C559.842 250.601 564.204 253.354 566.956 256.403C569.751 253.82 574.664 251.363 574.833 248.568C575.087 245.349 571.191 241.792 567.507 235.736H567.549ZM881.647 351.143C885.586 344.663 889.355 341.148 889.143 337.887C888.974 335.219 883.976 330.814 881.224 330.899C878.344 331.026 873.516 335.515 873.432 338.183C873.347 341.444 877.37 344.833 881.605 351.101L881.647 351.143ZM1244.78 185.168C1248.6 179.874 1252.92 176.444 1252.45 173.945C1251.77 170.514 1247.45 167.846 1244.7 164.839C1241.91 167.846 1237.54 170.557 1236.91 173.987C1236.44 176.486 1240.85 179.916 1244.78 185.21V185.168ZM969.944 172.886C964.438 168.736 961.051 164.289 958.51 164.712C955.122 165.305 950.718 169.329 949.998 172.59C949.532 174.834 954.444 180.467 957.154 180.636C960.415 180.806 963.93 176.782 969.944 172.886ZM900.45 171.997C894.733 168.27 891.049 164.119 888.592 164.755C885.332 165.559 881.266 169.922 880.885 173.14C880.589 175.512 885.755 180.764 888.338 180.679C891.641 180.552 894.818 176.317 900.45 171.997ZM823.757 108.343C820.2 114.95 816.642 118.634 816.981 121.853C817.278 124.521 822.402 128.714 825.112 128.502C827.907 128.29 832.523 123.547 832.481 120.879C832.396 117.618 828.288 114.441 823.757 108.343ZM1113.21 102.498C1107.83 98.6443 1104.32 94.2821 1101.94 94.8326C1098.51 95.6373 1095.93 100.042 1093.01 102.879C1096.06 105.632 1098.81 109.91 1102.24 110.587C1104.65 111.053 1108 106.522 1113.21 102.498ZM1002.47 412.976C996.75 409.037 992.981 404.59 990.694 405.268C987.349 406.242 985.062 410.858 982.309 413.95C985.189 416.449 987.942 420.726 990.991 420.938C993.828 421.15 996.962 417.042 1002.47 412.976ZM976.931 338.649C971.214 334.584 967.996 330.518 965.158 330.772C962.025 331.068 959.272 335.346 956.35 337.887C959.187 340.852 961.601 345.383 965.031 346.315C967.403 346.95 971.087 342.63 976.931 338.649ZM1267.27 248.272C1272.9 252.126 1276.72 256.572 1278.92 255.852C1282.31 254.794 1284.59 250.22 1287.35 247.128C1284.42 244.629 1281.63 240.352 1278.54 240.098C1275.78 239.886 1272.65 244.121 1267.23 248.229L1267.27 248.272ZM935.43 247.382C929.797 243.359 926.664 239.335 923.699 239.462C920.693 239.59 917.813 243.782 914.891 246.196C917.643 249.203 919.973 253.862 923.233 254.667C925.817 255.302 929.543 251.109 935.43 247.382Z" fill="white"/>
<path d="M859.838 247.128H631.411C637.086 199.525 665.967 152.854 705.987 150.313C727.034 148.958 746.218 154.845 764.258 164.501C799.831 183.516 829.39 210.028 855.688 240.352C857.001 241.877 857.848 243.825 859.838 247.128ZM726.822 221.421C734.657 221.548 740.501 216.042 740.543 208.885C740.628 200.753 735.927 196.391 728.347 195.46C721.19 194.57 714.414 201.219 714.71 208.588C715.007 216.593 719.792 220.616 726.864 221.463L726.822 221.421Z" fill="white"/>
<path d="M1216.58 247.382H986.841C987.73 245.095 987.942 243.274 988.916 242.131C1018.56 208.588 1050.83 178.138 1092.33 159.715C1121.17 146.925 1150.18 143.579 1176.39 166.195C1195.41 182.585 1204.64 205.031 1211.84 228.366C1213.57 234.041 1214.72 239.886 1216.58 247.382ZM1131.5 208.546C1131.12 200.203 1126.29 196.052 1118.76 195.375C1111.56 194.739 1104.91 201.812 1105.59 209.054C1106.31 216.889 1111.01 221.632 1118.88 221.336C1126.63 221.082 1131.12 216.423 1131.5 208.546Z" fill="white"/>
<path d="M993.956 695.29C1001.88 678.434 1008.95 663.865 1015.6 649.042C1024.45 629.264 1024.28 628.883 1046.64 629.561C1098.85 631.128 1136.8 655.945 1161.61 701.473C1163.05 704.099 1163.98 707.021 1166.36 712.654C1109.36 692.622 1053.16 689.488 993.998 695.247L993.956 695.29Z" fill="white"/>
<path d="M680.704 709.732C683.16 704.861 685.235 699.779 688.115 695.12C717.378 647.687 759.98 626.088 815.457 630.027C818.548 630.238 823.079 632.017 824.223 634.389C833.497 653.828 842.179 673.606 851.792 694.993C793.944 689.869 737.62 692.114 683.118 711.765L680.704 709.689V709.732Z" fill="white"/>
<path d="M758.202 476.63C689.174 423.437 628.235 362.154 574.918 293.291C643.988 346.357 704.885 407.682 758.202 476.63Z" fill="white"/>
<path d="M1089.62 475.063C1141.88 407.131 1201.93 346.908 1269.9 294.646C1217.68 362.662 1157.55 422.717 1089.62 475.063Z" fill="white"/>
<path d="M995.565 42.6134C999.334 73.911 984.766 101.778 958.299 115.966C931.323 130.45 897.74 126.765 874.703 106.776C855.858 90.428 845.017 62.0527 851.538 43.5875C862.591 82.1695 886.476 104.192 926.622 104.023C956.901 103.896 975.492 86.6588 995.565 42.571V42.6134Z" fill="white"/>
<path d="M712.508 484.592C657.201 442.241 608.542 393.452 566.236 338.226C621.628 380.408 670.244 429.366 712.508 484.592Z" fill="white"/>
<path d="M1224.33 283.847C1182.11 338.734 1133.92 387.438 1078.95 429.323C1120.92 374.309 1169.49 325.859 1224.33 283.847Z" fill="white"/>
<path d="M622.391 283.762C676.427 325.478 724.323 373.547 767.73 427.714C748.758 423.225 642.04 317.897 622.391 283.762Z" fill="white"/>
<path d="M1278.88 340.259C1236.87 394.045 1189.06 441.902 1135.02 485.185C1140.52 464.772 1252.11 352.117 1278.88 340.259Z" fill="white"/>
</g>
<g clip-path="url(#clip2_51_7773)">
<path d="M212.948 712.858C212.948 710.731 214.56 709.071 216.638 709.071C218.604 709.071 220.457 710.86 220.505 712.793C220.554 714.775 218.539 716.805 216.558 716.757C214.608 716.709 212.964 714.92 212.948 712.842V712.858Z" fill="#FED707"/>
<path d="M204.345 695.745C206.407 695.729 208.147 697.373 208.196 699.371C208.228 701.224 206.375 703.19 204.522 703.254C202.572 703.319 200.494 701.304 200.51 699.371C200.526 697.437 202.315 695.761 204.361 695.729L204.345 695.745Z" fill="#FED707"/>
<path d="M136.057 703.254C134.075 703.319 132.319 701.595 132.351 699.5C132.383 697.341 133.366 695.923 135.686 695.778C137.846 695.649 139.844 697.405 139.876 699.419C139.892 701.272 137.991 703.19 136.057 703.254Z" fill="#FED707"/>
<path d="M115.819 724.411C117.978 724.411 119.364 725.925 119.331 728.229C119.299 730.437 117.752 732.032 115.706 731.968C113.724 731.903 112 730.099 112 728.117C112 726.119 113.756 724.411 115.819 724.411Z" fill="#FED707"/>
<path d="M225.243 724.395C227.354 724.459 228.804 726.119 228.723 728.359C228.643 730.469 226.919 732.129 224.905 732C223.052 731.887 221.102 729.776 221.215 728.02C221.327 726.183 223.406 724.33 225.259 724.395H225.243Z" fill="#FED707"/>
<path d="M155.167 690.09C155.231 692.088 153.523 693.957 151.541 694.021C149.559 694.086 147.771 692.378 147.69 690.332C147.61 688.253 149.237 686.48 151.284 686.416C153.249 686.352 155.102 688.108 155.167 690.09Z" fill="#FED707"/>
<path d="M189.005 686.432C191.003 686.497 192.727 688.333 192.662 690.315C192.598 692.313 190.729 694.102 188.795 694.005C186.845 693.909 185.041 691.991 185.105 690.09C185.17 688.108 187.023 686.368 189.005 686.448V686.432Z" fill="#FED707"/>
<path d="M127.227 713.019C127.179 715.21 125.584 716.854 123.57 716.773C121.797 716.692 119.831 714.566 119.88 712.777C119.928 710.956 121.958 709.039 123.795 709.071C125.906 709.103 127.26 710.666 127.211 713.019H127.227Z" fill="#FED707"/>
<path d="M170.04 683C172.312 682.968 173.842 684.37 173.891 686.529C173.923 688.495 172.07 690.541 170.169 690.364C168.09 690.17 166.672 689.01 166.511 686.787C166.35 684.563 167.832 683.032 170.04 683Z" fill="#FED707"/>
</g>
</g>
<defs>
<clipPath id="clip0_51_7773">
<rect width="1512" height="982" fill="white"/>
</clipPath>
<clipPath id="clip1_51_7773">
<rect width="299.565" height="279.658" fill="white" transform="translate(-105 729)"/>
</clipPath>
<clipPath id="clip2_51_7773">
<rect width="116.74" height="49" fill="white" transform="translate(112 683)"/>
</clipPath>
</defs>
</svg>
