<svg width="1512" height="982" viewBox="0 0 1512 982" fill="none" xmlns="http://www.w3.org/2000/svg">
<g clip-path="url(#clip0_14_6626)">
<rect width="1512" height="982" fill="#160D0B"/>
<g opacity="0.1">
<g clip-path="url(#clip1_14_6626)">
<path d="M1645.22 370.132C1647.29 365.593 1649.18 361.054 1651.45 356.612C1654.01 351.493 1653.24 349.272 1646.96 348.451C1637.54 347.196 1632.85 352.024 1628.31 359.171C1610.58 386.937 1585.46 405.962 1554.98 418.227C1559.23 415.716 1563.43 413.157 1567.78 410.743C1589.66 398.526 1608.6 382.832 1622.9 362.165C1625.36 358.591 1627.49 353.328 1626.76 349.417C1626.28 346.616 1610.68 349.03 1607.58 352.459C1602.9 357.674 1598.99 363.662 1593.72 368.153C1582.08 378.1 1569.81 387.275 1557.83 396.787L1555.65 393.938C1561.35 390.075 1567.15 386.405 1572.66 382.301C1578.5 377.907 1584.3 373.416 1589.57 368.394C1594.83 363.42 1599.42 357.722 1604.3 352.362C1598.07 347.147 1586.28 347.292 1580.19 352.217C1573.67 357.529 1567.25 362.937 1560.63 368.201C1559.28 369.311 1557.44 369.843 1555.22 369.649C1562.13 363.855 1568.99 358.06 1578.02 350.479C1572.32 349.61 1569.28 348.789 1566.23 348.741C1540.87 348.644 1515.56 348.692 1490.19 348.741C1476.57 348.741 1475.51 350.093 1478.65 364.434C1480.72 364.145 1482.9 363.855 1485.02 363.613C1498.45 362.068 1510.05 369.263 1513.29 382.253C1518.89 404.707 1517.54 426.871 1508.45 448.311C1505.27 455.795 1501.79 459.61 1491.4 457.534C1457.83 450.725 1428.5 460.624 1406.96 487.376C1385.7 513.741 1381.74 544.066 1394.93 575.501C1398.31 583.565 1397.29 588.104 1391.01 593.368C1382.32 600.659 1374.73 609.4 1365.7 616.16C1359.23 620.989 1351.06 623.596 1343.62 627.17C1339.57 629.101 1335.56 631.129 1331.45 632.964C1323.82 636.393 1321.01 634.799 1320.97 626.397C1320.82 608.096 1320.97 589.795 1320.87 571.493C1320.82 565.313 1320.68 559.083 1319.57 553.047C1318.21 545.756 1321.35 542.907 1327.87 542.762C1337.1 542.569 1346.28 542.714 1355.51 542.714L1356.28 538.947C1352.9 537.933 1349.47 536.05 1346.09 536.098C1331.45 536.34 1316.81 536.968 1302.22 537.885C1294.2 538.368 1291.84 535.133 1289.61 527.31C1284.2 508.333 1293.53 493.363 1300.34 477.573C1301.3 475.352 1304.88 473.758 1307.58 472.841C1334.11 463.666 1361.21 456.085 1387.1 445.365C1418.5 432.327 1445.85 412.336 1470.43 388.868C1472.61 386.792 1474.01 381.383 1472.85 378.872C1459.42 349.368 1441.88 323.196 1410.29 310.303C1384.54 299.777 1333.14 300.163 1310.92 327.011C1302.22 337.538 1297.25 349.127 1293.58 362.599C1288.5 381.142 1285.89 399.54 1287.25 418.276C1288.21 431.796 1291.69 445.22 1294.98 458.451C1296.52 464.68 1295.7 468.012 1289.13 468.06C1264.35 468.254 1239.57 468.205 1214.78 468.06C1209.28 468.06 1209.08 464.729 1210.97 460.528C1223.53 432.81 1221.74 404.079 1216.43 375.347C1214.35 364.096 1211.45 352.604 1206.52 342.415C1194.83 318.174 1173.53 307.744 1147.58 304.461C1097.78 298.183 1062.13 324.017 1040.29 365.448C1027.63 389.448 1029.95 383.267 1047.73 398.912C1085.07 431.844 1128.89 453.091 1176.33 467.143C1184.69 469.606 1193.29 471.103 1201.69 473.517C1203.96 474.193 1206.62 476.125 1207.63 478.249C1210.44 484.044 1211.64 490.708 1214.93 496.164C1221.59 507.27 1218.79 518.328 1216.72 529.676C1215.6 535.809 1212.32 538.126 1206.14 537.837C1191.55 537.064 1176.91 536.436 1162.27 536.098C1158.84 536.002 1155.36 537.354 1151.88 538.03L1152.17 541.362C1154.98 541.651 1157.73 542.038 1160.53 542.134C1167.29 542.376 1174.15 541.893 1180.72 542.955C1183.19 543.341 1187.01 547.253 1187.01 549.571C1186.96 576.274 1186.33 602.977 1185.7 629.681C1185.6 633.012 1184.78 636.344 1184.4 639.097C1177.63 635.137 1171.98 631.371 1165.94 628.28C1146.52 618.333 1129.13 605.681 1113.38 590.664C1109.9 587.332 1108.6 584.676 1110.72 579.22C1124.4 544.356 1122.32 511.23 1095.85 482.692C1073.29 458.403 1044.78 451.256 1012.71 457.727C1008.12 458.644 1005.41 458.451 1003.09 454.105C990.822 431.12 988.503 406.976 995.266 382.156C998.937 368.635 1008.6 362.503 1022.61 363.469C1027.15 363.758 1030.44 364.096 1030.1 357.915C1029.81 352.797 1029.9 348.113 1022.66 348.499C1017.58 348.789 1012.51 348.548 1007.44 348.548C985.459 348.548 963.527 348.548 941.546 348.548C938.358 348.548 935.121 349.079 931.933 349.32L930.822 351.686L951.739 369.649L950.29 371.436C943.768 366.124 936.619 361.44 930.822 355.404C922.754 346.954 913.768 347.872 902.223 349.706C914.928 370.422 933.479 382.204 951.981 394.083L950.483 396.16C942.223 390.655 933.382 385.778 925.846 379.404C917.343 372.16 909.71 363.807 902.223 355.453C895.459 347.872 887.923 345.988 876.812 351.059C894.396 381.915 921.208 402.196 951.691 418.614C936.86 414.461 924.686 405.721 912.899 396.594C897.923 385.005 885.314 371.146 875.701 354.68C871.546 347.534 865.797 346.471 852.464 350.479C873.382 394.663 909.421 421.704 952.319 441.454L950.194 444.544C935.701 435.949 920.58 428.223 906.86 418.565C883.575 402.244 864.638 381.721 851.933 355.887C848.406 348.692 841.16 345.892 833.575 348.934C832.029 349.562 830.677 354.825 831.643 356.66C837.585 367.766 843.334 379.162 850.725 389.303C874.783 422.428 907.247 445.027 944.541 461.107C946.619 461.976 948.648 462.894 950.677 463.908C951.063 464.101 951.208 464.825 952.271 466.805C923.382 456.423 898.841 441.405 876.86 422.139C854.59 402.63 837.44 379.259 826.136 351.638L822.851 351.252C806.136 387.661 789.469 424.118 771.933 462.266C768.406 455.264 765.314 449.566 762.609 443.627C749.082 413.978 735.218 384.522 722.464 354.535C719.566 347.727 720.29 339.18 720.435 331.454C720.435 329.764 725.073 326.915 727.73 326.77C737.005 326.19 746.281 326.577 755.604 326.48C775.363 326.335 788.599 318.464 794.735 301.66C800.725 285.242 797.875 270.128 785.024 257.476C783.527 255.979 782.271 254.289 780.194 251.875C794.783 246.274 806.28 238.209 810.87 223.337C815.459 208.464 811.788 195.088 801.16 182.437C835.411 168.095 844.928 145.352 825.894 112.226C841.208 110.101 855.218 105.997 863.913 92.9108C872.657 79.7764 872.078 65.3866 865.894 49.4998C883.672 52.1074 898.793 49.1618 909.179 35.9309C918.744 23.7623 920.097 9.03444 915.846 -7.04547C932.561 -4.72765 948.116 -3.85846 959.179 -15.7856C968.841 -26.1675 975.604 -38.819 972.029 -54.8989C979.904 -53.4986 986.087 -52.0016 992.367 -51.3739C1015.46 -49.0561 1036.81 -69.337 1034.59 -92.3704C1033.33 -105.215 1027.1 -116.321 1018.07 -125.979C1010.05 -134.574 1010.58 -135.492 1021.4 -140.465C1030.82 -144.811 1040.15 -149.447 1049.61 -153.696C1055.56 -156.352 1060.1 -155.531 1061.26 -147.95C1061.5 -146.308 1062.37 -144.763 1063.04 -143.266C1073.19 -120.088 1083.19 -96.8612 1093.58 -73.8278C1104.4 -49.7804 1115.12 -25.6846 1126.76 -2.07181C1135.94 16.5674 1142.42 36.2206 1150.82 55.1495C1151.35 56.3084 1151.16 57.7571 1151.59 61.7167C1147.39 58.2882 1144.54 56.4533 1142.32 54.0389C1133.91 44.9124 1125.94 35.3031 1117.29 26.3698C1100.92 9.42075 1084.2 -7.23863 1067.63 -23.9946C1064.64 -26.9884 1061.74 -30.2237 1058.31 -32.6381C1057.05 -33.5556 1053.96 -33.0727 1052.37 -32.107C1045.36 -27.9059 1038.6 -23.2702 1031.5 -18.6829C1051.93 20.8167 1075.46 58.2882 1096.14 97.305L1093.62 99.5745C1091.35 98.995 1088.99 98.7053 1086.91 97.7395C1047.1 78.8106 1007.25 59.93 967.633 40.5665C961.208 37.4278 957.198 38.297 953.092 43.4155C949.469 48.0029 945.652 52.4454 940.628 58.5297C979.179 91.269 1017.97 124.153 1056.72 157.037L1055.75 159.548C1053.24 159.645 1050.68 160.224 1048.26 159.838C1013.86 154.285 979.517 148.539 945.121 142.937C927.392 140.04 909.614 137.046 891.836 134.39C884.88 133.328 880.194 138.929 876.667 150.518C874.396 157.906 880.049 158.244 884.203 160.031C922.126 176.352 960.049 192.722 998.02 208.947C1008.6 213.486 1019.32 217.639 1029.9 222.13C1032.32 223.144 1034.54 224.737 1038.79 227.2C1034.83 228.697 1033 229.856 1031.11 230.049C1024.11 230.773 1017.1 231.546 1010.1 231.739C958.02 232.994 905.942 234.25 853.865 235.119C844.88 235.264 840.049 238.596 839.276 247.529C839.131 248.929 838.648 250.281 838.309 251.634C835.508 263.561 836.425 264.285 847.923 268.486C876.136 278.82 904.107 289.733 932.223 300.26C958.261 310.014 984.3 319.72 1010.39 329.281C1013 330.246 1015.85 330.584 1018.65 330.971C1024.15 331.695 1027.44 329.764 1027.05 323.679C1026.28 312.573 1031.64 305.909 1041.16 300.211C1061.98 287.801 1082.8 274.377 1106.57 269.983C1128.45 265.927 1151.3 266.458 1173.72 265.83C1184.93 265.54 1196.18 266.989 1207.39 267.907C1234.15 270.128 1243.62 287.898 1246.67 307.02C1247.34 311.318 1247.2 315.519 1253.33 315.808C1260.15 316.146 1260.29 311.028 1260.77 306.778C1262.8 289.781 1270.24 276.695 1286.96 270.756C1293.19 268.534 1300.1 267.472 1306.76 267.182C1336.81 265.83 1367.34 261.388 1396.72 269.21C1416.52 274.474 1434.93 284.856 1453.91 293.161C1457.73 294.851 1460.92 297.99 1464.69 299.728C1474.54 304.267 1479.86 310.835 1479.52 322.52C1479.28 330.584 1483.48 332.951 1492.37 330.343C1503.62 327.059 1514.59 322.52 1525.6 318.464C1566.43 303.35 1607.25 288.188 1648.02 272.977C1650.39 272.108 1652.51 270.659 1654.83 269.693C1670.87 263.029 1670.63 263.078 1667.2 245.791C1665.8 238.644 1662.03 235.602 1655.22 235.312C1646.23 234.926 1637.25 234.298 1628.21 234.153C1583.72 233.284 1539.23 232.656 1494.78 231.739C1486.81 231.594 1478.89 230.339 1470.92 229.614L1470.15 226.186C1476.38 223.192 1482.46 219.957 1488.79 217.301C1522.37 203.056 1556.04 188.956 1589.66 174.759C1601.84 169.592 1613.86 164.136 1625.99 159.017C1630.63 157.086 1631.5 154.478 1629.76 149.746C1624.49 135.308 1622.17 133.328 1607.25 135.742C1575.6 140.812 1544.06 146.317 1512.42 151.581C1494.69 154.526 1476.96 157.375 1459.23 160.128C1456.91 160.514 1454.49 160.176 1449.47 160.176C1453.04 156.023 1454.78 153.367 1457.1 151.388C1486.04 126.809 1515.07 102.327 1544.06 77.8449C1549.42 73.3058 1554.93 68.9116 1560.15 64.2277C1565.8 59.1574 1564.98 53.894 1558.16 50.4656C1556.96 49.8378 1555.36 49.5964 1554.64 48.6306C1547.1 38.6833 1545.02 37.9107 1533.24 43.3672C1519.47 49.7413 1505.99 56.6464 1492.32 63.2136C1467.78 75.0442 1443.19 86.7782 1418.6 98.5122C1416.72 99.3813 1414.49 99.5262 1410.39 100.444C1411.84 96.3392 1412.32 93.7799 1413.58 91.607C1425.99 69.9739 1438.65 48.4375 1450.87 26.7079C1453.62 21.8308 1454.83 16.0845 1457.1 9.75876C1465.31 9.22758 1466.04 -0.623169 1470.24 -6.65918C1476.14 -15.1096 1472.08 -23.222 1461.74 -27.085C1461.5 -27.1816 1461.16 -27.085 1460.92 -27.085C1456.47 -28.5336 1450 -32.6381 1447.97 -31.0446C1440.58 -25.3466 1434.64 -17.7171 1428.26 -10.7154C1427.63 -9.99104 1428.02 -8.30096 1427.34 -7.72151C1419.47 -1.05775 1411.3 5.26797 1403.67 12.2215C1401.01 14.6359 1400.19 18.9335 1397.83 21.7342C1394.78 25.2592 1390.87 28.0599 1387.58 31.3918C1379.23 39.8905 1371.16 48.6306 1362.66 57.0327C1360.97 58.7228 1358.12 59.2057 1355.8 60.2198C1356.18 57.7571 1356.14 55.1495 1357.05 52.88C1363.77 35.6894 1370.34 18.4989 1377.58 1.54979C1381.16 -6.80405 1386.43 -14.4335 1390.34 -22.6425C1398.74 -40.3642 1410.43 -57.603 1413.82 -76.2905C1416.81 -92.7567 1428.79 -102.752 1433.24 -117.384C1436.47 -127.959 1441.84 -137.906 1446.23 -148.143C1448.79 -154.131 1452.46 -156.062 1458.89 -152.875C1470.87 -146.888 1483.09 -141.479 1496.86 -135.009C1491.35 -128.248 1487.15 -122.888 1482.71 -117.673C1470.68 -103.718 1468.65 -84.6926 1478.74 -69.1922C1488.94 -53.5468 1502.85 -47.8489 1522.51 -51.9051C1525.89 -52.5811 1528.94 -54.8506 1533.77 -57.1202C1534.44 -52.9191 1536.18 -48.4283 1535.56 -44.2273C1533.24 -27.6645 1543.48 -16.8962 1555.07 -10.3773C1563.24 -5.78998 1574.69 -2.21666 1585.7 -5.93484C1587.39 -6.5143 1590.19 -6.03142 1591.45 -4.87251C1592.42 -4.00333 1592.51 -0.864609 1591.74 0.439163C1583.82 13.3804 1590.29 24.6315 1596.96 34.7237C1605.6 47.858 1619.28 51.9625 1634.69 50.4656C1636.28 50.3207 1637.87 50.6104 1640.77 50.8036C1636.18 65.3866 1634.69 79.1487 1643.09 92.5727C1651.69 106.287 1665.12 109.908 1680.92 112.226C1664.64 143.758 1668.99 168.433 1705.22 182.195C1696.38 195.233 1691.74 208.367 1696.14 223.337C1700.63 238.499 1712.08 246.322 1726.91 252.213C1724.98 254.531 1723.77 256.173 1722.32 257.669C1709.28 271.287 1705.65 287.077 1713.33 304.267C1720.48 320.251 1733.62 327.639 1751.3 326.963C1759.47 326.673 1767.63 327.204 1775.8 326.866C1783.86 326.48 1787.01 329.281 1787.68 337.876C1788.74 351.348 1781.59 361.634 1776.72 372.692C1764.3 400.988 1751.11 428.947 1738.26 457.051C1737.68 458.306 1736.81 459.417 1735.02 462.314C1717.73 424.649 1701.01 388.24 1684.25 351.783L1681.69 351.252C1656.81 408.135 1613.29 444.255 1557.29 466.515L1556.04 464.777C1561.11 462.314 1566.14 459.707 1571.26 457.389C1610.19 439.522 1642.32 413.64 1665.07 376.989C1669.23 370.326 1672.37 363.082 1675.99 356.129C1678.41 351.493 1676.86 349.417 1671.84 348.934C1664.01 348.21 1657.68 348.982 1654.35 357.915C1652.66 362.503 1648.41 366.173 1645.27 370.229L1645.46 370.374L1645.22 370.132ZM1717.44 372.74C1723.48 385.923 1728.79 397.512 1734.11 409.149L1736.38 408.908C1741.4 397.318 1746.43 385.729 1752.03 372.74H1717.44ZM788.744 373.174H754.203C760.097 386.212 765.266 397.656 771.353 411.129C777.633 397.415 782.851 386.116 788.744 373.174ZM921.691 207.836L921.884 205.712C909.614 199.482 897.392 193.205 884.541 186.686L875.169 209.961C891.884 209.188 906.764 208.512 921.691 207.836ZM1584.83 205.663L1585.31 208.174H1630.77C1628.55 202.718 1626.47 197.599 1624.44 192.432C1622.75 188.183 1620.53 187.072 1616.09 189.535C1605.85 195.185 1595.27 200.352 1584.83 205.663ZM1581.45 112.902C1576.33 106.238 1571.64 100.106 1566.28 93.1522C1554.98 103.003 1544.3 112.274 1531.93 123.091C1549.9 119.421 1565.22 116.282 1581.45 112.95V112.902ZM925.314 112.999C941.788 116.33 957.005 119.421 974.348 122.898C963.092 112.95 953.479 104.258 943.527 95.9046C942.464 94.9871 938.793 95.2769 937.923 96.3392C933.623 101.361 929.904 106.866 925.363 113.047L925.314 112.999ZM1657.1 316.388C1655.56 308.324 1654.25 301.418 1652.75 293.499C1639.08 299.052 1626.96 303.978 1614.83 308.951L1615.12 311.028C1628.6 312.766 1642.08 314.505 1657.05 316.388H1657.1ZM849.662 316.629C864.541 314.553 878.068 312.67 891.594 310.786V308.71C879.276 303.833 867.053 298.907 853.962 293.692C852.367 302.143 851.063 309.096 849.662 316.629ZM1042.03 52.4937L1043.09 51.0933C1035.85 39.1179 1028.6 27.1425 1020.92 14.4427C1015.17 19.8027 1010.39 24.2452 1004.64 29.6051C1017.63 37.5244 1029.81 45.009 1042.03 52.4937ZM1485.22 14.6841C1477.68 27.6736 1470.68 39.7939 1463.62 51.9142L1465.31 53.4594C1474.83 46.0231 1484.35 38.5867 1494.59 30.6192H1500.48C1499.23 28.4945 1498.31 25.9836 1496.57 24.2935C1493.24 21.0582 1489.47 18.2574 1485.17 14.6841H1485.22Z" fill="white"/>
<path d="M1253.33 132.024C1293.91 132.265 1328.5 146.317 1355.31 177.27C1370.63 194.943 1378.65 216.19 1381.69 239.175C1383.09 249.992 1381.69 251.392 1371.11 250.619C1352.61 249.219 1333.82 248.881 1315.85 244.825C1298.07 240.817 1279.32 235.602 1269.81 217.156C1265.75 209.237 1263.72 200.303 1259.95 192.191C1258.74 189.632 1255.17 186.976 1252.42 186.734C1250.58 186.589 1247.05 190.211 1246.47 192.674C1240.58 217.445 1228.02 234.443 1201.4 241.3C1178.84 247.094 1156.33 249.847 1133.33 250.813C1125.75 251.151 1122.95 248.302 1124.25 240.913C1132.75 192.819 1157.1 157.761 1204.64 140.668C1220.53 134.921 1236.47 131.783 1253.29 132.024H1253.33Z" fill="white"/>
<path d="M987.73 544.838C987.73 515.528 1007.78 495.778 1033.57 495.488C1058.21 495.198 1079.32 516.348 1079.23 541.168C1079.18 557.78 1061.84 582.503 1051.84 584.579C1033.48 588.346 1016.81 588.056 1002.46 574.584C992.754 565.457 987.585 554.303 987.73 544.887V544.838ZM1044.06 539.478C1042.03 537.112 1040.1 532.96 1037.1 531.994C1034.15 530.98 1028.74 531.994 1026.91 534.215C1024.73 536.774 1023.96 541.893 1024.78 545.418C1025.94 550.247 1031.59 547.253 1033.53 548.074C1042.56 551.84 1041.93 545.563 1044.11 539.527L1044.06 539.478Z" fill="white"/>
<path d="M1518.7 541.555C1519.03 566.327 1498.5 586.704 1472.95 587.284C1448.5 587.815 1427.34 565.699 1427.39 541.072C1427.39 515.866 1448.5 495.15 1473.86 495.391C1499.08 495.633 1518.89 516.01 1518.74 541.555H1518.7ZM1482.9 539.285C1482.13 534.988 1479.42 530.642 1472.95 530.883C1466.67 531.125 1463.24 535.326 1463.33 541.265C1463.43 547.591 1467.63 550.778 1473.86 550.488C1479.76 550.198 1483.04 546.963 1482.9 539.285Z" fill="white"/>
<path d="M1373.48 421.221C1350.68 421.511 1332.71 413.205 1317.73 397.753C1313.57 393.455 1313.48 390.606 1317.73 385.874C1346.04 354.487 1396.81 354.197 1425.8 385.198C1430.68 390.461 1430.29 393.89 1425.65 398.429C1410.87 413.012 1393.57 421.607 1373.48 421.221ZM1323.57 393.214C1356.23 401.181 1388.16 401.857 1421.06 392.779C1409.52 382.156 1332.08 381.818 1323.57 393.214Z" fill="white"/>
<path d="M1134.59 421.221C1113.48 421.559 1095.94 413.495 1081.21 398.622C1076.67 394.035 1075.7 390.944 1080.77 385.488C1109.76 354.39 1159.13 354.294 1188.31 385.343C1193.38 390.703 1192.51 393.987 1188.02 398.622C1173.33 413.592 1155.6 421.269 1134.59 421.221ZM1184.35 392.876C1168.5 382.059 1095.02 381.915 1085.94 393.214C1118.41 401.471 1150.39 401.423 1184.35 392.876Z" fill="white"/>
<path d="M1222.95 252.889C1232.75 244.052 1243 234.733 1253.33 225.413C1263.14 234.25 1273.57 243.666 1284.64 253.662C1282.95 254.965 1281.35 256.269 1279.66 257.525C1272.27 262.981 1264.98 268.534 1257.39 273.701C1255.46 275.005 1251.64 276.357 1250.43 275.439C1241.01 268.245 1231.98 260.47 1222.9 252.889H1222.95Z" fill="white"/>
<path d="M1270.24 537.885C1256.57 537.933 1256.38 537.788 1256.33 524.509C1256.33 512.147 1256.47 499.786 1256.33 487.376C1256.23 480.519 1257.2 475.207 1265.89 474.676C1274.73 474.096 1275.99 479.746 1277 486.265C1278.89 498.482 1280.82 510.699 1282.75 522.867C1285.02 537.305 1284.64 537.837 1270.24 537.885Z" fill="white"/>
<path d="M1250.05 507.222C1250.05 514.514 1249.86 521.805 1250.1 529.096C1250.34 535.664 1247.29 538.03 1240.97 537.933C1223 537.788 1220.63 539.14 1224.78 519.873C1227.39 507.56 1228.89 495.053 1230.53 482.547C1231.4 475.883 1235.36 474.434 1241.11 474.821C1246.81 475.159 1249.95 477.766 1249.95 483.706C1249.95 491.528 1249.95 499.399 1249.95 507.222H1250.05Z" fill="white"/>
<path d="M1380.68 178.863C1380.68 172.489 1385.51 167.516 1391.74 167.516C1397.63 167.516 1403.19 172.876 1403.33 178.67C1403.48 184.61 1397.44 190.694 1391.5 190.549C1385.65 190.404 1380.72 185.044 1380.68 178.815V178.863Z" fill="white"/>
<path d="M1354.88 127.63C1361.06 127.582 1366.28 132.507 1366.42 138.495C1366.52 144.048 1360.97 149.939 1355.41 150.132C1349.56 150.325 1343.33 144.289 1343.38 138.495C1343.43 132.7 1348.79 127.678 1354.93 127.582L1354.88 127.63Z" fill="white"/>
<path d="M1150.14 150.084C1144.2 150.277 1138.94 145.11 1139.03 138.833C1139.13 132.362 1142.08 128.113 1149.03 127.678C1155.51 127.292 1161.5 132.555 1161.59 138.591C1161.64 144.144 1155.94 149.891 1150.14 150.084Z" fill="white"/>
<path d="M1089.47 213.486C1095.94 213.486 1100.1 218.025 1100 224.93C1099.9 231.546 1095.27 236.326 1089.13 236.133C1083.19 235.94 1078.02 230.532 1078.02 224.592C1078.02 218.604 1083.29 213.486 1089.47 213.486Z" fill="white"/>
<path d="M1417.58 213.438C1423.91 213.631 1428.26 218.605 1428.02 225.317C1427.78 231.642 1422.61 236.616 1416.57 236.23C1411.01 235.892 1405.17 229.566 1405.51 224.303C1405.85 218.798 1412.08 213.245 1417.63 213.438H1417.58Z" fill="white"/>
<path d="M1207.44 110.632C1207.63 116.62 1202.51 122.222 1196.57 122.415C1190.63 122.608 1185.27 117.489 1185.02 111.357C1184.78 105.128 1189.66 99.816 1195.8 99.6228C1201.69 99.4297 1207.25 104.693 1207.44 110.632Z" fill="white"/>
<path d="M1308.89 99.6711C1314.88 99.8643 1320.05 105.369 1319.86 111.309C1319.66 117.296 1314.06 122.656 1308.26 122.367C1302.42 122.077 1297.01 116.33 1297.2 110.633C1297.39 104.693 1302.95 99.478 1308.89 99.7194V99.6711Z" fill="white"/>
<path d="M1123.67 179.394C1123.53 185.962 1118.74 190.887 1112.71 190.646C1107.39 190.404 1101.5 184.03 1101.64 178.67C1101.79 173.214 1107.87 167.467 1113.38 167.564C1119.71 167.661 1123.77 172.344 1123.62 179.394H1123.67Z" fill="white"/>
<path d="M1252.08 89.3857C1258.89 89.2891 1263.48 93.4901 1263.62 99.9607C1263.72 105.852 1258.16 111.984 1252.46 111.453C1246.23 110.874 1241.98 107.397 1241.5 100.733C1241.01 94.0696 1245.46 89.5305 1252.13 89.3857H1252.08Z" fill="white"/>
<path d="M1218.61 593.223C1227.61 598.444 1235.85 603.161 1243.96 607.878C1246.89 599.796 1250.13 590.707 1253.96 580.077C1263.59 589.701 1263.15 599.953 1264.22 609.576C1273.46 605.362 1282.49 601.305 1292.55 596.713C1291.29 616.841 1270.51 635.49 1253.02 633.73C1235.88 632 1216.35 613.162 1218.61 593.223Z" fill="white"/>
</g>
</g>
<path d="M185.968 602.784L160.432 597.856L166.032 652.96L142.176 658.112L149.12 595.728L123.136 610.176L123.472 587.888L183.168 580.832L185.968 602.784ZM161.328 591.024H150.8L156.064 596.176L161.328 591.024ZM131.424 611.408L133.664 611.072C133.664 611.072 133.664 611.333 133.664 611.856C133.739 612.379 133.739 613.013 133.664 613.76C133.589 614.507 133.403 615.253 133.104 616C132.805 616.672 132.32 617.269 131.648 617.792C131.051 618.315 130.155 618.576 128.96 618.576C127.84 618.576 126.907 618.352 126.16 617.904C125.488 617.456 124.965 616.933 124.592 616.336C124.219 615.664 123.957 615.029 123.808 614.432C123.659 613.76 123.547 613.2 123.472 612.752C123.472 612.304 123.472 612.08 123.472 612.08H125.712C125.712 612.08 125.712 612.229 125.712 612.528C125.712 612.827 125.749 613.2 125.824 613.648C125.973 614.021 126.16 614.432 126.384 614.88C126.608 615.253 126.907 615.589 127.28 615.888C127.728 616.187 128.288 616.336 128.96 616.336C129.632 616.336 130.117 616.187 130.416 615.888C130.789 615.515 131.051 615.104 131.2 614.656C131.349 614.133 131.424 613.648 131.424 613.2C131.499 612.677 131.499 612.267 131.424 611.968C131.424 611.595 131.424 611.408 131.424 611.408ZM171.408 602.336H173.648C173.648 602.336 173.611 602.56 173.536 603.008C173.536 603.456 173.461 604.016 173.312 604.688C173.163 605.285 172.901 605.92 172.528 606.592C172.155 607.189 171.595 607.712 170.848 608.16C170.176 608.608 169.28 608.832 168.16 608.832C166.965 608.832 166.032 608.571 165.36 608.048C164.763 607.525 164.315 606.891 164.016 606.144C163.717 605.397 163.531 604.688 163.456 604.016C163.381 603.269 163.344 602.635 163.344 602.112C163.419 601.589 163.456 601.328 163.456 601.328L165.696 601.664C165.696 601.664 165.659 601.851 165.584 602.224C165.584 602.523 165.584 602.933 165.584 603.456C165.659 603.904 165.771 604.389 165.92 604.912C166.069 605.36 166.293 605.771 166.592 606.144C166.965 606.443 167.488 606.592 168.16 606.592C168.832 606.592 169.355 606.443 169.728 606.144C170.176 605.845 170.512 605.509 170.736 605.136C170.96 604.688 171.109 604.277 171.184 603.904C171.333 603.456 171.408 603.083 171.408 602.784C171.408 602.485 171.408 602.336 171.408 602.336ZM145.76 603.344C145.76 603.344 145.76 603.605 145.76 604.128C145.835 604.576 145.835 605.173 145.76 605.92C145.685 606.667 145.499 607.413 145.2 608.16C144.901 608.907 144.416 609.541 143.744 610.064C143.147 610.512 142.251 610.736 141.056 610.736C139.936 610.736 139.04 610.512 138.368 610.064C137.696 609.616 137.136 609.093 136.688 608.496C136.315 607.824 136.053 607.189 135.904 606.592C135.755 605.92 135.643 605.36 135.568 604.912C135.568 604.464 135.568 604.24 135.568 604.24H137.808C137.808 604.24 137.808 604.389 137.808 604.688C137.808 604.987 137.845 605.36 137.92 605.808C138.069 606.181 138.256 606.592 138.48 607.04C138.704 607.488 139.003 607.861 139.376 608.16C139.824 608.384 140.384 608.496 141.056 608.496C141.728 608.496 142.213 608.347 142.512 608.048C142.885 607.675 143.147 607.264 143.296 606.816C143.52 606.293 143.632 605.808 143.632 605.36C143.632 604.837 143.632 604.427 143.632 604.128C143.632 603.755 143.595 603.568 143.52 603.568L145.76 603.344ZM185.968 604.688C185.968 604.688 185.931 604.912 185.856 605.36C185.856 605.808 185.781 606.368 185.632 607.04C185.483 607.637 185.221 608.272 184.848 608.944C184.475 609.541 183.915 610.064 183.168 610.512C182.496 610.96 181.6 611.184 180.48 611.184C179.36 611.184 178.464 610.923 177.792 610.4C177.12 609.877 176.635 609.28 176.336 608.608C176.037 607.861 175.851 607.115 175.776 606.368C175.701 605.621 175.664 605.024 175.664 604.576C175.739 604.053 175.776 603.755 175.776 603.68L178.016 604.016C178.016 604.016 177.979 604.203 177.904 604.576C177.904 604.875 177.904 605.285 177.904 605.808C177.979 606.256 178.091 606.741 178.24 607.264C178.389 607.712 178.613 608.123 178.912 608.496C179.285 608.795 179.808 608.944 180.48 608.944C181.152 608.944 181.675 608.795 182.048 608.496C182.496 608.197 182.832 607.861 183.056 607.488C183.28 607.04 183.429 606.629 183.504 606.256C183.653 605.808 183.728 605.435 183.728 605.136C183.728 604.837 183.728 604.688 183.728 604.688H185.968ZM159.872 645.456H157.632C157.632 645.456 157.632 645.605 157.632 645.904C157.632 646.203 157.557 646.576 157.408 647.024C157.333 647.397 157.184 647.808 156.96 648.256C156.736 648.629 156.4 648.965 155.952 649.264C155.579 649.563 155.056 649.712 154.384 649.712C153.712 649.712 153.189 649.563 152.816 649.264C152.517 648.891 152.293 648.48 152.144 648.032C151.995 647.509 151.883 647.024 151.808 646.576C151.808 646.053 151.808 645.643 151.808 645.344C151.883 644.971 151.92 644.784 151.92 644.784L149.68 644.448C149.68 644.523 149.643 644.821 149.568 645.344C149.568 645.792 149.605 646.389 149.68 647.136C149.755 647.883 149.941 648.629 150.24 649.376C150.539 650.048 151.024 650.645 151.696 651.168C152.368 651.691 153.264 651.952 154.384 651.952C155.504 651.952 156.4 651.728 157.072 651.28C157.819 650.832 158.379 650.309 158.752 649.712C159.125 649.04 159.387 648.405 159.536 647.808C159.685 647.136 159.76 646.576 159.76 646.128C159.835 645.68 159.872 645.456 159.872 645.456ZM245.211 625.856L247.227 656.432L226.171 658.112L229.419 620.592L214.971 617.232C215.045 618.128 215.12 619.024 215.195 619.92C216.165 632.613 217.323 645.344 218.667 658.112H196.939L197.051 582.96L211.611 580.832C212.656 590.613 213.589 600.395 214.411 610.176L230.427 611.856C235.205 612.379 238.789 613.872 241.179 616.336C243.643 618.8 244.987 621.973 245.211 625.856ZM204.443 594.048V598.752H206.795V594.048H204.443ZM205.563 604.016L202.987 606.704L205.563 609.28L208.251 606.704L205.563 604.016ZM206.795 647.808V643.104H204.443V647.808H206.795ZM205.563 637.84L208.251 635.152L205.563 632.576L202.987 635.152L205.563 637.84ZM207.467 624.064C208.288 622.869 209.221 621.824 210.267 620.928C209.221 620.032 208.288 618.987 207.467 617.792C206.645 616.672 205.973 615.44 205.451 614.096C204.331 616.859 202.8 619.136 200.859 620.928C202.8 622.72 204.331 624.997 205.451 627.76C205.973 626.416 206.645 625.184 207.467 624.064ZM224.379 622.608C225.051 622.608 225.611 622.832 226.059 623.28C226.581 623.728 226.843 624.288 226.843 624.96C226.843 625.931 226.507 626.901 225.835 627.872C225.163 628.843 224.379 629.813 223.483 630.784V651.28H220.347V630.784C219.376 629.813 218.555 628.843 217.883 627.872C217.285 626.901 216.987 625.931 216.987 624.96C216.987 624.288 217.211 623.728 217.659 623.28C218.181 622.832 218.779 622.608 219.451 622.608C220.645 622.608 221.467 623.205 221.915 624.4C222.288 623.205 223.109 622.608 224.379 622.608ZM215.867 587.552C215.195 587.552 214.597 587.328 214.075 586.88C213.627 586.357 213.403 585.797 213.403 585.2C213.403 584.528 213.627 583.968 214.075 583.52C214.597 583.072 215.195 582.848 215.867 582.848C216.464 582.848 216.987 583.072 217.435 583.52C217.957 583.968 218.219 584.528 218.219 585.2C218.219 585.797 217.957 586.357 217.435 586.88C216.987 587.328 216.464 587.552 215.867 587.552ZM216.091 605.472C216.091 604.8 216.315 604.24 216.763 603.792C217.211 603.344 217.771 603.12 218.443 603.12C219.04 603.12 219.563 603.344 220.011 603.792C220.533 604.24 220.795 604.8 220.795 605.472C220.795 606.069 220.533 606.629 220.011 607.152C219.563 607.6 219.04 607.824 218.443 607.824C217.771 607.824 217.211 607.6 216.763 607.152C216.315 606.629 216.091 606.069 216.091 605.472ZM214.971 595.392C214.971 594.72 215.195 594.16 215.643 593.712C216.091 593.264 216.651 593.04 217.323 593.04C217.995 593.04 218.555 593.264 219.003 593.712C219.451 594.16 219.675 594.72 219.675 595.392C219.675 595.989 219.451 596.549 219.003 597.072C218.555 597.52 217.995 597.744 217.323 597.744C216.651 597.744 216.091 597.52 215.643 597.072C215.195 596.549 214.971 595.989 214.971 595.392ZM230.203 604.912C230.875 604.912 231.435 605.136 231.883 605.584C232.331 606.032 232.555 606.592 232.555 607.264C232.555 607.936 232.331 608.496 231.883 608.944C231.435 609.392 230.875 609.616 230.203 609.616C229.531 609.616 228.971 609.392 228.523 608.944C228.075 608.496 227.851 607.936 227.851 607.264C227.851 606.592 228.075 606.032 228.523 605.584C228.971 605.136 229.531 604.912 230.203 604.912ZM230.091 603.232C228.896 600.544 227.365 598.304 225.499 596.512C227.365 594.645 228.896 592.368 230.091 589.68C230.613 590.949 231.248 592.181 231.995 593.376C232.891 594.571 233.861 595.616 234.907 596.512C233.861 597.333 232.891 598.379 231.995 599.648C231.248 600.768 230.613 601.963 230.091 603.232ZM304.434 613.088L296.37 643.888L278.898 640.528L279.794 648.256L294.69 651.728L292.898 659.456L264.562 653.856L254.37 613.424L274.306 610.176H289.874L304.434 613.088ZM265.458 631.12L266.354 632.576L268.034 632.8L270.834 628.096L269.938 626.64L268.258 626.416L265.458 631.12ZM272.962 645.12L273.41 643.664L269.042 638.96L267.474 639.184L267.026 640.64L271.394 645.344L272.962 645.12ZM274.306 639.632L276.882 636.496L273.186 633.36L270.61 636.496L274.306 639.632ZM286.402 632.128L288.642 618.128H275.65L277.778 631.792L286.402 632.128ZM388.352 622.16C389.621 623.429 390.256 624.96 390.256 626.752C390.256 628.544 389.621 630.112 388.352 631.456C387.083 632.725 385.552 633.36 383.76 633.36C381.893 633.36 380.325 632.725 379.056 631.456C377.787 630.112 377.152 628.544 377.152 626.752C377.152 624.96 377.787 623.429 379.056 622.16C380.325 620.891 381.893 620.256 383.76 620.256C385.552 620.256 387.083 620.891 388.352 622.16ZM383.088 630.56V627.424H379.952C380.325 629.141 381.371 630.187 383.088 630.56ZM383.088 626.192V623.056C381.371 623.429 380.325 624.475 379.952 626.192H383.088ZM384.32 630.56C386.037 630.187 387.083 629.141 387.456 627.424H384.32V630.56ZM384.32 626.192H387.456C387.083 624.475 386.037 623.429 384.32 623.056V626.192ZM411.648 581.616L415.568 656.432L400.336 658.112L396.08 627.648L389.696 648.368H379.056L370.656 627.76L369.2 658.112L347.136 655.312L357.44 580.832L383.872 610.176L411.648 581.616ZM359.568 601.776C358.821 602.896 358.336 603.867 358.112 604.688C357.963 605.509 357.925 606.181 358 606.704C358.075 607.227 358.187 607.6 358.336 607.824C358.411 608.048 358.448 608.197 358.448 608.272C360.464 607.6 361.957 606.629 362.928 605.36C363.973 604.016 364.645 602.672 364.944 601.328C365.317 599.909 365.504 598.715 365.504 597.744C365.504 596.699 365.504 596.176 365.504 596.176C365.504 596.176 364.907 596.624 363.712 597.52C362.517 598.341 361.136 599.76 359.568 601.776ZM359.792 612.08C361.883 613.051 363.712 613.611 365.28 613.76C366.848 613.909 368.155 613.835 369.2 613.536C370.245 613.237 371.029 612.901 371.552 612.528C372.149 612.08 372.448 611.856 372.448 611.856C372.448 611.856 372.149 611.632 371.552 611.184C370.955 610.736 370.171 610.288 369.2 609.84C368.229 609.392 367.147 609.131 365.952 609.056C365.056 608.981 364.235 609.093 363.488 609.392C362.741 609.691 362.069 610.064 361.472 610.512C360.949 610.885 360.539 611.259 360.24 611.632C359.941 611.931 359.792 612.08 359.792 612.08ZM372.784 626.304L372.896 625.408C373.195 622.869 374.24 620.741 376.032 619.024C377.749 617.307 379.877 616.261 382.416 615.888H383.312V614.88V612.976H381.184V614.096C378.571 614.619 376.368 615.776 374.576 617.568C372.709 619.435 371.515 621.675 370.992 624.288H369.872V626.304H371.888H372.784ZM389.808 632.8C391.451 631.157 392.272 629.141 392.272 626.752C392.272 624.363 391.451 622.347 389.808 620.704C388.091 618.987 386.075 618.128 383.76 618.128C381.371 618.128 379.317 618.987 377.6 620.704C375.957 622.347 375.136 624.363 375.136 626.752C375.136 629.141 375.957 631.157 377.6 632.8C379.317 634.517 381.371 635.376 383.76 635.376C386.075 635.376 388.091 634.517 389.808 632.8ZM397.536 626.304V624.288H396.416C395.893 621.675 394.699 619.435 392.832 617.568C391.04 615.776 388.837 614.619 386.224 614.096V612.976H384.096V614.88V615.888H385.104C387.568 616.261 389.659 617.307 391.376 619.024C393.168 620.741 394.213 622.869 394.512 625.408L394.624 626.304H395.52H397.536ZM395.632 611.856C395.632 611.856 395.893 612.08 396.416 612.528C396.939 612.901 397.723 613.237 398.768 613.536C399.813 613.835 401.12 613.909 402.688 613.76C404.331 613.611 406.197 613.051 408.288 612.08C408.288 612.08 408.101 611.931 407.728 611.632C407.429 611.259 406.981 610.885 406.384 610.512C405.861 610.064 405.227 609.691 404.48 609.392C403.733 609.093 402.912 608.981 402.016 609.056C400.821 609.131 399.739 609.392 398.768 609.84C397.797 610.288 397.013 610.736 396.416 611.184C395.893 611.632 395.632 611.856 395.632 611.856ZM409.52 608.272C409.52 608.197 409.557 608.048 409.632 607.824C409.781 607.6 409.893 607.227 409.968 606.704C410.117 606.181 410.08 605.509 409.856 604.688C409.632 603.867 409.147 602.896 408.4 601.776C406.907 599.76 405.525 598.341 404.256 597.52C403.061 596.624 402.464 596.176 402.464 596.176C402.464 596.176 402.464 596.699 402.464 597.744C402.464 598.715 402.613 599.909 402.912 601.328C403.285 602.672 403.957 604.016 404.928 605.36C405.973 606.629 407.504 607.6 409.52 608.272ZM384.32 604.464L376.928 596.624L369.424 588.784H384.32H399.216L391.824 596.624L384.32 604.464ZM388.464 590.128L386 590.464C386.896 592.555 388.539 593.973 390.928 594.72L392.048 593.376C390.331 592.853 389.136 591.771 388.464 590.128ZM385.552 590.464L383.424 589.68C382.901 590.203 382.565 590.949 382.416 591.92C382.267 592.816 382.192 593.749 382.192 594.72C382.192 595.691 382.229 596.549 382.304 597.296C382.453 597.968 382.528 598.341 382.528 598.416L384.992 598.304C384.992 598.229 384.955 597.856 384.88 597.184C384.805 596.512 384.731 595.728 384.656 594.832C384.656 593.936 384.693 593.115 384.768 592.368C384.917 591.547 385.179 590.912 385.552 590.464ZM378.72 592.032C378.123 592.629 377.376 593.077 376.48 593.376L377.824 594.72C379.019 594.272 379.989 593.675 380.736 592.928C381.483 592.181 382.117 591.397 382.64 590.576L380.288 590.016C379.84 590.763 379.317 591.435 378.72 592.032ZM365.056 586.544L364.048 585.536L363.04 584.528L364.048 583.52L365.056 582.624L366.064 583.52L367.072 584.528L366.064 585.536L365.056 586.544ZM374.8 586.544C374.576 586.245 374.315 585.984 374.016 585.76C373.941 585.685 373.867 585.611 373.792 585.536C373.568 585.312 373.344 585.088 373.12 584.864C373.045 584.789 372.933 584.677 372.784 584.528C373.157 584.229 373.493 583.893 373.792 583.52C373.941 583.371 374.091 583.221 374.24 583.072C374.464 582.923 374.651 582.773 374.8 582.624C375.024 582.773 375.248 582.96 375.472 583.184C375.547 583.333 375.659 583.445 375.808 583.52C376.107 583.893 376.405 584.229 376.704 584.528C376.405 584.827 376.107 585.163 375.808 585.536C375.435 585.835 375.099 586.171 374.8 586.544ZM384.544 586.544C384.171 586.171 383.835 585.835 383.536 585.536C383.387 585.387 383.237 585.2 383.088 584.976C382.864 584.827 382.677 584.677 382.528 584.528C382.901 584.229 383.237 583.893 383.536 583.52C383.835 583.221 384.171 582.923 384.544 582.624C384.843 582.923 385.141 583.221 385.44 583.52C385.664 583.744 385.888 583.968 386.112 584.192C386.261 584.267 386.373 584.379 386.448 584.528C386.373 584.603 386.299 584.677 386.224 584.752C386 585.051 385.739 585.312 385.44 585.536C385.365 585.611 385.291 585.723 385.216 585.872C384.992 586.096 384.768 586.32 384.544 586.544ZM394.176 586.544C393.877 586.171 393.579 585.835 393.28 585.536C392.907 585.163 392.571 584.827 392.272 584.528C392.421 584.379 392.571 584.229 392.72 584.08C392.944 583.856 393.131 583.669 393.28 583.52C393.429 583.371 393.579 583.221 393.728 583.072C393.877 582.923 394.027 582.773 394.176 582.624C394.549 582.923 394.885 583.221 395.184 583.52C395.557 583.893 395.893 584.229 396.192 584.528C395.893 584.827 395.557 585.163 395.184 585.536C395.109 585.611 394.997 585.723 394.848 585.872C394.624 586.096 394.4 586.32 394.176 586.544ZM403.92 586.544L403.024 585.536L402.016 584.528L403.024 583.52L403.92 582.624L404.928 583.52L405.936 584.528L404.928 585.536L403.92 586.544ZM384.768 650.608C385.813 650.608 386.672 650.981 387.344 651.728C388.091 652.475 388.464 653.333 388.464 654.304C388.464 655.349 388.091 656.245 387.344 656.992C386.672 657.739 385.813 658.112 384.768 658.112C383.723 658.112 382.827 657.739 382.08 656.992C381.408 656.245 381.072 655.349 381.072 654.304C381.072 653.333 381.408 652.475 382.08 651.728C382.827 650.981 383.723 650.608 384.768 650.608ZM458.58 600.992L458.692 602.672L457.012 602.896L456.788 601.104L458.58 600.992ZM460.26 600.768L458.58 600.992L458.356 599.2L460.036 599.088L460.26 600.768ZM458.132 597.52L458.356 599.2L456.676 599.424L456.452 597.744L458.132 597.52ZM454.884 599.648L456.676 599.424L456.788 601.104L455.108 601.328L454.884 599.648ZM455.444 604.8L455.22 603.008L457.012 602.896L457.124 604.576L455.444 604.8ZM454.548 596.176L456.228 595.952L456.452 597.744L454.772 597.856L454.548 596.176ZM462.5 580.832L479.412 654.864L456.9 658.112L453.428 632.128L444.916 631.792L441.444 658.112L418.932 654.864L426.996 619.696L452.308 623.392L449.172 592.928L447.044 615.104L428.564 612.528L435.844 580.832L449.172 584.08L462.5 580.832ZM445.364 595.392L445.588 593.04L434.612 599.872L444.132 608.496L444.356 606.144L443.012 606.032L443.236 604.576L444.468 604.688V604.016L440.548 603.68L440.66 602.224L444.692 602.56L444.804 601.552L437.3 600.88L437.412 599.312L444.916 600.096L445.028 599.088L440.996 598.64L441.108 597.184L445.14 597.52V596.96L443.908 596.848L444.02 595.28L445.364 595.392ZM432.484 639.072C431.887 639.072 431.402 639.259 431.028 639.632C430.655 640.005 430.468 640.491 430.468 641.088C430.468 641.611 430.655 642.096 431.028 642.544C431.402 642.917 431.887 643.104 432.484 643.104C433.007 643.104 433.455 642.917 433.828 642.544C434.276 642.096 434.5 641.611 434.5 641.088C434.5 640.491 434.276 640.005 433.828 639.632C433.455 639.259 433.007 639.072 432.484 639.072ZM428.452 647.136C428.975 647.136 429.423 646.949 429.796 646.576C430.244 646.128 430.468 645.643 430.468 645.12C430.468 644.523 430.244 644.037 429.796 643.664C429.423 643.291 428.975 643.104 428.452 643.104C427.855 643.104 427.37 643.291 426.996 643.664C426.623 644.037 426.436 644.523 426.436 645.12C426.436 645.643 426.623 646.128 426.996 646.576C427.37 646.949 427.855 647.136 428.452 647.136ZM432.484 651.168C433.007 651.168 433.455 650.981 433.828 650.608C434.276 650.16 434.5 649.675 434.5 649.152C434.5 648.629 434.276 648.181 433.828 647.808C433.455 647.36 433.007 647.136 432.484 647.136C431.887 647.136 431.402 647.36 431.028 647.808C430.655 648.181 430.468 648.629 430.468 649.152C430.468 649.675 430.655 650.16 431.028 650.608C431.402 650.981 431.887 651.168 432.484 651.168ZM436.516 647.136C437.039 647.136 437.487 646.949 437.86 646.576C438.308 646.128 438.532 645.643 438.532 645.12C438.532 644.523 438.308 644.037 437.86 643.664C437.487 643.291 437.039 643.104 436.516 643.104C435.919 643.104 435.434 643.291 435.06 643.664C434.687 644.037 434.5 644.523 434.5 645.12C434.5 645.643 434.687 646.128 435.06 646.576C435.434 646.949 435.919 647.136 436.516 647.136ZM465.86 639.072C465.263 639.072 464.778 639.259 464.404 639.632C464.031 640.005 463.844 640.491 463.844 641.088C463.844 641.611 464.031 642.096 464.404 642.544C464.778 642.917 465.263 643.104 465.86 643.104C466.383 643.104 466.831 642.917 467.204 642.544C467.652 642.096 467.876 641.611 467.876 641.088C467.876 640.491 467.652 640.005 467.204 639.632C466.831 639.259 466.383 639.072 465.86 639.072ZM454.324 608.384L463.62 599.536L452.644 592.928L454.324 608.384ZM461.828 647.136C462.351 647.136 462.799 646.949 463.172 646.576C463.62 646.128 463.844 645.643 463.844 645.12C463.844 644.523 463.62 644.037 463.172 643.664C462.799 643.291 462.351 643.104 461.828 643.104C461.231 643.104 460.746 643.291 460.372 643.664C459.999 644.037 459.812 644.523 459.812 645.12C459.812 645.643 459.999 646.128 460.372 646.576C460.746 646.949 461.231 647.136 461.828 647.136ZM465.86 651.168C466.383 651.168 466.831 650.981 467.204 650.608C467.652 650.16 467.876 649.675 467.876 649.152C467.876 648.629 467.652 648.181 467.204 647.808C466.831 647.36 466.383 647.136 465.86 647.136C465.263 647.136 464.778 647.36 464.404 647.808C464.031 648.181 463.844 648.629 463.844 649.152C463.844 649.675 464.031 650.16 464.404 650.608C464.778 650.981 465.263 651.168 465.86 651.168ZM469.892 647.136C470.415 647.136 470.863 646.949 471.236 646.576C471.684 646.128 471.908 645.643 471.908 645.12C471.908 644.523 471.684 644.037 471.236 643.664C470.863 643.291 470.415 643.104 469.892 643.104C469.295 643.104 468.81 643.291 468.436 643.664C468.063 644.037 467.876 644.523 467.876 645.12C467.876 645.643 468.063 646.128 468.436 646.576C468.81 646.949 469.295 647.136 469.892 647.136ZM449.172 637.84L450.18 641.424L451.3 645.12L450.18 648.816L449.172 652.4L448.052 648.816L447.044 645.12L448.052 641.424L449.172 637.84ZM520.127 580.832L542.079 583.968L527.855 648.48C527.108 651.765 525.391 654.416 522.703 656.432C520.015 658.448 516.618 659.456 512.511 659.456C508.33 659.456 504.858 658.373 502.095 656.208C499.332 653.968 497.54 651.168 496.719 647.808L491.903 626.416L510.383 623.84L512.399 639.296L515.535 615.44L490.223 619.136L482.719 583.968L504.671 580.832L508.143 607.04L516.655 606.704L520.127 580.832ZM499.407 602.784L500.415 597.744L497.839 593.264L495.375 588.784L494.367 593.824L493.247 598.864L495.823 603.344L498.399 607.824L499.407 602.784ZM514.303 652.4L516.207 650.496L514.303 648.592L512.399 646.688L510.495 648.592L508.591 650.496L510.495 652.4L512.399 654.304L514.303 652.4ZM524.943 631.232L526.287 628.768L525.727 626.08L525.167 623.28L523.823 625.744L522.479 628.208L522.927 630.896L523.487 633.584L524.943 631.232ZM526.511 620.928L527.967 618.464L527.407 615.776L526.847 613.088L525.503 615.44L524.047 617.904L524.607 620.592L525.167 623.28L526.511 620.928ZM528.191 610.624L529.535 608.272L529.087 605.472L528.527 602.784L527.071 605.136L525.727 607.6L526.287 610.288L526.847 613.088L528.191 610.624ZM529.647 600.656C530.916 600.656 531.962 600.208 532.783 599.312C533.679 598.416 534.127 597.371 534.127 596.176C534.127 594.907 533.679 593.824 532.783 592.928C531.962 592.032 530.916 591.584 529.647 591.584C528.378 591.584 527.295 592.032 526.399 592.928C525.578 593.824 525.167 594.907 525.167 596.176C525.167 597.371 525.578 598.416 526.399 599.312C527.295 600.208 528.378 600.656 529.647 600.656ZM503.551 621.824L501.087 623.056L498.399 622.384L495.711 621.712L498.175 620.48L500.639 619.248L503.327 619.92L506.015 620.48L503.551 621.824ZM515.535 590.352H508.367L507.471 583.184H516.431L515.535 590.352ZM509.823 596.736C509.823 596.064 510.047 595.504 510.495 595.056C511.018 594.608 511.615 594.384 512.287 594.384C512.959 594.384 513.519 594.608 513.967 595.056C514.415 595.504 514.639 596.064 514.639 596.736C514.639 597.408 514.415 598.005 513.967 598.528C513.519 598.976 512.959 599.2 512.287 599.2C511.615 599.2 511.018 598.976 510.495 598.528C510.047 598.005 509.823 597.408 509.823 596.736ZM576.159 600.992L576.271 602.672L574.591 602.896L574.367 601.104L576.159 600.992ZM577.839 600.768L576.159 600.992L575.935 599.2L577.615 599.088L577.839 600.768ZM575.711 597.52L575.935 599.2L574.255 599.424L574.031 597.744L575.711 597.52ZM572.463 599.648L574.255 599.424L574.367 601.104L572.687 601.328L572.463 599.648ZM573.023 604.8L572.799 603.008L574.591 602.896L574.703 604.576L573.023 604.8ZM572.127 596.176L573.807 595.952L574.031 597.744L572.351 597.856L572.127 596.176ZM580.079 580.832L596.991 654.864L574.479 658.112L571.007 632.128L562.495 631.792L559.023 658.112L536.511 654.864L544.575 619.696L569.887 623.392L566.751 592.928L564.623 615.104L546.143 612.528L553.423 580.832L566.751 584.08L580.079 580.832ZM562.943 595.392L563.167 593.04L552.191 599.872L561.711 608.496L561.935 606.144L560.591 606.032L560.815 604.576L562.047 604.688V604.016L558.127 603.68L558.239 602.224L562.271 602.56L562.383 601.552L554.879 600.88L554.991 599.312L562.495 600.096L562.607 599.088L558.575 598.64L558.687 597.184L562.719 597.52V596.96L561.487 596.848L561.599 595.28L562.943 595.392ZM550.062 639.072C549.465 639.072 548.98 639.259 548.607 639.632C548.233 640.005 548.047 640.491 548.047 641.088C548.047 641.611 548.233 642.096 548.607 642.544C548.98 642.917 549.465 643.104 550.062 643.104C550.585 643.104 551.033 642.917 551.407 642.544C551.855 642.096 552.079 641.611 552.079 641.088C552.079 640.491 551.855 640.005 551.407 639.632C551.033 639.259 550.585 639.072 550.062 639.072ZM546.031 647.136C546.553 647.136 547.001 646.949 547.375 646.576C547.823 646.128 548.047 645.643 548.047 645.12C548.047 644.523 547.823 644.037 547.375 643.664C547.001 643.291 546.553 643.104 546.031 643.104C545.433 643.104 544.948 643.291 544.575 643.664C544.201 644.037 544.015 644.523 544.015 645.12C544.015 645.643 544.201 646.128 544.575 646.576C544.948 646.949 545.433 647.136 546.031 647.136ZM550.062 651.168C550.585 651.168 551.033 650.981 551.407 650.608C551.855 650.16 552.079 649.675 552.079 649.152C552.079 648.629 551.855 648.181 551.407 647.808C551.033 647.36 550.585 647.136 550.062 647.136C549.465 647.136 548.98 647.36 548.607 647.808C548.233 648.181 548.047 648.629 548.047 649.152C548.047 649.675 548.233 650.16 548.607 650.608C548.98 650.981 549.465 651.168 550.062 651.168ZM554.095 647.136C554.617 647.136 555.065 646.949 555.439 646.576C555.887 646.128 556.111 645.643 556.111 645.12C556.111 644.523 555.887 644.037 555.439 643.664C555.065 643.291 554.617 643.104 554.095 643.104C553.497 643.104 553.012 643.291 552.639 643.664C552.265 644.037 552.079 644.523 552.079 645.12C552.079 645.643 552.265 646.128 552.639 646.576C553.012 646.949 553.497 647.136 554.095 647.136ZM583.439 639.072C582.841 639.072 582.356 639.259 581.983 639.632C581.609 640.005 581.423 640.491 581.423 641.088C581.423 641.611 581.609 642.096 581.983 642.544C582.356 642.917 582.841 643.104 583.439 643.104C583.961 643.104 584.409 642.917 584.783 642.544C585.231 642.096 585.455 641.611 585.455 641.088C585.455 640.491 585.231 640.005 584.783 639.632C584.409 639.259 583.961 639.072 583.439 639.072ZM571.903 608.384L581.199 599.536L570.223 592.928L571.903 608.384ZM579.407 647.136C579.929 647.136 580.377 646.949 580.751 646.576C581.199 646.128 581.423 645.643 581.423 645.12C581.423 644.523 581.199 644.037 580.751 643.664C580.377 643.291 579.929 643.104 579.407 643.104C578.809 643.104 578.324 643.291 577.951 643.664C577.577 644.037 577.391 644.523 577.391 645.12C577.391 645.643 577.577 646.128 577.951 646.576C578.324 646.949 578.809 647.136 579.407 647.136ZM583.439 651.168C583.961 651.168 584.409 650.981 584.783 650.608C585.231 650.16 585.455 649.675 585.455 649.152C585.455 648.629 585.231 648.181 584.783 647.808C584.409 647.36 583.961 647.136 583.439 647.136C582.841 647.136 582.356 647.36 581.983 647.808C581.609 648.181 581.423 648.629 581.423 649.152C581.423 649.675 581.609 650.16 581.983 650.608C582.356 650.981 582.841 651.168 583.439 651.168ZM587.471 647.136C587.993 647.136 588.441 646.949 588.815 646.576C589.263 646.128 589.487 645.643 589.487 645.12C589.487 644.523 589.263 644.037 588.815 643.664C588.441 643.291 587.993 643.104 587.471 643.104C586.873 643.104 586.388 643.291 586.015 643.664C585.641 644.037 585.455 644.523 585.455 645.12C585.455 645.643 585.641 646.128 586.015 646.576C586.388 646.949 586.873 647.136 587.471 647.136ZM566.751 637.84L567.759 641.424L568.879 645.12L567.759 648.816L566.751 652.4L565.63 648.816L564.623 645.12L565.63 641.424L566.751 637.84ZM671.181 633.136L686.301 643.328C684.733 648.107 682.082 651.989 678.349 654.976C674.616 657.963 670.248 659.456 665.245 659.456C660.914 659.456 657.218 658.373 654.157 656.208C651.17 653.968 648.856 651.056 647.213 647.472C645.645 643.888 644.749 639.968 644.525 635.712L643.405 610.176H643.293L632.877 597.072L642.621 595.056L641.949 579.376L662.557 580.832L661.885 590.912L666.813 589.792L672.077 600.544L660.877 604.352L659.197 630.224C659.122 631.344 659.16 632.837 659.309 634.704C659.458 636.496 659.944 638.139 660.765 639.632C661.586 641.051 662.856 641.797 664.573 641.872C667.485 641.872 669.688 638.96 671.181 633.136ZM651.805 586.992L650.797 589.68L651.805 592.368L652.813 595.168L653.709 592.368L654.717 589.68L653.709 586.992L652.813 584.192L651.805 586.992ZM641.725 601.776L647.101 606.816L646.877 596.4L641.725 601.776ZM652.925 636.832L654.045 634.144L653.149 631.456L652.365 628.656L651.245 631.456L650.125 634.144L651.021 636.832L651.805 639.52L652.925 636.832ZM654.381 624.624L656.285 622.72L654.493 620.928L652.813 619.136L650.797 620.928L648.893 622.72L650.685 624.624L652.477 626.416L654.381 624.624ZM650.797 611.856L651.805 614.544L652.813 617.232L653.709 614.544L654.717 611.856L653.709 609.168L652.813 606.368L651.805 609.168L650.797 611.856ZM654.605 602.336L656.397 600.544L654.605 598.752L652.813 596.848L650.909 598.752L649.117 600.544L650.909 602.336L652.813 604.24L654.605 602.336ZM658.973 592.704L658.749 603.12L664.125 597.968L658.973 592.704ZM664.909 654.304C665.581 654.304 666.141 654.08 666.589 653.632C667.112 653.109 667.373 652.512 667.373 651.84C667.373 651.168 667.112 650.608 666.589 650.16C666.141 649.637 665.581 649.376 664.909 649.376C664.237 649.376 663.64 649.637 663.117 650.16C662.669 650.608 662.445 651.168 662.445 651.84C662.445 652.512 662.669 653.109 663.117 653.632C663.64 654.08 664.237 654.304 664.909 654.304ZM673.533 647.136L680.253 646.24L672.525 640.416L673.533 647.136ZM672.973 624.288H670.845C670.845 624.288 670.808 624.176 670.733 623.952C670.733 623.653 670.696 623.28 670.621 622.832C670.546 622.384 670.36 621.973 670.061 621.6C669.837 621.152 669.501 620.779 669.053 620.48C668.68 620.181 668.157 620.032 667.485 620.032C666.888 620.032 666.402 620.219 666.029 620.592C665.656 620.891 665.394 621.301 665.245 621.824C665.096 622.272 664.984 622.757 664.909 623.28C664.909 623.803 664.909 624.213 664.909 624.512C664.984 624.811 665.021 624.997 665.021 625.072L662.893 625.296C662.893 625.296 662.856 625.072 662.781 624.624C662.781 624.101 662.781 623.467 662.781 622.72C662.856 621.973 663.042 621.227 663.341 620.48C663.64 619.733 664.125 619.136 664.797 618.688C665.469 618.165 666.365 617.904 667.485 617.904C668.605 617.904 669.501 618.128 670.173 618.576C670.92 618.949 671.48 619.472 671.853 620.144C672.226 620.816 672.488 621.488 672.637 622.16C672.861 622.757 672.973 623.28 672.973 623.728C672.973 624.101 672.973 624.288 672.973 624.288ZM664.237 612.752C664.162 612.677 664.088 612.416 664.013 611.968C664.013 611.445 664.05 610.811 664.125 610.064C664.2 609.317 664.386 608.608 664.685 607.936C664.984 607.189 665.469 606.555 666.141 606.032C666.813 605.509 667.709 605.248 668.829 605.248C669.949 605.248 670.845 605.472 671.517 605.92C672.264 606.368 672.824 606.928 673.197 607.6C673.57 608.197 673.832 608.832 673.981 609.504C674.205 610.101 674.317 610.624 674.317 611.072C674.317 611.52 674.317 611.744 674.317 611.744H672.077C672.077 611.744 672.077 611.595 672.077 611.296C672.077 610.997 672.002 610.661 671.853 610.288C671.778 609.84 671.629 609.429 671.405 609.056C671.181 608.608 670.845 608.235 670.397 607.936C670.024 607.637 669.501 607.488 668.829 607.488C668.157 607.488 667.634 607.675 667.261 608.048C666.962 608.347 666.738 608.757 666.589 609.28C666.44 609.728 666.328 610.213 666.253 610.736C666.253 611.184 666.253 611.595 666.253 611.968C666.328 612.267 666.365 612.416 666.365 612.416L664.237 612.752ZM710.752 629.216L713.328 658.112H692.72L694.288 610.96L708.848 608.832L709.408 614.096L734.272 608.832L739.536 619.472L710.752 629.216ZM730.128 612.864L728.336 616.224L731.472 618.016L733.264 614.656L730.128 612.864ZM725.312 616L720.832 617.344L721.504 619.696L725.984 618.352L725.312 616ZM715.232 617.568L713.44 620.816L716.576 622.608L718.48 619.248L715.232 617.568ZM702.912 637.056L705.376 634.48L702.688 631.792L700.112 634.48L702.912 637.056ZM704.48 644.56L704.256 639.856H701.904L702.016 644.56H704.48ZM703.472 652.624L706.048 650.048L703.248 647.36L700.784 650.048L703.472 652.624ZM704.256 626.304C705.077 625.035 706.011 623.989 707.056 623.168C705.936 622.272 704.928 621.227 704.032 620.032C703.211 618.837 702.501 617.605 701.904 616.336C700.859 619.024 699.44 621.301 697.648 623.168C699.589 624.96 701.195 627.2 702.464 629.888C702.987 628.619 703.584 627.424 704.256 626.304ZM760.228 596.624L745.668 594.496L745.444 580.832H761.236L760.228 596.624ZM750.484 588.672V590.352L751.94 591.248L753.396 592.032L754.852 591.248L756.308 590.352V588.672V586.992L754.852 586.208L753.396 585.312L751.94 586.208L750.484 586.992V588.672ZM760.676 608.832L765.156 658.112H744.548L746.116 610.96L760.676 608.832ZM753.62 612.864L750.596 615.776L753.62 618.688L756.532 615.776L753.62 612.864ZM748.02 617.12L747.908 618.016L750.708 620.144L751.604 619.808L751.716 618.8L748.916 616.672L748.02 617.12ZM753.508 651.728H755.972L755.748 647.024H753.396L753.508 651.728ZM754.292 641.76L756.868 639.072L754.18 636.496L751.604 639.072L754.292 641.76ZM755.748 632.464C756.569 631.269 757.503 630.224 758.548 629.328C757.428 628.507 756.42 627.461 755.524 626.192C754.703 625.072 753.993 623.877 753.396 622.608C752.351 625.296 750.932 627.536 749.14 629.328C751.081 631.12 752.687 633.397 753.956 636.16C754.479 634.816 755.076 633.584 755.748 632.464ZM756.42 620.144L759.22 618.016L759.108 617.12L758.212 616.672L755.412 618.8L755.524 619.808L756.42 620.144ZM809.549 610.176C815.149 610.176 819.554 611.931 822.765 615.44C826.05 618.875 827.693 623.653 827.693 629.776C827.693 635.973 825.117 641.611 819.965 646.688C814.813 651.765 807.645 655.013 798.461 656.432L776.845 658.112V580.832L791.517 581.28L794.205 610.176H809.549ZM784.461 608.272L783.117 609.728L784.573 611.184L786.029 612.64L787.373 611.184L788.717 609.728L787.261 608.272L785.805 606.704L784.461 608.272ZM788.717 645.568L790.061 644.112L788.605 642.544L787.149 641.088L785.805 642.544L784.573 644.112L786.029 645.568L787.485 647.024L788.717 645.568ZM788.941 628.768L791.181 626.304L788.717 623.952L786.365 621.488L784.237 623.952L782.109 626.304L784.461 628.768L786.813 631.12L788.941 628.768ZM794.877 617.232L795.549 625.072C797.565 624.4 799.656 623.915 801.821 623.616C801.149 621.003 800.104 618.949 798.685 617.456L794.877 617.232ZM796.333 633.136L802.829 631.792C802.754 630.373 802.642 628.88 802.493 627.312C800.104 627.611 797.938 628.171 795.997 628.992L796.333 633.136ZM803.613 617.792C804.434 619.435 805.069 621.227 805.517 623.168C807.01 623.093 808.354 623.056 809.549 623.056L808.989 618.128L803.613 617.792ZM806.637 631.008L810.445 630.112L809.997 626.864C808.877 626.864 807.645 626.901 806.301 626.976C806.45 628.32 806.562 629.664 806.637 631.008ZM884.122 613.088L876.058 643.888L858.586 640.528L859.482 648.256L874.378 651.728L872.586 659.456L844.25 653.856L834.058 613.424L853.994 610.176H869.562L884.122 613.088ZM845.146 631.12L846.042 632.576L847.722 632.8L850.522 628.096L849.626 626.64L847.946 626.416L845.146 631.12ZM852.65 645.12L853.098 643.664L848.73 638.96L847.162 639.184L846.714 640.64L851.082 645.344L852.65 645.12ZM853.994 639.632L856.57 636.496L852.874 633.36L850.298 636.496L853.994 639.632ZM866.09 632.128L868.33 618.128H855.338L857.466 631.792L866.09 632.128Z" fill="#FED707"/>
<path d="M153.92 741.56L156.96 719.88L167.84 721.08L166.48 774.44L147.36 754.04L127.76 775.08L123.36 721.88L139.12 719.88L140.16 741.56L145.44 726.84H149.28L153.92 741.56ZM178.259 739.88L199.699 744.12L206.979 772.76L193.859 775.08H182.819L170.099 772.76L175.859 750.92L190.579 753.48L190.019 748.04L176.979 745.4L178.259 739.88ZM183.699 769.4H192.979L191.459 759.72L185.299 759.48L183.699 769.4ZM231.868 757.88V742.2H245.068L239.948 775.08H235.228L224.428 764.04L223.548 776.04L213.628 774.92V739.88L231.868 757.88ZM266.782 763.56C268.862 763.507 270.435 761.4 271.502 757.24L282.302 764.52C281.182 767.933 279.289 770.707 276.622 772.84C273.955 774.973 270.835 776.04 267.262 776.04C264.169 776.04 261.529 775.267 259.342 773.72C257.209 772.12 255.555 770.067 254.382 767.56C253.262 765 252.622 762.173 252.462 759.08L251.662 740.84H251.582L244.142 731.56L251.102 730.04L250.622 718.84L265.342 719.88L264.862 727.08L268.382 726.36L272.142 733.96L264.142 736.68L262.942 755.16C262.889 755.96 262.915 757.027 263.022 758.36C263.129 759.64 263.475 760.813 264.062 761.88C264.649 762.893 265.555 763.453 266.782 763.56ZM328.891 763.56C330.971 763.507 332.545 761.4 333.611 757.24L344.411 764.52C343.291 767.933 341.398 770.707 338.731 772.84C336.065 774.973 332.945 776.04 329.371 776.04C326.278 776.04 323.638 775.267 321.451 773.72C319.318 772.12 317.665 770.067 316.491 767.56C315.371 765 314.731 762.173 314.571 759.08L313.771 740.84H313.691L306.251 731.56L313.211 730.04L312.731 718.84L327.451 719.88L326.971 727.08L330.491 726.36L334.251 733.96L326.251 736.68L325.051 755.16C324.998 755.96 325.025 757.027 325.131 758.36C325.238 759.64 325.585 760.813 326.171 761.88C326.758 762.893 327.665 763.453 328.891 763.56ZM364.849 739.88C369.809 739.88 374.023 741.64 377.489 745.16C381.009 748.68 382.769 752.947 382.769 757.96C382.769 762.973 381.009 767.24 377.489 770.76C374.023 774.28 369.809 776.04 364.849 776.04C359.943 776.04 355.729 774.28 352.209 770.76C348.743 767.24 347.009 762.973 347.009 757.96C347.009 752.947 348.743 748.68 352.209 745.16C355.729 741.64 359.943 739.88 364.849 739.88ZM364.849 763.88C366.609 763.88 367.969 763.027 368.929 761.32C369.943 759.56 370.449 757.453 370.449 755C370.449 752.547 369.943 750.467 368.929 748.76C367.969 747 366.609 746.12 364.849 746.12C363.143 746.12 361.783 747 360.769 748.76C359.809 750.467 359.329 752.547 359.329 755C359.329 757.453 359.809 759.56 360.769 761.32C361.783 763.027 363.143 763.88 364.849 763.88ZM440.738 740.84C444.738 740.84 447.885 742.093 450.178 744.6C452.525 747.053 453.698 750.467 453.698 754.84C453.698 759.267 451.858 763.293 448.178 766.92C444.498 770.547 439.378 772.867 432.818 773.88L417.378 775.08V719.88L427.858 720.2L429.778 740.84H440.738ZM431.298 757.24L441.378 755.08L440.338 746.52L430.258 745.88L431.298 757.24ZM461.764 775.08L460.324 718.84L475.364 720.04L473.444 775.08H461.764ZM507.044 740.84L517.444 742.92L511.604 764.92L499.204 762.52L499.764 768.04L510.484 770.52L509.204 776.04L488.964 772.04L481.604 743.16L495.924 740.84H507.044ZM504.564 756.52L506.164 746.52H496.804L498.324 756.28L504.564 756.52ZM536.83 751.8C535.55 750.893 534.51 750.573 533.71 750.84C532.91 751.107 532.457 751.667 532.35 752.52C532.297 753.32 532.697 754.12 533.55 754.92L544.35 763.88C545.683 765.053 546.297 766.493 546.19 768.2C546.083 769.907 545.283 771.4 543.79 772.68C542.723 773.587 541.657 774.307 540.59 774.84C539.577 775.373 538.163 775.747 536.35 775.96C533.843 776.173 531.79 776.04 530.19 775.56C528.59 775.133 527.07 774.333 525.63 773.16L519.87 768.68L524.91 762.6L534.19 769.64C534.51 769.853 534.83 769.907 535.15 769.8C535.523 769.64 535.763 769.4 535.87 769.08C536.03 768.76 535.95 768.44 535.63 768.12L526.51 760.76C524.323 759.107 522.91 757.427 522.27 755.72C521.683 754.013 522.03 751.987 523.31 749.64C524.643 747.24 526.457 745.08 528.75 743.16C530.777 741.453 532.75 740.413 534.67 740.04C536.59 739.667 538.883 739.853 541.55 740.6L551.31 745.4L542.35 755.96L536.83 751.8ZM569.955 751.8C568.675 750.893 567.635 750.573 566.835 750.84C566.035 751.107 565.582 751.667 565.475 752.52C565.422 753.32 565.822 754.12 566.675 754.92L577.475 763.88C578.808 765.053 579.422 766.493 579.315 768.2C579.208 769.907 578.408 771.4 576.915 772.68C575.848 773.587 574.782 774.307 573.715 774.84C572.702 775.373 571.288 775.747 569.475 775.96C566.968 776.173 564.915 776.04 563.315 775.56C561.715 775.133 560.195 774.333 558.755 773.16L552.995 768.68L558.035 762.6L567.315 769.64C567.635 769.853 567.955 769.907 568.275 769.8C568.648 769.64 568.888 769.4 568.995 769.08C569.155 768.76 569.075 768.44 568.755 768.12L559.635 760.76C557.448 759.107 556.035 757.427 555.395 755.72C554.808 754.013 555.155 751.987 556.435 749.64C557.768 747.24 559.582 745.08 561.875 743.16C563.902 741.453 565.875 740.413 567.795 740.04C569.715 739.667 572.008 739.853 574.675 740.6L584.435 745.4L575.475 755.96L569.955 751.8ZM636.751 768.76L634.831 740.84L649.471 739.88L647.631 779.16C647.525 782.2 646.885 785 645.711 787.56C644.538 790.12 642.858 792.173 640.671 793.72C638.538 795.32 635.925 796.12 632.831 796.12C629.258 796.12 626.138 795.053 623.471 792.92C620.805 790.787 618.911 788.013 617.791 784.6L628.591 777.32C629.658 781.48 631.258 783.56 633.391 783.56C634.618 783.507 635.498 782.947 636.031 781.88C636.618 780.867 636.965 779.693 637.071 778.36C637.231 777.08 637.258 776.04 637.151 775.24L637.071 773.96L626.751 772.92C623.445 772.547 621.018 771.48 619.471 769.72C617.925 767.907 617.098 765.64 616.991 762.92L615.551 741.08L629.871 739.88L627.471 766.68L636.751 768.76ZM674.068 739.88C679.028 739.88 683.241 741.64 686.708 745.16C690.228 748.68 691.988 752.947 691.988 757.96C691.988 762.973 690.228 767.24 686.708 770.76C683.241 774.28 679.028 776.04 674.068 776.04C669.161 776.04 664.948 774.28 661.428 770.76C657.961 767.24 656.228 762.973 656.228 757.96C656.228 752.947 657.961 748.68 661.428 745.16C664.948 741.64 669.161 739.88 674.068 739.88ZM674.068 763.88C675.828 763.88 677.188 763.027 678.148 761.32C679.161 759.56 679.668 757.453 679.668 755C679.668 752.547 679.161 750.467 678.148 748.76C677.188 747 675.828 746.12 674.068 746.12C672.361 746.12 671.001 747 669.988 748.76C669.028 750.467 668.548 752.547 668.548 755C668.548 757.453 669.028 759.56 669.988 761.32C671.001 763.027 672.361 763.88 674.068 763.88ZM729.406 739.88C730.739 739.88 731.886 740.36 732.846 741.32C733.859 742.28 734.366 743.427 734.366 744.76V758.6C734.366 763.453 732.579 767.587 729.006 771C725.486 774.36 721.299 776.04 716.446 776.04C711.646 776.04 707.512 774.387 704.046 771.08C700.579 767.72 698.766 763.56 698.606 758.6V744.76C698.606 743.427 699.086 742.28 700.046 741.32C701.006 740.36 702.179 739.88 703.566 739.88L709.406 750.04H711.326V758.6C711.326 760.2 711.859 761.48 712.926 762.44C713.992 763.4 715.166 763.88 716.446 763.88C717.726 763.88 718.872 763.4 719.886 762.44C720.952 761.48 721.539 760.2 721.646 758.6L721.566 750.04H723.566L729.406 739.88ZM786.183 718.84C789.756 718.84 792.983 719.933 795.863 722.12C798.796 724.253 800.823 727.027 801.943 730.44L790.103 737.64C789.57 735.453 788.77 733.827 787.703 732.76C786.69 731.693 785.623 731.24 784.503 731.4C783.436 731.56 782.583 732.333 781.943 733.72C781.356 735.107 781.196 737.107 781.463 739.72L782.343 746.6L790.103 744.92V755L783.143 753.48L785.703 774.12L770.263 775.08V735.8C770.37 731.16 771.89 727.187 774.823 723.88C777.756 720.52 781.543 718.84 786.183 718.84ZM815.865 739.88C820.825 739.88 825.038 741.64 828.505 745.16C832.025 748.68 833.785 752.947 833.785 757.96C833.785 762.973 832.025 767.24 828.505 770.76C825.038 774.28 820.825 776.04 815.865 776.04C810.958 776.04 806.745 774.28 803.225 770.76C799.758 767.24 798.025 762.973 798.025 757.96C798.025 752.947 799.758 748.68 803.225 745.16C806.745 741.64 810.958 739.88 815.865 739.88ZM815.865 763.88C817.625 763.88 818.985 763.027 819.945 761.32C820.958 759.56 821.465 757.453 821.465 755C821.465 752.547 820.958 750.467 819.945 748.76C818.985 747 817.625 746.12 815.865 746.12C814.158 746.12 812.798 747 811.785 748.76C810.825 750.467 810.345 752.547 810.345 755C810.345 757.453 810.825 759.56 811.785 761.32C812.798 763.027 814.158 763.88 815.865 763.88ZM874.323 747.48L853.763 754.44L855.603 775.08H840.883L842.003 741.4L852.403 739.88L852.803 743.64L870.563 739.88L874.323 747.48ZM144.72 848.76L142.8 820.84L157.44 819.88L155.6 859.16C155.493 862.2 154.853 865 153.68 867.56C152.507 870.12 150.827 872.173 148.64 873.72C146.507 875.32 143.893 876.12 140.8 876.12C137.227 876.12 134.107 875.053 131.44 872.92C128.773 870.787 126.88 868.013 125.76 864.6L136.56 857.32C137.627 861.48 139.227 863.56 141.36 863.56C142.587 863.507 143.467 862.947 144 861.88C144.587 860.867 144.933 859.693 145.04 858.36C145.2 857.08 145.227 856.04 145.12 855.24L145.04 853.96L134.72 852.92C131.413 852.547 128.987 851.48 127.44 849.72C125.893 847.907 125.067 845.64 124.96 842.92L123.52 821.08L137.84 819.88L135.44 846.68L144.72 848.76ZM182.037 819.88C186.997 819.88 191.21 821.64 194.677 825.16C198.197 828.68 199.957 832.947 199.957 837.96C199.957 842.973 198.197 847.24 194.677 850.76C191.21 854.28 186.997 856.04 182.037 856.04C177.13 856.04 172.917 854.28 169.397 850.76C165.93 847.24 164.197 842.973 164.197 837.96C164.197 832.947 165.93 828.68 169.397 825.16C172.917 821.64 177.13 819.88 182.037 819.88ZM182.037 843.88C183.797 843.88 185.157 843.027 186.117 841.32C187.13 839.56 187.637 837.453 187.637 835C187.637 832.547 187.13 830.467 186.117 828.76C185.157 827 183.797 826.12 182.037 826.12C180.33 826.12 178.97 827 177.957 828.76C176.997 830.467 176.517 832.547 176.517 835C176.517 837.453 176.997 839.56 177.957 841.32C178.97 843.027 180.33 843.88 182.037 843.88ZM237.374 819.88C238.708 819.88 239.854 820.36 240.814 821.32C241.828 822.28 242.334 823.427 242.334 824.76V838.6C242.334 843.453 240.548 847.587 236.974 851C233.454 854.36 229.268 856.04 224.414 856.04C219.614 856.04 215.481 854.387 212.014 851.08C208.548 847.72 206.734 843.56 206.574 838.6V824.76C206.574 823.427 207.054 822.28 208.014 821.32C208.974 820.36 210.148 819.88 211.534 819.88L217.374 830.04H219.294V838.6C219.294 840.2 219.828 841.48 220.894 842.44C221.961 843.4 223.134 843.88 224.414 843.88C225.694 843.88 226.841 843.4 227.854 842.44C228.921 841.48 229.508 840.2 229.614 838.6L229.534 830.04H231.534L237.374 819.88ZM284.401 827.48L263.841 834.44L265.681 855.08H250.961L252.081 821.4L262.481 819.88L262.881 823.64L280.641 819.88L284.401 827.48ZM333.57 820.84L349.01 819.88L349.09 859.16C348.983 863.853 347.437 867.853 344.45 871.16C341.517 874.467 337.757 876.12 333.17 876.12C329.543 876.12 326.29 875.053 323.41 872.92C320.53 870.787 318.503 868.013 317.33 864.6L329.25 857.32C329.783 859.56 330.557 861.187 331.57 862.2C332.637 863.267 333.703 863.72 334.77 863.56C335.837 863.4 336.69 862.627 337.33 861.24C337.97 859.853 338.13 857.853 337.81 855.24V855.08H329.17C326.503 855.08 323.997 854.493 321.65 853.32C319.303 852.147 317.383 850.493 315.89 848.36C314.397 846.173 313.65 843.613 313.65 840.68C313.65 836.253 315.33 832.12 318.69 828.28C322.103 824.387 327.063 821.907 333.57 820.84ZM325.09 840.12L336.61 842.6L335.09 830.84L326.05 831.48L325.09 840.12ZM392.604 827.48L372.044 834.44L373.884 855.08H359.164L360.284 821.4L370.684 819.88L371.084 823.64L388.844 819.88L392.604 827.48ZM419.622 820.84L430.022 822.92L424.182 844.92L411.782 842.52L412.342 848.04L423.062 850.52L421.782 856.04L401.542 852.04L394.182 823.16L408.502 820.84H419.622ZM417.142 836.52L418.742 826.52H409.382L410.902 836.28L417.142 836.52ZM440.368 819.88L461.808 824.12L469.088 852.76L455.968 855.08H444.928L432.208 852.76L437.968 830.92L452.688 833.48L452.128 828.04L439.088 825.4L440.368 819.88ZM445.808 849.4H455.088L453.568 839.72L447.408 839.48L445.808 849.4ZM490.298 843.56C492.378 843.507 493.951 841.4 495.018 837.24L505.818 844.52C504.698 847.933 502.804 850.707 500.138 852.84C497.471 854.973 494.351 856.04 490.778 856.04C487.684 856.04 485.044 855.267 482.858 853.72C480.724 852.12 479.071 850.067 477.898 847.56C476.778 845 476.138 842.173 475.978 839.08L475.178 820.84H475.098L467.657 811.56L474.618 810.04L474.138 798.84L488.858 799.88L488.378 807.08L491.898 806.36L495.658 813.96L487.658 816.68L486.458 835.16C486.404 835.96 486.431 837.027 486.538 838.36C486.644 839.64 486.991 840.813 487.578 841.88C488.164 842.893 489.071 843.453 490.298 843.56ZM558.647 843.8C559.98 845.027 560.594 846.493 560.487 848.2C560.38 849.907 559.58 851.373 558.087 852.6C557.02 853.56 555.954 854.307 554.887 854.84C553.874 855.373 552.46 855.72 550.647 855.88C548.14 856.147 546.087 856.04 544.487 855.56C542.887 855.133 541.367 854.333 539.927 853.16L534.167 848.68L539.207 842.6L548.487 849.64C548.807 849.853 549.127 849.907 549.447 849.8C549.82 849.64 550.06 849.4 550.167 849.08C550.327 848.76 550.247 848.44 549.927 848.12L540.807 840.76C538.62 839.053 537.207 837.373 536.567 835.72C535.98 834.013 536.327 831.987 537.607 829.64C538.94 827.24 540.754 825.08 543.047 823.16C545.074 821.453 547.047 820.413 548.967 820.04C550.887 819.667 553.18 819.827 555.847 820.52L565.607 825.4L556.647 835.96L551.127 831.8C549.847 830.893 548.807 830.573 548.007 830.84C547.207 831.107 546.754 831.667 546.647 832.52C546.594 833.32 546.994 834.12 547.847 834.92L558.647 843.8ZM556.007 832.44C556.54 830.84 556.274 829.133 555.207 827.32L553.927 828.12C554.727 829.56 554.94 830.84 554.567 831.96L556.007 832.44ZM557.447 824.44L556.887 825.88C557.634 826.253 558.434 826.52 559.287 826.68C560.14 826.84 560.967 826.84 561.767 826.68L561.447 825.24C560.807 825.347 560.194 825.32 559.607 825.16C558.914 825.053 558.194 824.813 557.447 824.44ZM553.607 824.12L553.367 825.64C553.794 825.747 554.3 826.067 554.887 826.6C555.527 827.08 556.14 827.64 556.727 828.28C557.367 828.92 557.9 829.507 558.327 830.04C558.754 830.52 558.967 830.787 558.967 830.84L560.167 829.88C560.114 829.827 559.847 829.533 559.367 829C558.94 828.467 558.38 827.853 557.687 827.16C556.994 826.413 556.274 825.773 555.527 825.24C554.834 824.653 554.194 824.28 553.607 824.12ZM541.687 849.96V847.4H539.127V849.96H541.687ZM544.807 826.52C544.807 826.893 544.94 827.213 545.207 827.48C545.527 827.747 545.874 827.88 546.247 827.88C546.62 827.88 546.94 827.747 547.207 827.48C547.474 827.213 547.607 826.893 547.607 826.52C547.607 826.147 547.474 825.827 547.207 825.56C546.94 825.293 546.62 825.16 546.247 825.16C545.874 825.16 545.527 825.293 545.207 825.56C544.94 825.827 544.807 826.147 544.807 826.52ZM546.647 841.16L550.807 841.08L546.567 837.08L546.647 841.16ZM551.767 845.96L555.847 845.88L551.607 841.88L551.767 845.96ZM600.812 819.88C602.145 819.88 603.292 820.36 604.252 821.32C605.265 822.28 605.772 823.427 605.772 824.76V838.6C605.772 843.453 603.985 847.587 600.412 851C596.892 854.36 592.705 856.04 587.852 856.04C583.052 856.04 578.919 854.387 575.452 851.08C571.985 847.72 570.172 843.56 570.012 838.6V824.76C570.012 823.427 570.492 822.28 571.452 821.32C572.412 820.36 573.585 819.88 574.972 819.88L580.812 830.04H582.732V838.6C582.732 840.2 583.265 841.48 584.332 842.44C585.399 843.4 586.572 843.88 587.852 843.88C589.132 843.88 590.279 843.4 591.292 842.44C592.359 841.48 592.945 840.2 593.052 838.6L592.972 830.04H594.972L600.812 819.88ZM576.492 827.32L574.572 832.44L576.492 837.56L578.412 832.44L576.492 827.32ZM578.332 845V843.72H574.652V845H578.332ZM579.932 841.64V840.28H573.052V841.64H579.932ZM589.212 851.56L590.572 850.28L589.212 849L587.932 847.64L586.652 849L585.292 850.28L586.652 851.56L587.932 852.92L589.212 851.56ZM600.092 827.32L598.172 832.44L600.092 837.56L601.932 832.44L600.092 827.32ZM601.932 845V843.72H598.252V845H601.932ZM603.532 841.64V840.28H596.572V841.64H603.532ZM591.692 823.72H584.012L581.612 819.88H594.092L591.692 823.72ZM585.852 835.56H584.492V830.12H585.852V835.56ZM591.292 835.56H589.852V830.12H591.292V835.56ZM588.572 837.8H587.132V827.56H588.572V837.8ZM634.238 835.8L647.278 843.64C646.051 847.32 643.891 850.307 640.798 852.6C637.758 854.893 634.265 856.04 630.318 856.04C625.411 856.04 621.198 854.28 617.678 850.76C614.211 847.24 612.478 842.973 612.478 837.96C612.478 832.947 614.211 828.68 617.678 825.16C621.198 821.64 625.411 819.88 630.318 819.88C635.011 819.88 639.065 821.48 642.478 824.68L633.838 831.4C632.878 827.88 631.438 826.12 629.518 826.12C628.185 826.12 627.065 827 626.158 828.76C625.251 830.467 624.798 832.547 624.798 835C624.798 837.453 625.251 839.56 626.158 841.32C627.065 843.027 628.185 843.88 629.518 843.88C630.745 843.88 631.785 843.133 632.638 841.64C633.545 840.093 634.078 838.147 634.238 835.8ZM619.758 829.16C619.491 829.16 619.251 829.293 619.038 829.56C618.825 829.773 618.718 830.067 618.718 830.44C618.718 830.76 618.825 831.053 619.038 831.32C619.251 831.587 619.491 831.72 619.758 831.72C620.025 831.72 620.238 831.587 620.398 831.32C620.611 831.053 620.718 830.76 620.718 830.44C620.718 830.067 620.611 829.773 620.398 829.56C620.238 829.293 620.025 829.16 619.758 829.16ZM619.758 846.76L621.198 844.92L619.758 843L618.318 844.92L619.758 846.76ZM619.758 840.92C620.718 839.587 621.945 838.493 623.438 837.64C622.745 837.267 622.078 836.813 621.438 836.28C620.798 835.693 620.238 835 619.758 834.2C619.278 835 618.691 835.693 617.998 836.28C617.358 836.813 616.691 837.267 615.998 837.64C617.491 838.493 618.745 839.587 619.758 840.92ZM629.758 831.4C630.718 831.4 631.411 831.853 631.838 832.76H639.838V834.6H631.838C631.411 835.507 630.718 835.96 629.758 835.96C629.171 835.96 628.638 835.747 628.158 835.32C627.731 834.84 627.518 834.28 627.518 833.64C627.518 833.053 627.731 832.547 628.158 832.12C628.638 831.64 629.171 831.4 629.758 831.4ZM672.129 835.8L685.169 843.64C683.942 847.32 681.782 850.307 678.689 852.6C675.649 854.893 672.155 856.04 668.209 856.04C663.302 856.04 659.089 854.28 655.569 850.76C652.102 847.24 650.369 842.973 650.369 837.96C650.369 832.947 652.102 828.68 655.569 825.16C659.089 821.64 663.302 819.88 668.209 819.88C672.902 819.88 676.955 821.48 680.369 824.68L671.729 831.4C670.769 827.88 669.329 826.12 667.409 826.12C666.075 826.12 664.955 827 664.049 828.76C663.142 830.467 662.689 832.547 662.689 835C662.689 837.453 663.142 839.56 664.049 841.32C664.955 843.027 666.075 843.88 667.409 843.88C668.635 843.88 669.675 843.133 670.529 841.64C671.435 840.093 671.969 838.147 672.129 835.8ZM657.649 829.16C657.382 829.16 657.142 829.293 656.929 829.56C656.715 829.773 656.609 830.067 656.609 830.44C656.609 830.76 656.715 831.053 656.929 831.32C657.142 831.587 657.382 831.72 657.649 831.72C657.915 831.72 658.129 831.587 658.289 831.32C658.502 831.053 658.609 830.76 658.609 830.44C658.609 830.067 658.502 829.773 658.289 829.56C658.129 829.293 657.915 829.16 657.649 829.16ZM657.649 846.76L659.089 844.92L657.649 843L656.209 844.92L657.649 846.76ZM657.649 840.92C658.609 839.587 659.835 838.493 661.329 837.64C660.635 837.267 659.969 836.813 659.329 836.28C658.689 835.693 658.129 835 657.649 834.2C657.169 835 656.582 835.693 655.889 836.28C655.249 836.813 654.582 837.267 653.889 837.64C655.382 838.493 656.635 839.587 657.649 840.92ZM667.649 831.4C668.609 831.4 669.302 831.853 669.729 832.76H677.729V834.6H669.729C669.302 835.507 668.609 835.96 667.649 835.96C667.062 835.96 666.529 835.747 666.049 835.32C665.622 834.84 665.409 834.28 665.409 833.64C665.409 833.053 665.622 832.547 666.049 832.12C666.529 831.64 667.062 831.4 667.649 831.4ZM723.379 822.92L717.619 844.92L705.139 842.52L705.779 848.04L716.419 850.52L715.139 856.04L694.899 852.04L687.619 823.16L701.859 820.84H712.979L723.379 822.92ZM695.539 835.8L696.179 836.84L697.379 837L699.379 833.64L698.739 832.6L697.539 832.44L695.539 835.8ZM700.899 845.8L701.219 844.76L698.099 841.4L696.979 841.56L696.659 842.6L699.779 845.96L700.899 845.8ZM701.859 841.88L703.699 839.64L701.059 837.4L699.219 839.64L701.859 841.88ZM710.499 836.52L712.099 826.52H702.819L704.339 836.28L710.499 836.52ZM750.209 843.8C751.543 845.027 752.156 846.493 752.049 848.2C751.943 849.907 751.143 851.373 749.649 852.6C748.583 853.56 747.516 854.307 746.449 854.84C745.436 855.373 744.023 855.72 742.209 855.88C739.703 856.147 737.649 856.04 736.049 855.56C734.449 855.133 732.929 854.333 731.489 853.16L725.729 848.68L730.769 842.6L740.049 849.64C740.369 849.853 740.689 849.907 741.009 849.8C741.383 849.64 741.623 849.4 741.729 849.08C741.889 848.76 741.809 848.44 741.489 848.12L732.369 840.76C730.183 839.053 728.769 837.373 728.129 835.72C727.543 834.013 727.889 831.987 729.169 829.64C730.503 827.24 732.316 825.08 734.609 823.16C736.636 821.453 738.609 820.413 740.529 820.04C742.449 819.667 744.743 819.827 747.409 820.52L757.169 825.4L748.209 835.96L742.689 831.8C741.409 830.893 740.369 830.573 739.569 830.84C738.769 831.107 738.316 831.667 738.209 832.52C738.156 833.32 738.556 834.12 739.409 834.92L750.209 843.8ZM747.569 832.44C748.103 830.84 747.836 829.133 746.769 827.32L745.489 828.12C746.289 829.56 746.503 830.84 746.129 831.96L747.569 832.44ZM749.009 824.44L748.449 825.88C749.196 826.253 749.996 826.52 750.849 826.68C751.703 826.84 752.529 826.84 753.329 826.68L753.009 825.24C752.369 825.347 751.756 825.32 751.169 825.16C750.476 825.053 749.756 824.813 749.009 824.44ZM745.169 824.12L744.929 825.64C745.356 825.747 745.863 826.067 746.449 826.6C747.089 827.08 747.703 827.64 748.289 828.28C748.929 828.92 749.463 829.507 749.889 830.04C750.316 830.52 750.529 830.787 750.529 830.84L751.729 829.88C751.676 829.827 751.409 829.533 750.929 829C750.503 828.467 749.943 827.853 749.249 827.16C748.556 826.413 747.836 825.773 747.089 825.24C746.396 824.653 745.756 824.28 745.169 824.12ZM733.249 849.96V847.4H730.689V849.96H733.249ZM736.369 826.52C736.369 826.893 736.503 827.213 736.769 827.48C737.089 827.747 737.436 827.88 737.809 827.88C738.183 827.88 738.503 827.747 738.769 827.48C739.036 827.213 739.169 826.893 739.169 826.52C739.169 826.147 739.036 825.827 738.769 825.56C738.503 825.293 738.183 825.16 737.809 825.16C737.436 825.16 737.089 825.293 736.769 825.56C736.503 825.827 736.369 826.147 736.369 826.52ZM738.209 841.16L742.369 841.08L738.129 837.08L738.209 841.16ZM743.329 845.96L747.409 845.88L743.169 841.88L743.329 845.96ZM783.334 843.8C784.668 845.027 785.281 846.493 785.174 848.2C785.068 849.907 784.268 851.373 782.774 852.6C781.708 853.56 780.641 854.307 779.574 854.84C778.561 855.373 777.148 855.72 775.334 855.88C772.828 856.147 770.774 856.04 769.174 855.56C767.574 855.133 766.054 854.333 764.614 853.16L758.854 848.68L763.894 842.6L773.174 849.64C773.494 849.853 773.814 849.907 774.134 849.8C774.508 849.64 774.748 849.4 774.854 849.08C775.014 848.76 774.934 848.44 774.614 848.12L765.494 840.76C763.308 839.053 761.894 837.373 761.254 835.72C760.668 834.013 761.014 831.987 762.294 829.64C763.628 827.24 765.441 825.08 767.734 823.16C769.761 821.453 771.734 820.413 773.654 820.04C775.574 819.667 777.868 819.827 780.534 820.52L790.294 825.4L781.334 835.96L775.814 831.8C774.534 830.893 773.494 830.573 772.694 830.84C771.894 831.107 771.441 831.667 771.334 832.52C771.281 833.32 771.681 834.12 772.534 834.92L783.334 843.8ZM780.694 832.44C781.228 830.84 780.961 829.133 779.894 827.32L778.614 828.12C779.414 829.56 779.628 830.84 779.254 831.96L780.694 832.44ZM782.134 824.44L781.574 825.88C782.321 826.253 783.121 826.52 783.974 826.68C784.828 826.84 785.654 826.84 786.454 826.68L786.134 825.24C785.494 825.347 784.881 825.32 784.294 825.16C783.601 825.053 782.881 824.813 782.134 824.44ZM778.294 824.12L778.054 825.64C778.481 825.747 778.988 826.067 779.574 826.6C780.214 827.08 780.828 827.64 781.414 828.28C782.054 828.92 782.588 829.507 783.014 830.04C783.441 830.52 783.654 830.787 783.654 830.84L784.854 829.88C784.801 829.827 784.534 829.533 784.054 829C783.628 828.467 783.068 827.853 782.374 827.16C781.681 826.413 780.961 825.773 780.214 825.24C779.521 824.653 778.881 824.28 778.294 824.12ZM766.374 849.96V847.4H763.814V849.96H766.374ZM769.494 826.52C769.494 826.893 769.628 827.213 769.894 827.48C770.214 827.747 770.561 827.88 770.934 827.88C771.308 827.88 771.628 827.747 771.894 827.48C772.161 827.213 772.294 826.893 772.294 826.52C772.294 826.147 772.161 825.827 771.894 825.56C771.628 825.293 771.308 825.16 770.934 825.16C770.561 825.16 770.214 825.293 769.894 825.56C769.628 825.827 769.494 826.147 769.494 826.52ZM771.334 841.16L775.494 841.08L771.254 837.08L771.334 841.16ZM776.454 845.96L780.534 845.88L776.294 841.88L776.454 845.96Z" fill="#DF229D"/>
<path d="M798 839.334C886.5 796.334 767 890.834 868 872.834C969 854.834 851.5 868.834 880.5 922.834" stroke="#FED707" stroke-width="3"/>
</g>
<defs>
<clipPath id="clip0_14_6626">
<rect width="1512" height="982" fill="white"/>
</clipPath>
<clipPath id="clip1_14_6626">
<rect width="1067.54" height="794" fill="white" transform="translate(720 -155)"/>
</clipPath>
</defs>
</svg>
